<svg width="341" height="237" viewBox="0 0 341 237" fill="none" xmlns="http://www.w3.org/2000/svg">
<g opacity="0.5">
<path d="M270.075 71.0402L298.145 62.5607C299.234 62.2316 300.384 62.848 300.713 63.9373L305.706 80.4647C306.035 81.5541 305.418 82.704 304.329 83.0331L276.259 91.5126C275.17 91.8417 274.02 91.2253 273.691 90.1359L268.698 73.6086C268.369 72.5192 268.985 71.3693 270.075 71.0402Z" stroke="#263238" stroke-width="1.00285" stroke-miterlimit="10"/>
<path d="M301.703 66.4902L269.794 76.1607" stroke="#263238" stroke-miterlimit="10"/>
<path d="M302.675 69.6914L270.76 79.3619" stroke="#263238" stroke-miterlimit="10"/>
<path d="M280.471 85.3523C280.553 85.6217 280.578 85.9048 280.547 86.1845C280.516 86.4642 280.429 86.7347 280.29 86.9796C280.768 87.2159 281.319 87.2619 281.83 87.1084C282.155 87.0101 282.451 86.8335 282.692 86.594C282.934 86.3546 283.113 86.0596 283.213 85.735C283.314 85.4103 283.334 85.0659 283.27 84.7319C283.207 84.398 283.063 84.0846 282.85 83.8194C282.637 83.5542 282.363 83.3451 282.051 83.2106C281.739 83.0761 281.398 83.0203 281.059 83.0479C280.721 83.0756 280.394 83.1859 280.108 83.3693C279.821 83.5526 279.585 83.8034 279.418 84.0996C279.668 84.2275 279.89 84.4043 280.071 84.6194C280.252 84.8346 280.388 85.0838 280.471 85.3523Z" stroke="#263238" stroke-miterlimit="10"/>
<path d="M276.496 86.5567C276.616 86.9499 276.85 87.2988 277.168 87.5592C277.486 87.8195 277.874 87.9797 278.283 88.0195C278.692 88.0593 279.104 87.9768 279.466 87.7826C279.829 87.5883 280.125 87.291 280.318 86.9282C280.512 86.5654 280.593 86.1535 280.552 85.7445C280.511 85.3355 280.35 84.9478 280.089 84.6304C279.828 84.3131 279.478 84.0803 279.085 83.9616C278.691 83.8429 278.271 83.8435 277.878 83.9635C277.351 84.1243 276.909 84.4878 276.65 84.9741C276.391 85.4604 276.336 86.0296 276.496 86.5567Z" stroke="#263238" stroke-miterlimit="10"/>
<g opacity="0.5">
<path d="M217.79 116.602L243.845 118.947L242.626 132.499L216.57 130.154L217.79 116.602Z" stroke="#263238" stroke-width="1.00404" stroke-miterlimit="10"/>
<path d="M241.989 129.925L242.7 121.347C242.333 121.315 241.993 121.14 241.755 120.859C241.517 120.579 241.4 120.215 241.429 119.848L220.442 118.118C220.409 118.485 220.234 118.823 219.953 119.061C219.673 119.299 219.31 119.417 218.943 119.389L218.232 127.967C218.414 127.982 218.591 128.032 218.754 128.116C218.916 128.199 219.06 128.314 219.178 128.453C219.297 128.592 219.386 128.753 219.442 128.927C219.497 129.101 219.518 129.284 219.503 129.466L240.49 131.196C240.523 130.829 240.698 130.491 240.979 130.253C241.259 130.015 241.622 129.897 241.989 129.925V129.925Z" stroke="#263238" stroke-miterlimit="10"/>
<path d="M233.666 124.381C233.608 125.083 233.343 125.753 232.905 126.306C232.467 126.858 231.874 127.268 231.203 127.484C230.531 127.699 229.811 127.711 229.133 127.517C228.455 127.323 227.85 126.933 227.394 126.395C226.938 125.857 226.651 125.196 226.571 124.495C226.491 123.795 226.62 123.086 226.943 122.459C227.265 121.832 227.766 121.314 228.383 120.972C229 120.63 229.704 120.478 230.407 120.537C230.873 120.574 231.328 120.704 231.744 120.918C232.161 121.131 232.531 121.425 232.834 121.782C233.137 122.139 233.366 122.553 233.509 122.999C233.651 123.444 233.705 123.914 233.666 124.381V124.381Z" stroke="#263238" stroke-miterlimit="10"/>
<path d="M230.113 126.068L230.058 126.706L229.786 126.66L229.835 126.026C229.35 125.977 228.897 125.759 228.556 125.411L228.738 125.11C229.04 125.418 229.437 125.616 229.866 125.67L229.989 124.212C229.387 124.015 228.781 123.775 228.846 123.044C228.889 122.511 229.307 122.077 230.162 122.08L230.217 121.442L230.488 121.488L230.435 122.115C230.84 122.157 231.224 122.311 231.547 122.559L231.381 122.869C231.101 122.657 230.771 122.519 230.422 122.469L230.297 123.938C230.91 124.137 231.559 124.372 231.498 125.116C231.441 125.658 230.994 126.087 230.113 126.068ZM230.015 123.848L230.127 122.46C229.533 122.46 229.272 122.736 229.242 123.087C229.212 123.439 229.566 123.695 230.015 123.848ZM231.077 125.11C231.111 124.67 230.725 124.456 230.254 124.328L230.137 125.716C230.754 125.72 231.047 125.461 231.077 125.11Z" fill="#263238"/>
</g>
<g opacity="0.2">
<path d="M7.00291 44.1993C4.19023 44.1993 1.9101 41.9192 1.9101 39.1065C1.9101 36.2938 4.19023 34.0137 7.00291 34.0137C9.81559 34.0137 12.0957 36.2938 12.0957 39.1065C12.0957 41.9192 9.81559 44.1993 7.00291 44.1993Z" stroke="#263238" stroke-miterlimit="10"/>
<path d="M7.27806 41.9332V42.8464H6.85659V41.939C6.15844 41.9253 5.48644 41.6709 4.9541 41.219L5.18241 40.7624C5.64788 41.1712 6.2379 41.4105 6.85659 41.4415V39.3517C5.97852 39.1351 5.10045 38.8658 5.10045 37.8121C5.10045 37.0511 5.6507 36.3896 6.85659 36.296V35.3652H7.25464V36.2726C7.82901 36.2848 8.38858 36.4571 8.87029 36.7701L8.67127 37.2384C8.24687 36.9647 7.75884 36.8053 7.25464 36.776V38.8834C8.15027 39.1 9.09858 39.3517 9.09858 40.4229C9.122 41.1898 8.54248 41.8629 7.27806 41.9332ZM6.88001 38.778V36.7936C6.06047 36.8638 5.70925 37.2853 5.70925 37.7887C5.68583 38.3916 6.22438 38.6141 6.85659 38.778H6.88001ZM8.54248 40.4522C8.54248 39.8258 7.9571 39.6092 7.27806 39.4395V41.4415C8.15027 41.3654 8.54248 40.9615 8.54248 40.4522Z" fill="#263238"/>
</g>
<path d="M114.8 3.9797C114.382 4.89592 114.245 5.9156 114.406 6.90981C114.567 7.90401 115.02 8.8281 115.706 9.56522C116.392 10.3023 117.282 10.8194 118.262 11.051C119.242 11.2826 120.269 11.2184 121.213 10.8665C122.156 10.5145 122.975 9.89067 123.564 9.07378C124.153 8.25688 124.487 7.28364 124.523 6.27709C124.559 5.27055 124.295 4.27592 123.766 3.41894C123.237 2.56197 122.466 1.88115 121.55 1.46257C120.941 1.18376 120.284 1.02772 119.615 1.00337C118.947 0.97902 118.28 1.08684 117.653 1.32067C117.026 1.55449 116.451 1.90972 115.962 2.366C115.472 2.82228 115.077 3.37065 114.8 3.9797V3.9797Z" stroke="#263238" stroke-miterlimit="10"/>
<path d="M118.049 8.56267L117.669 9.39391L118.032 9.56367L118.418 8.73828C119.059 9.01733 119.778 9.06289 120.449 8.86707V8.35779C119.858 8.53634 119.224 8.50743 118.652 8.27583L119.518 6.3675C120.408 6.53726 121.327 6.66019 121.766 5.70602C122.082 5.00941 121.86 4.18403 120.789 3.5928L121.169 2.7557L120.812 2.5918L120.432 3.41718C119.905 3.18874 119.325 3.11171 118.757 3.19474V3.70402C119.257 3.63316 119.767 3.6916 120.238 3.87378L119.36 5.79382C118.453 5.61235 117.487 5.4543 117.019 6.42018C116.662 7.12263 116.931 7.97144 118.049 8.56267ZM119.723 5.86407L120.549 4.05525C121.269 4.45916 121.427 4.99771 121.216 5.44845C120.964 5.9987 120.385 5.98115 119.723 5.86407ZM117.516 6.68945C117.78 6.10407 118.394 6.16847 119.085 6.29725L118.26 8.10607C117.493 7.6846 117.306 7.15776 117.516 6.68945Z" fill="#263238"/>
<path d="M145.871 210.227C146.5 211.604 146.706 213.136 146.464 214.629C146.222 216.123 145.542 217.511 144.511 218.619C143.48 219.726 142.144 220.503 140.671 220.851C139.198 221.199 137.656 221.102 136.238 220.573C134.82 220.045 133.591 219.107 132.706 217.88C131.821 216.653 131.32 215.19 131.266 213.678C131.212 212.166 131.607 210.672 132.402 209.384C133.197 208.097 134.356 207.074 135.733 206.446C136.647 206.028 137.634 205.795 138.638 205.759C139.642 205.723 140.644 205.885 141.585 206.236C142.527 206.587 143.39 207.121 144.125 207.805C144.861 208.49 145.454 209.313 145.871 210.227V210.227Z" stroke="#263238" stroke-miterlimit="10"/>
<path d="M140.984 217.122L141.569 218.375L141.025 218.621L140.439 217.38C139.477 217.801 138.398 217.872 137.389 217.579L137.425 216.818C138.313 217.083 139.265 217.035 140.123 216.683L138.818 213.827C137.489 214.078 136.102 214.266 135.446 212.831C134.966 211.789 135.305 210.543 136.909 209.653L136.324 208.406L136.863 208.154L137.448 209.395C138.24 209.054 139.111 208.939 139.965 209.062V209.823C139.216 209.717 138.452 209.806 137.746 210.08L139.058 212.96C140.422 212.691 141.873 212.451 142.541 213.903C143.044 214.962 142.67 216.238 140.984 217.122ZM138.478 213.066L137.231 210.349C136.16 210.935 135.92 211.76 136.236 212.451C136.611 213.276 137.477 213.247 138.478 213.066ZM141.791 214.312C141.399 213.452 140.469 213.522 139.45 213.727L140.691 216.443C141.844 215.805 142.108 215.009 141.791 214.312Z" fill="#263238"/>
<path d="M327.179 101.839C328.316 102.837 329.723 103.476 331.223 103.675C332.723 103.874 334.248 103.623 335.606 102.955C336.963 102.287 338.092 101.232 338.85 99.9223C339.608 98.6127 339.96 97.1078 339.863 95.5979C339.766 94.088 339.223 92.6409 338.303 91.4395C337.383 90.2381 336.128 89.3364 334.696 88.8484C333.264 88.3603 331.719 88.3079 330.257 88.6977C328.795 89.0875 327.481 89.9021 326.482 91.0384C325.819 91.7931 325.31 92.6713 324.986 93.6226C324.662 94.574 324.528 95.5798 324.593 96.5828C324.658 97.5858 324.919 98.5662 325.363 99.468C325.807 100.37 326.424 101.175 327.179 101.839Z" stroke="#263238" stroke-miterlimit="10"/>
<path d="M335.175 99.147L336.206 100.054L336.604 99.6036L335.579 98.708C336.258 97.9049 336.636 96.891 336.65 95.8396L335.907 95.6523C335.907 96.5745 335.595 97.4696 335.023 98.1929L332.682 96.1206C333.308 94.9206 333.887 93.6445 332.682 92.6084C331.815 91.8532 330.527 91.8181 329.216 93.0942L328.151 92.1927L327.758 92.6376L328.783 93.5391C328.238 94.202 327.886 95.0018 327.764 95.8514L328.49 96.0914C328.607 95.3429 328.911 94.636 329.374 94.0367L331.757 96.1265C331.107 97.3499 330.457 98.6729 331.657 99.7324C332.529 100.493 333.858 100.534 335.175 99.147ZM332.014 95.5762L329.772 93.6035C330.662 92.7488 331.528 92.7547 332.067 93.2523C332.769 93.8494 332.488 94.6806 332.032 95.5762H332.014ZM332.254 99.0885C331.54 98.468 331.874 97.5958 332.365 96.6592L334.607 98.6319C333.688 99.5744 332.834 99.6095 332.248 99.1061L332.254 99.0885Z" fill="#263238"/>
<path d="M92.9019 229.451C92.4346 230.013 92.1442 230.7 92.0675 231.426C91.9908 232.153 92.1312 232.886 92.4709 233.532C92.8106 234.179 93.3344 234.71 93.9761 235.059C94.6178 235.408 95.3486 235.559 96.076 235.493C96.8034 235.427 97.4949 235.146 98.0629 234.687C98.631 234.228 99.0501 233.61 99.2674 232.913C99.4847 232.216 99.4903 231.47 99.2835 230.769C99.0768 230.068 98.667 229.445 98.1059 228.977C97.3525 228.351 96.3815 228.049 95.4059 228.138C94.4303 228.227 93.5298 228.699 92.9019 229.451V229.451Z" stroke="#263238" stroke-miterlimit="10"/>
<path d="M94.3067 233.286L93.8794 233.795L94.1018 233.976L94.5233 233.473C94.9171 233.791 95.4102 233.961 95.9165 233.953L95.9985 233.59C95.5512 233.605 95.1127 233.464 94.7574 233.192L95.7292 232.021C96.3146 232.308 96.9409 232.571 97.4268 231.986C97.7839 231.565 97.7839 230.938 97.1517 230.318L97.5731 229.808L97.3507 229.627L96.9292 230.13C96.6046 229.869 96.2131 229.705 95.7994 229.656L95.6941 230.007C96.0577 230.058 96.4034 230.196 96.7009 230.411L95.7175 231.582C95.1321 231.284 94.4706 230.997 93.9613 231.582C93.6218 232.015 93.6335 232.659 94.3067 233.286ZM95.9867 231.693L96.9117 230.587C97.339 231.008 97.3448 231.412 97.1107 231.693C96.8765 231.974 96.4316 231.922 95.9867 231.693ZM94.2891 231.857C94.5818 231.506 95.0033 231.652 95.4599 231.857L94.535 232.964C94.0784 232.566 94.0491 232.156 94.2891 231.875V231.857Z" fill="#263238"/>
<path d="M193.998 19.014C193.812 16.9825 195.307 15.1846 197.339 14.9983C199.37 14.812 201.168 16.3078 201.355 18.3393C201.541 20.3707 200.045 22.1686 198.014 22.3549C195.982 22.5412 194.184 21.0454 193.998 19.014Z" stroke="#263238" stroke-miterlimit="10"/>
<path d="M196.232 20.1489L195.811 20.6581L196.033 20.8396L196.455 20.3362C196.848 20.6554 197.342 20.8254 197.848 20.8162L197.93 20.4533C197.483 20.465 197.046 20.3246 196.689 20.0552L197.661 18.8844C198.246 19.1713 198.873 19.4347 199.358 18.8493C199.71 18.4278 199.716 17.8015 199.077 17.181L199.505 16.6717L199.282 16.4902L198.861 16.9937C198.536 16.7338 198.144 16.5696 197.731 16.5195L197.626 16.8707C197.988 16.9209 198.331 17.0596 198.627 17.2746L197.649 18.4454C197.064 18.1469 196.402 17.86 195.893 18.4454C195.548 18.8786 195.565 19.5225 196.232 20.1489ZM197.918 18.5742L198.843 17.4444C199.265 17.8659 199.276 18.2698 199.042 18.5508C198.808 18.8318 198.363 18.7849 197.918 18.5742ZM196.215 18.7322C196.508 18.3869 196.935 18.5332 197.386 18.7322L196.461 19.8386C196.01 19.4288 195.981 19.0191 196.215 18.7322Z" fill="#263238"/>
<g opacity="0.2">
<path d="M48.86 109.658C46.1223 109.013 44.426 106.271 45.0711 103.533C45.7163 100.795 48.4586 99.0988 51.1963 99.744C53.934 100.389 55.6303 103.131 54.9852 105.869C54.34 108.607 51.5977 110.303 48.86 109.658Z" stroke="#263238" stroke-miterlimit="10"/>
<path d="M48.8061 107.223L48.3319 108.002L47.9924 107.791L48.4666 107.018C47.877 106.644 47.4378 106.074 47.2256 105.408L47.6588 105.139C47.842 105.728 48.2197 106.238 48.73 106.585L49.8305 104.8C49.1925 104.161 48.5778 103.465 49.1281 102.569C49.5261 101.919 50.3398 101.644 51.4286 102.2L51.9086 101.416L52.2481 101.627L51.774 102.399C52.254 102.712 52.6404 103.149 52.8921 103.664L52.4764 103.962C52.2557 103.508 51.9234 103.118 51.5106 102.827L50.4042 104.624C51.0598 105.28 51.733 105.988 51.171 106.901C50.7671 107.557 49.9242 107.82 48.8061 107.223ZM50.1232 104.296L51.1593 102.604C50.4276 102.236 49.8949 102.399 49.6315 102.827C49.3154 103.371 49.649 103.845 50.1232 104.325V104.296ZM50.6618 106.591C50.9896 106.058 50.6091 105.572 50.1115 105.069L49.0695 106.766C49.8481 107.2 50.3925 107.082 50.6559 106.62L50.6618 106.591Z" fill="#263238"/>
</g>
<path d="M1.96638 102.847L25.1762 95.8127C26.2622 95.4836 27.4094 96.0972 27.7385 97.1832L31.8064 110.606C32.1356 111.692 31.522 112.839 30.436 113.168L7.22617 120.202C6.14018 120.531 4.99301 119.918 4.66389 118.832L0.595957 105.409C0.266835 104.323 0.88039 103.176 1.96638 102.847Z" stroke="#263238" stroke-opacity="0.2" stroke-miterlimit="10"/>
<path d="M28.3643 99.248L1.22021 107.473" stroke="#263238" stroke-opacity="0.2" stroke-miterlimit="10"/>
<path d="M29.1895 101.977L2.05126 110.201" stroke="#263238" stroke-opacity="0.2" stroke-miterlimit="10"/>
<path d="M10.3046 115.276C10.3746 115.505 10.3972 115.745 10.371 115.983C10.3449 116.22 10.2705 116.45 10.1524 116.658C10.4087 116.782 10.6914 116.843 10.9763 116.834C11.2611 116.825 11.5394 116.746 11.7873 116.606C12.0351 116.465 12.245 116.266 12.3989 116.026C12.5527 115.787 12.6459 115.513 12.6703 115.229C12.6947 114.945 12.6497 114.659 12.5391 114.397C12.4285 114.134 12.2556 113.902 12.0354 113.721C11.8152 113.541 11.5543 113.416 11.2752 113.358C10.9961 113.301 10.7072 113.312 10.4334 113.391C9.99889 113.522 9.63178 113.815 9.409 114.211C9.623 114.318 9.81285 114.468 9.96686 114.651C10.1209 114.834 10.2358 115.047 10.3046 115.276V115.276Z" stroke="#263238" stroke-opacity="0.2" stroke-miterlimit="10"/>
<path d="M6.9269 116.318C7.03046 116.649 7.22949 116.941 7.49895 117.159C7.76842 117.377 8.09627 117.51 8.44125 117.542C8.78623 117.574 9.13292 117.503 9.4377 117.338C9.74249 117.173 9.99174 116.922 10.1541 116.616C10.3165 116.31 10.3847 115.963 10.3501 115.618C10.3156 115.274 10.1799 114.947 9.96008 114.679C9.74025 114.411 9.44613 114.214 9.11473 114.113C8.78334 114.012 8.42947 114.012 8.09766 114.111C7.87511 114.178 7.66805 114.288 7.48845 114.436C7.30885 114.583 7.1603 114.765 7.0514 114.97C6.9425 115.176 6.87542 115.4 6.85405 115.632C6.83268 115.863 6.85744 116.096 6.9269 116.318V116.318Z" stroke="#263238" stroke-opacity="0.2" stroke-miterlimit="10"/>
<path d="M31.4926 38.3817L65.3755 53.8945L57.3047 71.5226L23.4218 56.0098L31.4926 38.3817Z" stroke="#263238" stroke-opacity="0.2" stroke-miterlimit="10"/>
<path d="M26.3347 53.4747L31.4626 42.2764C31.9417 42.4951 32.488 42.5151 32.9817 42.3318C33.4755 42.1486 33.8764 41.7771 34.0968 41.2988L61.4868 53.8377C61.268 54.3167 61.2481 54.863 61.4313 55.3567C61.6146 55.8505 61.986 56.2515 62.4644 56.4719L57.3364 67.6702C57.099 67.5613 56.8423 67.5003 56.5813 67.4908C56.3202 67.4813 56.0598 67.5235 55.8151 67.6149C55.5704 67.7062 55.3461 67.845 55.1551 68.0233C54.9641 68.2015 54.8102 68.4157 54.7022 68.6536L27.3182 56.1089C27.4271 55.8715 27.488 55.6148 27.4975 55.3538C27.507 55.0927 27.4649 54.8323 27.3735 54.5876C27.2821 54.3429 27.1433 54.1186 26.965 53.9276C26.7868 53.7366 26.5726 53.5827 26.3347 53.4747Z" stroke="#263238" stroke-opacity="0.2" stroke-miterlimit="10"/>
<path d="M44.1829 60.0446C46.9931 60.1638 49.3678 57.9824 49.487 55.1722C49.6062 52.3621 47.4248 49.9874 44.6146 49.8682C41.8045 49.749 39.4297 51.9304 39.3105 54.7406C39.1913 57.5507 41.3728 59.9254 44.1829 60.0446Z" stroke="#263238" stroke-opacity="0.2" stroke-miterlimit="10"/>
<path d="M43.8795 57.7365L43.6373 58.618L43.2539 58.5105L43.4931 57.6417C42.8224 57.4438 42.2422 57.0172 41.8534 56.4359L42.1805 56.0455C42.5198 56.5641 43.0279 56.9494 43.6188 57.1362L44.1773 55.1297C43.3863 54.6884 42.5991 54.1969 42.8792 53.1791C43.0805 52.4466 43.7848 51.9523 44.9812 52.1833L45.2272 51.2973L45.6106 51.4048L45.3706 52.311C45.9209 52.4741 46.4147 52.7874 46.7967 53.2158L46.4696 53.6061C46.1327 53.2296 45.7041 52.9468 45.2254 52.7851L44.6653 54.8207C45.4774 55.2644 46.323 55.7591 46.0578 56.8047C45.8498 57.5086 45.1118 57.9976 43.8795 57.7365ZM44.3294 54.5928L44.869 52.6545C44.0577 52.5017 43.5907 52.8129 43.459 53.2983C43.279 53.8959 43.7427 54.2539 44.3249 54.589L44.3294 54.5928ZM45.4909 56.6428C45.6694 56.0286 45.1562 55.675 44.5403 55.3346L44.0113 57.2512C44.8922 57.4394 45.3509 57.1288 45.4864 56.639L45.4909 56.6428Z" fill="#263238" fill-opacity="0.2"/>
</g>
</svg>
