<svg width="458" height="410" viewBox="0 0 458 410" fill="none" xmlns="http://www.w3.org/2000/svg">
<g opacity="0.5">
<path d="M122.498 104.625L73.6408 89.8657C71.7446 89.293 69.7432 90.3657 69.1704 92.2618L60.4804 121.029C59.9076 122.925 60.9804 124.926 62.8765 125.499L111.734 140.258C113.63 140.831 115.632 139.758 116.205 137.862L124.895 109.095C125.467 107.199 124.395 105.198 122.498 104.625Z" stroke="#263238" stroke-width="1.00285" stroke-miterlimit="10"/>
<path d="M67.4478 96.7041L122.987 113.536" stroke="#263238" stroke-miterlimit="10"/>
<path d="M65.7554 102.277L121.305 119.109" stroke="#263238" stroke-miterlimit="10"/>
<path d="M104.402 129.534C104.261 130.003 104.216 130.495 104.27 130.982C104.325 131.469 104.477 131.94 104.718 132.366C103.885 132.777 102.928 132.857 102.038 132.59C101.472 132.419 100.956 132.112 100.536 131.695C100.116 131.278 99.8051 130.765 99.6298 130.2C99.4544 129.635 99.4204 129.035 99.5306 128.454C99.6409 127.873 99.892 127.327 100.262 126.866C100.632 126.404 101.11 126.04 101.653 125.806C102.196 125.572 102.789 125.475 103.379 125.523C103.968 125.571 104.537 125.763 105.035 126.082C105.534 126.401 105.946 126.838 106.236 127.353C105.8 127.576 105.414 127.884 105.099 128.258C104.784 128.633 104.547 129.066 104.402 129.534Z" stroke="#263238" stroke-miterlimit="10"/>
<path d="M111.321 131.632C111.112 132.316 110.706 132.924 110.152 133.377C109.598 133.83 108.923 134.109 108.211 134.178C107.499 134.247 106.782 134.104 106.151 133.766C105.521 133.428 105.005 132.91 104.668 132.279C104.332 131.647 104.19 130.93 104.262 130.218C104.333 129.506 104.613 128.832 105.068 128.279C105.523 127.727 106.131 127.322 106.816 127.115C107.501 126.908 108.232 126.91 108.916 127.118C109.833 127.398 110.602 128.031 111.053 128.877C111.504 129.724 111.6 130.715 111.321 131.632Z" stroke="#263238" stroke-miterlimit="10"/>
<path d="M454.578 174.064L414.18 161.821C412.29 161.249 410.293 162.317 409.72 164.207L402.64 187.57C402.067 189.46 403.135 191.457 405.025 192.03L445.423 204.273C447.313 204.846 449.31 203.778 449.883 201.887L456.963 178.524C457.536 176.634 456.468 174.637 454.578 174.064Z" stroke="#263238" stroke-miterlimit="10"/>
<path d="M408.631 167.802L455.877 182.118" stroke="#263238" stroke-miterlimit="10"/>
<path d="M407.195 172.55L454.43 186.865" stroke="#263238" stroke-miterlimit="10"/>
<path d="M440.064 195.699C439.943 196.097 439.903 196.515 439.949 196.929C439.994 197.342 440.124 197.742 440.329 198.104C439.883 198.321 439.391 198.426 438.895 198.41C438.4 198.394 437.915 198.258 437.484 198.013C437.052 197.769 436.687 197.423 436.419 197.005C436.151 196.588 435.989 196.111 435.947 195.617C435.904 195.123 435.983 194.626 436.175 194.169C436.368 193.711 436.669 193.308 437.052 192.993C437.435 192.678 437.889 192.461 438.375 192.361C438.861 192.261 439.364 192.281 439.84 192.418C440.597 192.646 441.236 193.157 441.623 193.845C441.251 194.031 440.92 194.292 440.652 194.611C440.384 194.93 440.184 195.3 440.064 195.699V195.699Z" stroke="#263238" stroke-miterlimit="10"/>
<path d="M445.943 197.513C445.763 198.089 445.417 198.598 444.948 198.977C444.479 199.356 443.908 199.588 443.307 199.643C442.707 199.699 442.104 199.575 441.573 199.289C441.043 199.002 440.609 198.565 440.326 198.032C440.044 197.499 439.925 196.895 439.985 196.295C440.045 195.695 440.281 195.126 440.664 194.66C441.047 194.194 441.558 193.852 442.135 193.676C442.712 193.5 443.328 193.499 443.906 193.672C444.293 193.788 444.653 193.98 444.966 194.237C445.278 194.494 445.537 194.81 445.727 195.167C445.916 195.524 446.033 195.916 446.07 196.319C446.107 196.721 446.064 197.127 445.943 197.513V197.513Z" stroke="#263238" stroke-miterlimit="10"/>
<path d="M389.923 62.4434L330.948 89.4443L344.995 120.127L403.971 93.1261L389.923 62.4434Z" stroke="#263238" stroke-miterlimit="10"/>
<path d="M398.901 88.7163L389.975 69.225C389.142 69.6057 388.191 69.6404 387.331 69.3214C386.472 69.0025 385.774 68.356 385.39 67.5234L337.717 89.348C338.097 90.1819 338.132 91.1326 337.813 91.992C337.494 92.8514 336.848 93.5493 336.015 93.933L344.941 113.424C345.354 113.235 345.801 113.129 346.255 113.112C346.709 113.096 347.163 113.169 347.589 113.328C348.015 113.487 348.405 113.729 348.737 114.039C349.07 114.349 349.338 114.722 349.526 115.136L397.189 93.3013C397 92.8879 396.893 92.4413 396.877 91.9869C396.86 91.5325 396.934 91.0793 397.093 90.6533C397.252 90.2273 397.493 89.8369 397.804 89.5045C398.114 89.1721 398.487 88.9042 398.901 88.7163Z" stroke="#263238" stroke-miterlimit="10"/>
<path d="M372.859 98.3235C376.742 95.3412 377.471 89.7763 374.489 85.8939C371.507 82.0115 365.942 81.2818 362.059 84.2641C358.177 87.2464 357.447 92.8114 360.43 96.6938C363.412 100.576 368.977 101.306 372.859 98.3235Z" stroke="#263238" stroke-miterlimit="10"/>
<path d="M369.873 95.5831L370.536 97.03L369.904 97.3152L369.252 95.8888C368.136 96.3745 366.885 96.4538 365.716 96.1129V95.2265C366.749 95.539 367.857 95.485 368.854 95.0737L367.357 91.7725C365.808 92.068 364.208 92.2921 363.444 90.6212C362.894 89.4189 363.281 87.9721 365.135 86.943L364.473 85.486L365.105 85.2007L365.798 86.6781C366.714 86.2805 367.723 86.1464 368.712 86.2909V87.1773C367.841 87.0517 366.953 87.1535 366.134 87.4728L367.662 90.8147C369.242 90.4989 370.923 90.2136 371.738 91.905C372.247 93.0767 371.809 94.5541 369.873 95.5831ZM366.959 90.8861L365.512 87.697C364.259 88.4 363.984 89.3374 364.351 90.1321C364.779 91.1306 365.798 91.0898 366.949 90.8861H366.959ZM370.8 92.3227C370.352 91.3038 369.272 91.4057 368.07 91.64L369.506 94.7884C370.892 94.0548 371.157 93.1276 370.79 92.3227H370.8Z" fill="#263238"/>
<path d="M64.4551 202.211L19.1045 206.293L21.2273 229.88L66.578 225.799L64.4551 202.211Z" stroke="#263238" stroke-width="1.00404" stroke-miterlimit="10"/>
<path d="M62.9335 221.029L61.6497 206.102C61.011 206.156 60.377 205.955 59.8863 205.542C59.3956 205.13 59.0881 204.54 59.0312 203.901L22.5143 207.06C22.5653 207.698 22.3629 208.331 21.951 208.821C21.5392 209.311 20.9509 209.619 20.3135 209.678L21.5973 224.605C21.9138 224.577 22.2328 224.612 22.5358 224.708C22.8389 224.803 23.1201 224.957 23.3634 225.162C23.6067 225.366 23.8072 225.617 23.9535 225.899C24.0997 226.181 24.1889 226.489 24.2158 226.806L60.7327 223.647C60.6817 223.009 60.884 222.377 61.2959 221.887C61.7078 221.397 62.2961 221.088 62.9335 221.029V221.029Z" stroke="#263238" stroke-miterlimit="10"/>
<path d="M47.8032 214.823C47.9095 216.046 47.6508 217.273 47.0597 218.349C46.4687 219.424 45.5718 220.301 44.4827 220.867C43.3935 221.433 42.1609 221.663 40.9409 221.528C39.7209 221.394 38.5682 220.9 37.6286 220.11C36.6891 219.32 36.0049 218.27 35.6626 217.091C35.3204 215.912 35.3354 214.658 35.7058 213.488C36.0762 212.318 36.7853 211.284 37.7435 210.517C38.7017 209.75 39.8659 209.284 41.0888 209.179C41.9005 209.107 42.7183 209.197 43.4953 209.442C44.2724 209.687 44.9934 210.083 45.6171 210.608C46.2408 211.132 46.755 211.774 47.1301 212.498C47.5052 213.221 47.734 214.011 47.8032 214.823V214.823Z" stroke="#263238" stroke-miterlimit="10"/>
<path d="M42.1988 218.756L42.2905 219.867H41.8116L41.7097 218.766C40.863 218.823 40.0232 218.581 39.3357 218.084L39.5599 217.513C40.1679 217.955 40.9078 218.178 41.6588 218.145L41.4448 215.608C40.3546 215.445 39.244 215.211 39.1421 213.937C39.0606 213.01 39.6516 212.144 41.1188 211.899L41.0271 210.789H41.5059L41.5976 211.879C42.3043 211.834 43.0097 211.985 43.6354 212.317L43.4418 212.898C42.8981 212.615 42.2917 212.475 41.6792 212.49L41.8931 215.048C43.0037 215.211 44.1856 215.425 44.2977 216.719C44.3588 217.666 43.7169 218.532 42.1988 218.756ZM41.3837 214.976L41.1697 212.561C40.1508 212.735 39.784 213.285 39.835 213.896C39.8859 214.508 40.5686 214.844 41.3837 214.976ZM43.5743 216.831C43.503 216.066 42.7796 215.812 41.9339 215.73L42.1377 218.145C43.1973 217.972 43.6252 217.442 43.5743 216.831Z" fill="#263238"/>
<path d="M431.343 76.194C436.239 76.194 440.208 72.2253 440.208 67.3296C440.208 62.434 436.239 58.4653 431.343 58.4653C426.448 58.4653 422.479 62.434 422.479 67.3296C422.479 72.2253 426.448 76.194 431.343 76.194Z" stroke="#263238" stroke-miterlimit="10"/>
<path d="M431.739 72.2503V73.8397H431.006V72.2604C429.791 72.2364 428.621 71.7938 427.694 71.0072L428.092 70.2125C428.902 70.9239 429.929 71.3405 431.006 71.3944V67.757C429.477 67.38 427.949 66.9113 427.949 65.0773C427.949 63.7528 428.907 62.6014 431.006 62.4384V60.8184H431.699V62.3976C432.698 62.4188 433.672 62.7188 434.511 63.2637L434.164 64.0788C433.426 63.6022 432.576 63.3249 431.699 63.2739V66.9419C433.257 67.3188 434.908 67.757 434.908 69.6215C434.949 70.9563 433.94 72.128 431.739 72.2503ZM431.046 66.7585V63.3044C429.62 63.4267 429.009 64.1603 429.009 65.0365C428.968 66.086 429.905 66.4732 431.006 66.7585H431.046ZM433.94 69.6725C433.94 68.5823 432.921 68.2053 431.739 67.9098V71.3944C433.257 71.2619 433.94 70.5589 433.94 69.6725Z" fill="#263238"/>
<path d="M372.958 185.919C377.723 184.796 380.676 180.023 379.553 175.258C378.43 170.493 373.657 167.54 368.892 168.663C364.127 169.786 361.174 174.559 362.297 179.324C363.42 184.089 368.193 187.042 372.958 185.919Z" stroke="#263238" stroke-miterlimit="10"/>
<path d="M368.69 181.68L367.865 183.035L367.274 182.668L368.099 181.323C367.073 180.671 366.309 179.679 365.939 178.521L366.693 178.052C367.012 179.078 367.67 179.965 368.558 180.569L370.473 177.461C369.363 176.351 368.293 175.138 369.251 173.579C369.944 172.448 371.36 171.97 373.255 172.938L374.091 171.572L374.681 171.939L373.856 173.284C374.692 173.828 375.364 174.589 375.802 175.485L375.079 176.004C374.695 175.214 374.116 174.534 373.398 174.028L371.472 177.156C372.613 178.297 373.785 179.53 372.807 181.119C372.104 182.26 370.636 182.719 368.69 181.68ZM370.983 176.585L372.786 173.641C371.513 172.999 370.586 173.284 370.127 174.028C369.577 174.975 370.158 175.801 370.983 176.636V176.585ZM371.92 180.579C372.491 179.652 371.829 178.806 370.963 177.93L369.149 180.885C370.504 181.639 371.452 181.435 371.91 180.63L371.92 180.579Z" fill="#263238"/>
<path d="M243.715 6.18633C244.443 7.78107 244.682 9.55588 244.401 11.2864C244.12 13.0168 243.333 14.6252 242.138 15.9082C240.944 17.1912 239.396 18.0912 237.689 18.4944C235.983 18.8975 234.196 18.7857 232.553 18.1732C230.911 17.5606 229.487 16.4747 228.461 15.0529C227.436 13.631 226.855 11.937 226.792 10.1851C226.73 8.43313 227.188 6.70191 228.109 5.21031C229.03 3.7187 230.372 2.5337 231.967 1.80512C233.026 1.31985 234.17 1.04824 235.334 1.00586C236.498 0.963483 237.659 1.15116 238.75 1.55814C239.841 1.96513 240.841 2.58342 241.693 3.3776C242.545 4.17179 243.232 5.12626 243.715 6.18633V6.18633Z" stroke="#263238" stroke-miterlimit="10"/>
<path d="M238.059 14.1641L238.722 15.6109L238.09 15.9064L237.417 14.4698C236.301 14.9555 235.05 15.0348 233.882 14.6939V13.8075C234.91 14.1183 236.014 14.068 237.01 13.6649L235.502 10.3433C233.953 10.6388 232.354 10.8527 231.589 9.19196C231.039 7.97948 231.426 6.54285 233.291 5.51378L232.629 4.05677L233.25 3.77148L233.912 5.20811C234.829 4.8105 235.838 4.67642 236.826 4.82094V5.70737C235.956 5.58403 235.069 5.68576 234.249 6.00284L235.777 9.34479C237.356 9.02893 239.037 8.75384 239.853 10.435C240.474 11.6577 240.005 13.135 238.059 14.1641ZM235.145 9.46706L233.709 6.3187C232.455 7.02173 232.18 7.9591 232.547 8.74365C232.985 9.7014 233.994 9.67084 235.145 9.46706ZM238.987 10.9037C238.528 9.8848 237.458 9.99688 236.256 10.221L237.693 13.3694C239.027 12.6358 239.353 11.7188 238.987 10.9037Z" fill="#263238"/>
<path d="M213.861 365.171C214.955 367.567 215.314 370.233 214.893 372.833C214.471 375.432 213.288 377.849 211.494 379.776C209.699 381.704 207.373 383.056 204.81 383.662C202.247 384.267 199.561 384.099 197.094 383.179C194.626 382.258 192.487 380.627 190.946 378.491C189.406 376.355 188.533 373.81 188.439 371.178C188.345 368.546 189.033 365.945 190.417 363.704C191.801 361.463 193.819 359.683 196.214 358.589C197.805 357.862 199.524 357.456 201.272 357.393C203.019 357.331 204.763 357.613 206.401 358.224C208.04 358.836 209.542 359.764 210.822 360.956C212.102 362.147 213.135 363.58 213.861 365.171V365.171Z" stroke="#263238" stroke-miterlimit="10"/>
<path d="M205.353 377.174L206.372 379.354L205.425 379.782L204.406 377.622C202.732 378.356 200.853 378.478 199.098 377.969L199.159 376.644C200.705 377.105 202.363 377.022 203.856 376.41L201.584 371.437C199.271 371.876 196.856 372.202 195.715 369.705C194.879 367.892 195.47 365.722 198.262 364.173L197.243 362.003L198.181 361.564L199.199 363.724C200.578 363.131 202.095 362.93 203.581 363.144V364.468C202.276 364.284 200.946 364.439 199.719 364.917L202.001 369.93C204.375 369.461 206.902 369.043 208.064 371.57C208.94 373.414 208.288 375.635 205.353 377.174ZM200.993 370.113L198.822 365.385C196.958 366.404 196.54 367.841 197.09 369.043C197.742 370.48 199.25 370.429 200.993 370.113ZM206.76 372.283C206.077 370.785 204.457 370.908 202.684 371.264L204.844 375.992C206.851 374.881 207.31 373.496 206.76 372.283Z" fill="#263238"/>
<path d="M23.1052 158.235C21.1266 159.973 18.6771 161.085 16.0663 161.431C13.4556 161.777 10.8009 161.341 8.43791 160.179C6.07489 159.016 4.10965 157.179 2.79065 154.9C1.47164 152.62 0.858112 150.001 1.02762 147.373C1.19713 144.745 2.14206 142.226 3.74296 140.135C5.34385 138.044 7.52882 136.474 10.0216 135.625C12.5144 134.775 15.2031 134.684 17.7477 135.363C20.2924 136.041 22.5787 137.459 24.3177 139.437C25.4728 140.75 26.3577 142.279 26.922 143.935C27.4862 145.591 27.7187 147.341 27.6061 149.087C27.4935 150.833 27.038 152.539 26.2658 154.109C25.4935 155.679 24.4195 157.081 23.1052 158.235Z" stroke="#263238" stroke-miterlimit="10"/>
<path d="M9.18673 153.548L7.39349 155.127L6.70065 154.343L8.4837 152.784C7.3024 151.386 6.64332 149.621 6.61914 147.791L7.91313 147.465C7.91377 149.07 8.45583 150.628 9.45164 151.887L13.5272 148.28C12.437 146.192 11.4283 143.97 13.5272 142.167C15.0351 140.853 17.2767 140.792 19.559 143.013L21.4134 141.444L22.096 142.218L20.313 143.787C21.2615 144.941 21.8748 146.333 22.0858 147.812L20.8224 148.229C20.6195 146.927 20.0902 145.696 19.2839 144.653L15.137 148.291C16.268 150.42 17.399 152.723 15.3102 154.567C13.7921 155.891 11.4792 155.963 9.18673 153.548ZM14.6887 147.333L18.5911 143.899C17.0423 142.412 15.5344 142.422 14.597 143.288C13.3744 144.327 13.8634 145.774 14.6582 147.333H14.6887ZM14.271 153.446C15.514 152.366 14.9333 150.848 14.0774 149.218L10.1751 152.651C11.7747 154.292 13.2623 154.353 14.2812 153.477L14.271 153.446Z" fill="#263238"/>
<path d="M84.0682 271.82C84.2102 268.269 81.4469 265.275 77.8962 265.133C74.3454 264.991 71.3518 267.754 71.2098 271.305C71.0678 274.856 73.8311 277.85 77.3818 277.992C80.9326 278.134 83.9261 275.37 84.0682 271.82Z" stroke="#263238" stroke-width="1.0008" stroke-miterlimit="10"/>
<path d="M79.4907 272.808L80.2243 273.695L79.8473 274.011L79.1137 273.135C78.4243 273.689 77.5629 273.984 76.6785 273.97L76.5359 273.338C77.3136 273.359 78.0752 273.114 78.6959 272.645L77.0046 270.608C75.9857 271.107 74.9057 271.565 74.0498 270.547C73.4385 269.813 73.4385 268.723 74.5389 267.643L73.7951 266.756L74.1823 266.44L74.9159 267.317C75.4831 266.866 76.1635 266.581 76.8823 266.491L77.0657 267.103C76.4359 267.19 75.8375 267.432 75.3234 267.806L77.025 269.844C78.0438 269.324 79.1952 268.825 80.0816 269.844C80.7031 270.597 80.6828 271.718 79.4907 272.808ZM76.5766 270.078L74.9668 268.152C74.2332 268.886 74.223 269.589 74.6204 270.078C75.0178 270.567 75.8125 270.434 76.5766 270.078ZM79.5416 270.353C79.0322 269.752 78.2986 270.007 77.5038 270.404L79.1137 272.33C79.8982 271.555 79.9492 270.842 79.5416 270.343V270.353Z" fill="#263238"/>
<path d="M281.831 398.631C282.645 399.608 283.15 400.804 283.284 402.069C283.417 403.333 283.173 404.609 282.582 405.734C281.99 406.86 281.079 407.784 279.962 408.392C278.845 408.999 277.573 409.262 276.307 409.147C275.041 409.031 273.837 408.543 272.848 407.744C271.86 406.944 271.13 405.87 270.752 404.656C270.374 403.442 270.364 402.144 270.724 400.924C271.084 399.705 271.797 398.62 272.774 397.805C274.085 396.716 275.775 396.191 277.473 396.345C279.171 396.5 280.738 397.322 281.831 398.631V398.631Z" stroke="#263238" stroke-miterlimit="10"/>
<path d="M279.386 405.304L280.13 406.19L279.742 406.506L279.009 405.63C278.323 406.184 277.465 406.48 276.584 406.466L276.441 405.834C277.22 405.859 277.983 405.614 278.601 405.141L276.91 403.103C275.891 403.603 274.801 404.061 273.955 403.042C273.334 402.309 273.334 401.218 274.434 400.138L273.7 399.252L274.088 398.936L274.821 399.812C275.386 399.358 276.068 399.072 276.788 398.987L276.971 399.598C276.338 399.686 275.736 399.927 275.219 400.301L276.93 402.339C277.949 401.819 279.1 401.32 279.987 402.339C280.578 403.093 280.557 404.214 279.386 405.304ZM276.462 402.533L274.852 400.607C274.108 401.341 274.098 402.044 274.505 402.533C274.913 403.022 275.687 402.93 276.462 402.533ZM279.416 402.818C278.907 402.207 278.173 402.461 277.379 402.818L278.988 404.744C279.783 404.051 279.834 403.338 279.416 402.849V402.818Z" fill="#263238"/>
<path d="M105.867 32.3545C106.191 28.8186 103.588 25.6894 100.052 25.3651C96.5158 25.0408 93.3865 27.6443 93.0623 31.1802C92.738 34.7161 95.3415 37.8454 98.8774 38.1697C102.413 38.494 105.543 35.8904 105.867 32.3545Z" stroke="#263238" stroke-miterlimit="10"/>
<path d="M101.977 34.328L102.711 35.2144L102.324 35.5303L101.59 34.654C100.906 35.2097 100.047 35.5056 99.1651 35.4895L99.0225 34.8578C99.8002 34.8782 100.562 34.634 101.183 34.165L99.4912 32.1272C98.4723 32.6265 97.3821 33.085 96.5364 32.0661C95.9251 31.3325 95.9149 30.2423 97.0255 29.1622L96.2817 28.2758L96.6689 27.96L97.4025 28.8362C97.9686 28.3839 98.6495 28.0981 99.3689 28.0109L99.5523 28.6222C98.9225 28.7096 98.3241 28.9511 97.81 29.3253L99.5116 31.363C100.53 30.8434 101.682 30.3442 102.568 31.363C103.169 32.117 103.139 33.2378 101.977 34.328ZM99.0429 31.5872L97.433 29.6207C96.6994 30.3543 96.679 31.0574 97.0866 31.5464C97.4942 32.0355 98.2685 31.954 99.0429 31.5872ZM102.008 31.8623C101.498 31.2611 100.755 31.5159 99.9701 31.8623L101.58 33.788C102.364 33.0748 102.415 32.3615 102.008 31.8623Z" fill="#263238"/>
</g>
</svg>
