<svg width="86" height="97" viewBox="0 0 86 97" fill="none" xmlns="http://www.w3.org/2000/svg">
<path d="M85.5001 47.7C85.4001 47.5 85.1001 46.9 85.1001 46.9C83.9001 44.9 82.9001 42.8 81.9001 40.7C79.9001 36.9 78.0001 33 76.0001 29.1C74.0001 25.3 72.1001 21.5 70.1001 17.7C68.1001 13.9 66.2001 10 64.2001 6.10001C63.3001 4.30001 62.4001 2.50001 61.5001 0.700012C61.4001 0.500012 61.2001 0.299988 61.1001 0.299988C61.0001 0.299988 60.9001 0.299988 60.8001 0.299988H40.6001H22.2001H2.00012C1.90012 0.299988 1.70013 0.299988 1.70013 0.299988C1.40013 0.399988 1.4001 0.599994 1.6001 0.899994C3.4001 4.29999 5.20012 7.6 7.00012 11C8.20012 13.3 9.50013 15.7 10.7001 18C12.5001 21.4 14.3001 24.8 16.1001 28.2C17.4001 30.6 18.7001 33 19.9001 35.4C22.0001 39.3 24.0001 43.2 26.1001 47.1C26.5001 47.9 26.4001 48.5 26.0001 49.2C24.9001 51.2 23.8001 53.2 22.7001 55.2C20.9001 58.4 19.1001 61.7 17.3001 64.9C16.4001 66.6 15.5001 68.2 14.6001 69.9C12.7001 73.3 10.9001 76.6 9.1001 80C7.9001 82.3 6.60015 84.6 5.40015 86.8C3.80015 89.7 2.20013 92.5 0.700134 95.4C0.600134 95.6 0.40011 95.9 0.30011 96.1C0.20011 96.2 0.200098 96.4 0.100098 96.5C0.300098 96.5 0.60011 96.5 0.80011 96.5C8.70011 96.5 16.6001 96.5 24.4001 96.5C29.3001 96.5 34.2001 96.5 39.1001 96.5C39.1001 96.5 39.1001 96.5 39.2001 96.5C41.0001 96.5 42.8001 96.5 44.6001 96.5C49.5001 96.5 54.4001 96.5 59.3001 96.5C59.8001 96.5 60.1001 96.4 60.3001 95.9C60.4001 95.7 60.5001 95.5 60.6001 95.3C61.0001 94.6 61.4001 94 61.7001 93.3C63.2001 90.4 64.7001 87.5 66.3001 84.6C67.9001 81.6 69.5001 78.6 71.1001 75.6C72.8001 72.4 74.5001 69.3 76.1001 66.2C77.8001 63.1 79.4001 60 81.0001 56.9C82.3001 54.5 83.5001 52.2 84.8001 49.8C84.9001 49.7 84.9001 49.5 85.1001 49.3C85.1001 49.3 85.4001 48.7 85.5001 48.5C85.6001 48.1 85.6001 47.9 85.5001 47.7Z" fill="#E32385"/>
</svg>