<svg width="536" height="536" viewBox="0 0 536 536" fill="none" xmlns="http://www.w3.org/2000/svg">
<path d="M461.743 199.928C458.908 190.707 455.204 181.777 450.68 173.257C427.354 129.905 386.446 97.1982 341.701 77.8486C306.175 62.5083 262.244 54.4898 224.553 68.3078C205.492 75.2973 187.547 88.6758 177.331 106.525C164.017 129.83 165.271 158.656 154.701 183.151C146.125 202.972 124.814 214.882 108.112 227.103C82.0516 246.099 56.3772 268.557 47.3403 300.685C35.291 343.512 38.8608 394.496 63.2488 432.584C81.4728 461.003 112.668 469.536 144.86 470.104C175.241 470.651 212.396 462.975 240.751 476.836C289.055 500.42 352.796 526.899 406.846 508.235C462.59 488.993 489.894 451.516 497.966 402.9C506.038 354.285 483.794 313.785 476.698 275.332C472.281 251.009 469.355 224.155 461.743 199.928Z" fill="#E32385"/>
<path opacity="0.8" d="M461.743 199.928C458.908 190.707 455.204 181.777 450.68 173.257C427.354 129.905 386.446 97.1982 341.701 77.8486C306.175 62.5083 262.244 54.4898 224.553 68.3078C205.492 75.2973 187.547 88.6758 177.331 106.525C164.017 129.83 165.271 158.656 154.701 183.151C146.125 202.972 124.814 214.882 108.112 227.103C82.0516 246.099 56.3772 268.557 47.3403 300.685C35.291 343.512 38.8608 394.496 63.2488 432.584C81.4728 461.003 112.668 469.536 144.86 470.104C175.241 470.651 212.396 462.975 240.751 476.836C289.055 500.42 352.796 526.899 406.846 508.235C462.59 488.993 489.894 451.516 497.966 402.9C506.038 354.285 483.794 313.785 476.698 275.332C472.281 251.009 469.355 224.155 461.743 199.928Z" fill="white"/>
<path d="M55.3266 345.892C55.0479 342.794 54.9836 339.942 54.9514 337.412C54.9514 335.976 54.9514 334.678 54.9514 333.467C56.0234 332.556 60.4937 328.857 61.7265 326.36C62.9593 323.862 63.7954 320.464 62.4876 317.848C62.206 317.224 61.7971 316.666 61.2871 316.21C60.7771 315.753 60.1773 315.409 59.5262 315.198C58.8751 314.987 58.1871 314.914 57.5064 314.985C56.8256 315.055 56.1671 315.267 55.5732 315.608C52.1106 317.752 51.8212 325.159 52.7538 328.729C52.8289 329.04 54.6406 333.714 54.6942 333.671L54.7692 333.617C54.7156 334.786 54.662 336.04 54.6406 337.401C54.6406 339.931 54.6406 342.761 54.8335 345.913C54.8335 346.428 54.9086 346.985 54.9514 347.51C55.3374 348.089 55.5518 348.464 55.5518 348.464C55.5089 347.596 55.4017 346.717 55.3266 345.892Z" fill="#BABABA"/>
<path d="M44.189 338.034C39.5366 338.795 38.9362 343.158 43.2778 345.945C46.9548 348.304 53.2367 348.464 55.0698 348.464C55.0698 348.143 55.0698 347.821 54.9948 347.51C53.2367 344.82 48.0054 337.401 44.189 338.034Z" fill="#BABABA"/>
<path d="M136.756 317.559C132.65 317.43 128.32 323.369 127.108 326.821C127.001 327.121 125.95 331.988 126.036 331.977H126.122C125.425 332.91 124.696 333.917 123.978 335.043C122.563 337.123 120.987 339.481 119.454 342.161L118.918 343.094C118.843 343.844 118.779 344.294 118.779 344.294L118.414 343.994C117.119 346.295 115.942 348.66 114.887 351.08C113.365 354.502 112.152 358.054 111.264 361.693C111.264 361.693 111.264 361.779 111.264 361.821C111.178 360.621 110.814 357.265 110.76 357.019C109.956 353.417 106.311 346.91 102.184 346.47C101.507 346.413 100.826 346.501 100.186 346.728C99.5453 346.955 98.9607 347.316 98.4707 347.787C97.9808 348.257 97.5968 348.827 97.3443 349.458C97.0919 350.088 96.9767 350.766 97.0065 351.444C97.0065 354.35 99.3863 357.083 101.584 358.745C104.071 360.632 110.621 362.143 111.135 362.261C110.329 365.997 109.771 369.782 109.463 373.592C109.27 375.811 109.152 378.052 109.056 380.313C108.938 379.241 108.841 378.341 108.809 378.169C108.005 374.578 104.36 368.071 100.233 367.632C99.5567 367.575 98.8758 367.662 98.236 367.889C97.5962 368.117 97.0122 368.478 96.5231 368.948C96.034 369.419 95.651 369.989 95.3997 370.62C95.1485 371.251 95.0348 371.928 95.0662 372.606C95.0662 375.511 97.446 378.234 99.6436 379.906C101.841 381.578 107.437 383.004 108.916 383.347C108.916 384.216 108.852 385.073 108.831 385.941C108.713 390.09 108.606 394.228 108.391 398.291C108.316 399.717 108.187 401.121 108.059 402.525C107.962 401.603 107.877 400.832 107.844 400.714C107.051 397.122 103.396 390.615 99.2684 390.176C98.5915 390.117 97.9099 390.204 97.2692 390.43C96.6286 390.656 96.0439 391.017 95.5544 391.489C95.0649 391.96 94.682 392.53 94.4314 393.162C94.1807 393.793 94.0682 394.471 94.1014 395.15C94.1014 398.055 96.4705 400.778 98.6681 402.45C100.866 404.123 105.926 405.398 107.673 405.827C107.555 406.813 107.437 407.8 107.298 408.764C107.919 408.947 108.552 409.097 109.206 409.225C109.442 407.36 109.624 405.463 109.774 403.544C111.296 403.972 116.742 405.42 119.422 405.023C122.102 404.626 125.447 403.372 126.808 400.821C127.144 400.226 127.352 399.567 127.42 398.887C127.487 398.207 127.412 397.52 127.199 396.87C126.986 396.221 126.64 395.623 126.184 395.114C125.727 394.606 125.169 394.198 124.546 393.917C120.73 392.309 114.534 396.265 112.175 399.041C112.036 399.213 110.567 401.4 109.785 402.611C109.881 401.207 109.978 399.813 110.021 398.398C110.16 394.292 110.171 390.133 110.192 385.995C110.192 384.719 110.192 383.454 110.192 382.189C110.739 382.35 117.171 384.205 120.215 383.755C122.927 383.358 126.24 382.104 127.601 379.563C127.939 378.968 128.148 378.308 128.215 377.627C128.282 376.946 128.207 376.258 127.993 375.608C127.779 374.958 127.431 374.36 126.972 373.852C126.514 373.344 125.954 372.938 125.329 372.659C121.523 371.051 115.327 374.996 112.969 377.773C112.797 377.987 110.696 381.128 110.203 381.954C110.203 379.166 110.31 376.39 110.482 373.656C110.702 369.964 111.161 366.291 111.854 362.658C112.111 362.733 118.822 364.694 121.93 364.244C124.643 363.848 127.966 362.583 129.317 360.042C129.652 359.447 129.861 358.788 129.928 358.108C129.995 357.428 129.92 356.741 129.707 356.091C129.495 355.442 129.149 354.844 128.692 354.335C128.235 353.827 127.678 353.419 127.055 353.138C123.249 351.53 117.042 355.486 114.684 358.262C114.502 358.477 112.25 361.864 111.875 362.55C111.875 362.336 111.939 362.111 111.982 361.907C112.782 358.294 113.905 354.76 115.338 351.348C116.099 349.451 116.935 347.692 117.793 345.988C119.004 346.481 124.578 348.679 127.441 348.582C130.303 348.486 133.626 347.607 135.255 345.227C135.657 344.674 135.938 344.042 136.08 343.374C136.222 342.705 136.222 342.014 136.081 341.345C135.94 340.676 135.659 340.045 135.259 339.491C134.858 338.937 134.346 338.474 133.755 338.13C130.142 336.115 123.528 339.352 120.891 341.85C120.751 341.979 119.443 343.533 118.5 344.669C118.897 343.908 119.293 343.115 119.69 342.397C121.169 339.685 122.692 337.294 124.053 335.193C124.836 334.003 125.575 332.942 126.272 331.977C127.698 331.848 133.476 331.237 135.92 329.833C138.364 328.429 140.905 326.113 141.28 323.24C141.382 322.566 141.344 321.878 141.169 321.22C140.993 320.561 140.683 319.946 140.258 319.412C139.833 318.879 139.303 318.439 138.701 318.12C138.098 317.801 137.436 317.61 136.756 317.559Z" fill="#BABABA"/>
<path d="M80.4006 406.063C80.6793 406.61 80.9473 407.135 81.2153 407.714L83.0484 407.113C82.3516 405.731 81.6334 404.348 80.9044 402.986C82.3945 402.504 87.6901 400.714 89.7055 398.88C91.7209 397.047 93.7684 394.153 93.4897 391.269C93.4438 390.585 93.2568 389.918 92.9404 389.31C92.624 388.702 92.1851 388.166 91.6513 387.736C91.1176 387.306 90.5005 386.991 89.8391 386.812C89.1776 386.632 88.4861 386.591 87.8081 386.692C83.7774 387.442 80.8401 394.196 80.4327 397.83C80.4327 398.066 80.4327 400.714 80.4327 402.118C79.7252 400.896 79.0391 399.663 78.2887 398.441C76.1447 394.903 73.8506 391.398 71.578 387.892L69.5198 384.676C70.0557 384.516 76.3913 382.533 78.6532 380.464C80.6686 378.641 82.7161 375.747 82.4374 372.863C82.3931 372.179 82.2071 371.511 81.8912 370.902C81.5753 370.293 81.1364 369.756 80.6022 369.326C80.0681 368.896 79.4504 368.581 78.7882 368.402C78.1261 368.223 77.434 368.183 76.7557 368.286C72.725 369.036 69.7878 375.79 69.3804 379.424C69.3804 379.702 69.3804 383.508 69.3804 384.484C67.8689 382.104 66.3895 379.724 65.0281 377.323C63.1746 374.089 61.5276 370.741 60.0969 367.299C60.3434 367.224 66.9684 365.155 69.2839 363.065C71.2993 361.243 73.3468 358.348 73.0681 355.454C73.0224 354.77 72.8354 354.104 72.5189 353.496C72.2023 352.888 71.7632 352.353 71.2292 351.924C70.6952 351.495 70.078 351.181 69.4166 351.002C68.7551 350.824 68.0639 350.785 67.3865 350.887C63.3558 351.637 60.4185 358.391 60.0111 362.025C60.0111 362.315 60.0111 366.41 60.0111 367.16C59.9361 366.956 59.8289 366.753 59.7538 366.56C58.4217 363.082 57.3959 359.495 56.6879 355.84C56.2698 353.824 55.9911 351.873 55.7553 349.965C57.031 349.719 62.8412 348.486 65.146 346.835C67.4508 345.184 69.702 342.547 69.7449 339.695C69.7736 339.01 69.6599 338.326 69.4111 337.687C69.1622 337.048 68.7836 336.467 68.2991 335.982C67.8146 335.496 67.2348 335.116 66.5961 334.866C65.9575 334.616 65.2739 334.501 64.5886 334.528C60.4935 334.828 56.8273 341.207 56.0126 344.777C56.0126 344.97 55.7338 346.996 55.5838 348.475H55.0585C55.2622 350.855 55.5516 353.363 56.0233 355.979C56.6487 359.709 57.6066 363.376 58.8855 366.935C58.8968 366.977 58.9149 367.017 58.9391 367.053C58.1994 366.088 56.0554 363.462 55.8732 363.279C53.2254 360.696 46.6326 357.223 43.0092 359.109C42.4168 359.444 41.902 359.901 41.4985 360.449C41.0951 360.997 40.8122 361.624 40.6684 362.289C40.5247 362.955 40.5233 363.643 40.6643 364.308C40.8054 364.974 41.0858 365.603 41.487 366.152C43.1164 368.586 46.5575 369.593 49.2911 369.776C52.3785 370.001 58.6175 367.632 59.1106 367.471C60.4984 371.066 62.1243 374.565 63.9775 377.944C65.0495 379.928 66.1751 381.889 67.3436 383.84C66.679 383.026 66.0786 382.297 65.9822 382.211C63.345 379.617 56.7415 376.143 53.1182 378.03C52.5241 378.365 52.0079 378.822 51.6034 379.371C51.1989 379.92 50.9154 380.548 50.7715 381.215C50.6277 381.881 50.6268 382.571 50.7689 383.238C50.911 383.905 51.1929 384.534 51.5959 385.084C53.2146 387.517 56.6665 388.514 59.4001 388.707C62.1337 388.9 67.5366 386.992 68.9623 386.456C69.4233 387.196 69.8628 387.946 70.3237 388.686C72.4678 392.245 74.7189 395.793 76.7557 399.331C77.474 400.585 78.1493 401.839 78.814 403.093C78.2244 402.364 77.742 401.764 77.6455 401.678C74.9977 399.095 68.3942 395.622 64.7815 397.508C64.1882 397.842 63.6724 398.298 63.2679 398.846C62.8634 399.394 62.5794 400.021 62.4346 400.686C62.2899 401.351 62.2875 402.04 62.4278 402.706C62.5681 403.372 62.8478 404.001 63.2486 404.551C64.8673 406.985 68.3191 407.992 71.0527 408.185C73.7863 408.378 78.6961 406.663 80.4006 406.063Z" fill="#BABABA"/>
<path d="M116.485 328.986C112.401 326.638 109.174 329.651 110.782 334.55C112.154 338.741 117.01 342.89 118.382 343.983L118.886 343.083C119.229 339.824 119.819 330.894 116.485 328.986Z" fill="#BABABA"/>
<path d="M363.743 499.08C359.219 499.198 354.834 506.048 353.752 509.95C353.698 510.154 353.344 512.287 353.108 513.906C355.252 514.099 357.396 514.249 359.54 514.356C361.004 514.004 362.412 513.449 363.721 512.705C366.24 511.065 368.974 508.267 369.167 505.062C369.24 504.305 369.154 503.542 368.915 502.82C368.676 502.098 368.289 501.435 367.778 500.871C367.267 500.308 366.644 499.858 365.949 499.55C365.255 499.241 364.503 499.081 363.743 499.08Z" fill="#BABABA"/>
<path d="M324.699 438.448C319.49 438.448 318.074 443.122 322.33 446.917C325.922 450.133 332.75 451.409 334.744 451.73L334.841 450.658C333.393 447.389 328.977 438.384 324.699 438.448Z" fill="#BABABA"/>
<path d="M408.594 498.308C409.065 497.718 409.409 497.035 409.601 496.304C409.794 495.573 409.832 494.809 409.713 494.063C409.594 493.316 409.32 492.603 408.91 491.968C408.499 491.333 407.961 490.791 407.329 490.376C403.459 487.964 395.998 491.19 392.953 493.806C392.718 493.999 389.888 497.076 389.201 497.89C389.727 494.846 390.274 491.834 390.96 488.875C391.836 484.874 392.975 480.935 394.369 477.083C394.637 477.212 401.605 480.524 405.089 480.578C408.112 480.578 411.949 479.817 413.868 477.287C414.34 476.696 414.683 476.013 414.875 475.282C415.068 474.551 415.106 473.787 414.987 473.041C414.868 472.294 414.594 471.581 414.184 470.946C413.774 470.311 413.235 469.769 412.603 469.354C408.733 466.942 401.272 470.168 398.228 472.784C397.981 472.988 394.937 476.29 394.422 476.933C394.508 476.708 394.562 476.472 394.647 476.247C396.151 472.445 397.991 468.786 400.147 465.312C401.304 463.383 402.526 461.603 403.759 459.952C404.992 460.703 410.695 464.069 413.825 464.455C416.956 464.841 420.74 464.455 422.927 462.161C423.46 461.626 423.876 460.986 424.147 460.281C424.418 459.577 424.539 458.823 424.501 458.069C424.464 457.315 424.269 456.577 423.93 455.902C423.59 455.228 423.113 454.632 422.53 454.153C418.939 451.323 411.167 453.713 407.844 455.964C407.661 456.093 405.968 457.551 404.745 458.623C405.303 457.862 405.882 457.069 406.429 456.35C408.519 453.649 410.588 451.312 412.442 449.254C413.514 448.096 414.49 447.11 415.423 446.113C417.009 446.22 423.42 446.563 426.303 445.48C429.187 444.398 432.392 442.264 433.261 439.209C433.488 438.487 433.563 437.725 433.481 436.973C433.399 436.22 433.162 435.493 432.784 434.837C432.406 434.181 431.896 433.61 431.286 433.161C430.676 432.713 429.98 432.396 429.241 432.23C424.792 431.362 419.035 437.097 417.138 440.656C416.977 440.967 414.994 446.081 415.058 446.091H415.155C414.243 446.981 413.268 447.957 412.228 449.039C410.331 451.065 408.197 453.327 406.043 456.029L405.303 456.951C405.089 457.755 404.949 458.226 404.949 458.226C404.949 458.226 404.81 458.087 404.595 457.84C402.891 459.984 401.154 462.364 399.514 464.948C397.257 468.419 395.316 472.085 393.715 475.904C393.715 475.904 393.715 476 393.715 476.043C393.833 474.714 394.025 470.994 394.004 470.683C393.768 466.62 390.917 458.891 386.5 457.69C385.771 457.512 385.013 457.491 384.275 457.628C383.538 457.766 382.838 458.059 382.222 458.488C381.607 458.917 381.09 459.472 380.705 460.116C380.321 460.761 380.078 461.48 379.993 462.225C379.521 465.441 381.601 468.775 383.713 470.983C386.093 473.47 392.975 476.257 393.522 476.483C391.983 480.416 390.711 484.449 389.716 488.553C389.126 490.933 388.644 493.367 388.097 495.8C388.162 494.653 388.205 493.656 388.194 493.484C387.947 489.422 385.106 481.692 380.69 480.492C379.962 480.31 379.203 480.286 378.465 480.421C377.726 480.557 377.026 480.848 376.409 481.277C375.793 481.705 375.276 482.26 374.892 482.905C374.508 483.55 374.266 484.27 374.183 485.016C373.711 488.232 375.791 491.576 377.903 493.785C380.014 495.993 385.868 498.512 387.411 499.145L386.865 501.953C386.136 505.802 385.417 509.64 384.624 513.424L386.554 513.156C387.218 509.543 387.829 505.898 388.43 502.253C388.655 500.871 388.901 499.498 389.148 498.116C389.705 498.384 396.405 501.525 399.804 501.578C402.837 501.632 406.675 500.838 408.594 498.308Z" fill="#BABABA"/>
<path d="M405.143 441.139C401.091 437.869 397.06 440.592 397.95 446.209C398.722 451.033 403.31 456.393 404.596 457.83L405.304 456.94C406.29 453.456 408.434 443.808 405.143 441.139Z" fill="#BABABA"/>
<path d="M335.537 448.911C335.773 445.491 336.201 442.361 336.609 439.606C336.845 438.041 337.091 436.626 337.338 435.318C338.71 434.524 344.188 431.255 345.967 428.746C347.747 426.238 349.248 422.679 348.283 419.602C348.083 418.873 347.734 418.194 347.258 417.608C346.781 417.021 346.187 416.541 345.514 416.197C344.841 415.853 344.104 415.653 343.35 415.61C342.595 415.567 341.84 415.681 341.133 415.947C336.973 417.694 335.376 425.713 335.773 429.765C335.773 430.119 336.963 435.532 337.038 435.5L337.123 435.446C336.855 436.711 336.587 438.073 336.33 439.563C335.858 442.318 335.365 445.437 335.054 448.879C335.001 449.447 334.947 450.047 334.904 450.637C335.215 451.344 335.397 451.784 335.397 451.784C335.376 450.819 335.419 449.833 335.537 448.911Z" fill="#BABABA"/>
<path d="M336.824 506.874C335.924 507.177 335.128 507.73 334.53 508.468C333.932 509.207 333.556 510.1 333.447 511.044C338.99 512.116 344.532 513.006 350.063 513.595C347.598 510.272 341.069 505.459 336.824 506.874Z" fill="#BABABA"/>
<path d="M375.759 504.912C375.031 504.73 374.272 504.706 373.534 504.841C372.796 504.977 372.095 505.268 371.479 505.697C370.862 506.125 370.345 506.681 369.961 507.325C369.577 507.97 369.335 508.69 369.252 509.436C369.072 511.196 369.447 512.969 370.324 514.506C374.376 514.421 378.4 514.153 382.395 513.702C381.205 509.929 378.878 505.78 375.759 504.912Z" fill="#BABABA"/>
<path d="M351.306 510.272C349.58 506.048 347.693 501.814 345.838 497.59C345.27 496.304 344.713 495.007 344.155 493.71C344.766 493.624 352.024 492.563 354.875 490.708C357.395 489.068 360.128 486.27 360.321 483.065C360.392 482.314 360.307 481.557 360.071 480.841C359.835 480.125 359.453 479.466 358.95 478.905C358.446 478.344 357.832 477.893 357.145 477.581C356.459 477.27 355.715 477.104 354.961 477.094C350.437 477.201 346.053 484.062 344.97 487.953C344.884 488.253 344.22 492.413 344.112 493.474C342.88 490.622 341.679 487.771 340.618 484.898C339.153 481.05 337.939 477.111 336.984 473.106C337.262 473.106 344.841 472.034 347.704 470.104C350.212 468.464 352.957 465.655 353.149 462.461C353.221 461.71 353.135 460.952 352.899 460.236C352.663 459.519 352.282 458.859 351.778 458.297C351.275 457.735 350.661 457.284 349.974 456.971C349.288 456.658 348.544 456.491 347.789 456.479C343.266 456.597 338.881 463.447 337.798 467.349C337.713 467.649 337.005 472.13 336.941 472.945C336.887 472.72 336.801 472.484 336.748 472.248C335.904 468.211 335.416 464.107 335.29 459.985C335.183 457.712 335.215 455.536 335.29 453.424C336.716 453.37 343.266 453.038 346.074 451.634C348.883 450.229 351.788 447.807 352.324 444.655C352.476 443.913 352.473 443.148 352.314 442.408C352.155 441.667 351.843 440.968 351.4 440.354C350.957 439.741 350.39 439.226 349.738 438.842C349.085 438.459 348.359 438.215 347.607 438.126C343.094 437.73 337.959 444.055 336.469 447.774C336.394 447.978 335.794 450.154 335.397 451.741L334.808 451.655C334.615 454.281 334.497 457.015 334.561 459.974C334.597 464.15 335.002 468.315 335.772 472.42V472.559C335.14 471.38 333.253 468.142 333.082 467.907C330.648 464.626 324.055 459.684 319.778 461.11C319.075 461.377 318.437 461.788 317.903 462.317C317.37 462.846 316.954 463.482 316.682 464.182C316.41 464.883 316.288 465.633 316.325 466.383C316.361 467.134 316.555 467.868 316.894 468.539C318.234 471.466 321.826 473.17 324.774 473.899C328.097 474.671 335.311 473.202 335.89 473.084C336.778 477.247 337.938 481.348 339.364 485.359C340.189 487.706 341.089 490.043 342.011 492.37C341.432 491.373 340.939 490.472 340.821 490.365C338.388 487.074 331.795 482.143 327.518 483.569C326.817 483.835 326.179 484.246 325.647 484.775C325.114 485.303 324.699 485.937 324.427 486.637C324.155 487.336 324.033 488.084 324.069 488.834C324.105 489.583 324.297 490.317 324.634 490.987C325.974 493.924 329.555 495.618 332.513 496.347C335.472 497.076 341.679 495.918 343.308 495.596C343.673 496.486 344.027 497.376 344.38 498.266C346.149 502.554 347.94 506.788 349.558 511.012C349.901 511.912 350.223 512.813 350.545 513.703L352.689 513.917C352.249 512.673 351.799 511.473 351.306 510.272Z" fill="#BABABA"/>
<path d="M359.388 144.859C360.295 145.361 361.131 145.981 361.875 146.703M348.55 173.257L349.257 177.491L353.974 177.909L355.389 173.9C356.936 173.761 358.459 173.43 359.924 172.914L362.904 175.937L366.999 173.568L365.873 169.494C367.059 168.485 368.114 167.333 369.014 166.064L373.173 166.835L375.178 162.547L371.908 159.857C372.296 158.351 372.494 156.802 372.498 155.247L376.379 153.489L375.553 148.826L371.265 148.493C370.721 147.059 370.001 145.698 369.121 144.441L371.33 140.711L367.985 137.366L364.233 139.596C362.07 138.136 359.628 137.139 357.061 136.669L355.989 132.381H351.251L350.179 136.669C348.7 136.943 347.26 137.396 345.891 138.02L342.514 135.093L338.634 137.806L340.231 141.986C339.188 143.049 338.278 144.233 337.519 145.513L333.059 145.052L331.44 149.501L335.128 151.999C334.955 153.037 334.869 154.088 334.871 155.14C334.871 155.59 334.871 156.03 334.871 156.469L331.001 158.613L332.223 163.18L336.608 163.126C337.259 164.492 338.069 165.776 339.02 166.953L337.122 170.898L340.745 173.932L344.326 171.52L348.55 173.257ZM363.986 149.415C365.255 151.673 365.746 154.285 365.382 156.849C365.019 159.413 363.821 161.786 361.975 163.601C360.129 165.417 357.736 166.574 355.166 166.895C352.597 167.215 349.993 166.681 347.757 165.375C345.522 164.068 343.778 162.062 342.796 159.666C341.814 157.27 341.648 154.617 342.323 152.117C342.999 149.617 344.478 147.409 346.534 145.834C348.589 144.259 351.106 143.404 353.695 143.401C354.262 143.4 354.829 143.443 355.389 143.53L363.986 149.415Z" stroke="black" stroke-miterlimit="10"/>
<path d="M370.6 386.274C371.508 386.775 372.344 387.395 373.088 388.118M359.72 414.714L360.427 418.948L365.144 419.366L366.559 415.357C368.106 415.218 369.629 414.887 371.094 414.371L374.074 417.394L378.169 415.025L377.097 410.951C378.282 409.943 379.337 408.79 380.238 407.521L384.397 408.293L386.402 404.005L383.186 401.314C383.574 399.808 383.772 398.259 383.775 396.704L387.656 394.946L386.831 390.283L382.543 389.951C382.003 388.515 381.282 387.153 380.399 385.899L382.607 382.168L379.262 378.823L375.51 381.053C373.347 379.593 370.906 378.596 368.339 378.127L367.267 373.839H362.528L361.456 378.127C359.977 378.4 358.537 378.854 357.168 379.477L353.759 376.583L349.879 379.295L351.476 383.476C350.433 384.538 349.523 385.722 348.764 387.003L344.304 386.542L342.686 390.991L346.373 393.488C346.2 394.526 346.114 395.577 346.116 396.629C346.116 397.079 346.116 397.519 346.116 397.959L342.246 400.103L343.468 404.669L347.853 404.616C348.504 405.981 349.314 407.266 350.265 408.443L348.399 412.409L352.023 415.443L355.539 412.934L359.72 414.714ZM375.199 390.83C376.468 393.087 376.959 395.699 376.595 398.263C376.232 400.827 375.034 403.2 373.188 405.016C371.342 406.831 368.949 407.989 366.379 408.309C363.81 408.63 361.206 408.095 358.97 406.789C356.735 405.482 354.991 403.476 354.009 401.08C353.027 398.684 352.861 396.031 353.536 393.532C354.212 391.032 355.691 388.824 357.747 387.249C359.802 385.673 362.319 384.818 364.908 384.816C365.475 384.815 366.042 384.858 366.602 384.944L375.199 390.83Z" stroke="black" stroke-miterlimit="10"/>
<path d="M406.695 143.584C405.172 145.977 402.836 147.741 400.117 148.552C397.398 149.363 394.478 149.167 391.892 147.999C389.307 146.83 387.229 144.769 386.04 142.193C384.851 139.616 384.631 136.698 385.42 133.973C386.21 131.247 387.955 128.898 390.336 127.355C392.718 125.813 395.576 125.18 398.385 125.575C401.195 125.969 403.769 127.363 405.634 129.501C407.499 131.64 408.53 134.379 408.539 137.216C408.539 137.502 408.539 137.791 408.539 138.084M382.704 122.465L383.326 124.095C383.015 124.406 382.715 124.738 382.425 125.07L382.704 122.465ZM380.849 127.214C380.763 127.343 380.688 127.472 380.613 127.6L376.154 127.15L374.535 131.588L378.223 134.086C378.047 135.124 377.957 136.174 377.955 137.227C377.955 137.677 377.955 138.116 377.955 138.556L374.074 140.7L375.307 145.267H379.691C380.337 146.639 381.147 147.928 382.103 149.104L380.206 153.039L383.829 156.083L387.346 153.564C388.675 154.33 390.094 154.931 391.569 155.354L392.277 159.589L396.983 159.996L398.409 155.987C399.955 155.851 401.478 155.524 402.943 155.011L405.913 158.024L410.008 155.665L408.936 151.592C410.119 150.58 411.173 149.428 412.077 148.161L416.236 148.922L418.241 144.634L414.971 141.933C415.354 140.429 415.552 138.885 415.561 137.334L419.441 135.565L418.616 130.913L414.328 130.58C413.781 129.144 413.061 127.779 412.184 126.517L414.392 122.798L411.047 119.453L407.295 121.683C405.137 120.214 402.694 119.216 400.124 118.756L399.052 114.468H394.324L393.252 118.756C391.774 119.035 390.335 119.488 388.964 120.107L385.577 117.18L381.707 119.892L382.2 121.179L380.849 127.214ZM408.303 139.66C408.143 140.437 407.903 141.195 407.585 141.922L408.303 139.66Z" stroke="black" stroke-miterlimit="10"/>
<path d="M128.136 224.166C133.536 224.415 138.657 226.639 142.525 230.416C146.393 234.193 148.739 239.259 149.117 244.652C149.495 250.045 147.878 255.389 144.575 259.669C141.271 263.948 136.51 266.864 131.198 267.864C125.885 268.864 120.39 267.877 115.756 265.091C111.123 262.305 107.675 257.915 106.067 252.753C104.459 247.592 104.803 242.019 107.033 237.095C109.264 232.17 113.226 228.237 118.166 226.042M99.9424 268.311L96.3941 275.675L103.169 281.357L109.73 276.651C112.218 278.09 114.876 279.213 117.641 279.996L118.949 287.907L127.761 288.679L130.409 281.175C133.301 280.917 136.15 280.297 138.888 279.331L144.441 284.98L152.095 280.564L149.951 272.953C152.17 271.058 154.146 268.898 155.837 266.521L163.609 267.946L167.35 259.939L161.25 254.9C161.961 252.097 162.321 249.216 162.322 246.324L169.569 243.022L168.036 234.318L160.039 233.696C159.017 231.018 157.674 228.473 156.04 226.117L160.157 219.149L153.907 212.899L146.885 217.069C142.852 214.326 138.287 212.463 133.485 211.602L131.459 203.584H122.615L120.578 211.645C117.839 212.169 115.173 213.018 112.635 214.175L106.31 208.708L99.0741 213.778L102.054 221.593C100.11 223.579 98.4081 225.789 96.9837 228.175L88.6543 227.318L85.6312 235.626L92.5242 240.3C92.1967 242.241 92.0317 244.206 92.0311 246.174C92.0311 247.01 92.0632 247.836 92.1276 248.65L84.8701 252.703L87.1642 261.279L95.365 261.182C96.2716 263.114 97.3478 264.961 98.581 266.703L99.9424 268.311ZM119.742 225.409C120.705 225.072 121.69 224.799 122.69 224.595L119.742 225.409Z" stroke="black" stroke-miterlimit="10"/>
<path d="M213.201 244.512L204.432 238.852" stroke="#263238" stroke-width="3" stroke-linecap="round" stroke-linejoin="round"/>
<path d="M228.433 227.489L226.16 225.592" stroke="#263238" stroke-width="3" stroke-linecap="round" stroke-linejoin="round"/>
<path d="M202.834 277.401L184.685 272.856" stroke="#263238" stroke-width="3" stroke-linecap="round" stroke-linejoin="round"/>
<path d="M300.922 388.954C300.788 388.952 300.655 388.934 300.525 388.9C300.107 388.791 299.749 388.521 299.528 388.15C298.971 387.174 298.671 386.649 303.194 381.46C293.439 387.431 292.399 387.185 291.831 387.046C291.386 386.914 291.005 386.624 290.759 386.231C289.859 384.676 289.687 384.366 307.74 369.593C304.845 371.469 301.833 373.485 299.164 375.264C283.277 385.866 278.335 388.879 276.148 388.375C275.883 388.315 275.633 388.201 275.414 388.04C275.194 387.88 275.01 387.676 274.872 387.442C273.907 385.77 273.907 385.77 295.24 370.355L299.464 367.31C296.998 368.95 294.543 370.623 292.292 372.156C275.505 383.572 267.861 388.503 264.999 387.86C264.7 387.793 264.42 387.663 264.175 387.478C263.931 387.293 263.73 387.058 263.584 386.788C262.512 384.977 262.298 384.569 293.321 363.494L252.521 387.078C252.158 387.28 251.729 387.332 251.328 387.221C250.927 387.111 250.586 386.848 250.377 386.488C249.659 385.245 250.216 383.722 253.164 381.128C248.469 383.83 245.746 384.912 244.406 384.601C244.127 384.537 243.864 384.418 243.632 384.25C243.4 384.083 243.204 383.87 243.055 383.626C242.165 382.082 242.509 380.656 253.861 373.024C242.155 380.346 237.835 382.5 236.152 382.104C235.901 382.045 235.666 381.936 235.459 381.783C235.253 381.63 235.08 381.436 234.951 381.214C234.168 379.874 234.897 379.391 237.588 377.612L243.516 373.742L252.585 367.878C242.594 373.067 241.093 372.713 240.257 372.509C239.976 372.445 239.71 372.325 239.476 372.155C239.242 371.986 239.045 371.771 238.896 371.523C238.698 371.16 238.648 370.734 238.756 370.335C238.864 369.936 239.121 369.593 239.475 369.379C270.938 350.726 319.51 320.807 331.217 310.912C319.542 316.219 284.638 337.894 264.753 350.276C239.142 366.195 239.025 366.163 237.953 365.884C237.731 365.835 237.522 365.741 237.338 365.608C237.153 365.475 236.998 365.307 236.881 365.112C236.012 363.612 236.055 362.647 246.303 356.301C241.587 358.52 238.478 359.517 237.106 359.195C236.805 359.125 236.523 358.993 236.276 358.809C236.028 358.624 235.822 358.391 235.669 358.123C235.464 357.767 235.404 357.345 235.502 356.946C235.6 356.546 235.848 356.2 236.194 355.979C267.947 335.75 312.617 307.107 330.841 295.004C325.771 297.587 318.964 301.436 311.395 305.97C305.274 309.904 298.017 314.482 289.43 319.82C278.088 326.885 266.618 333.885 257.066 339.674C233.997 354.232 233.718 354.167 232.593 353.889C232.371 353.835 232.162 353.739 231.978 353.605C231.794 353.47 231.639 353.301 231.521 353.106C231.323 352.743 231.273 352.317 231.38 351.918C231.488 351.519 231.746 351.176 232.099 350.962C239.046 346.835 246.711 342.236 254.665 337.412L258.846 334.775C242.187 344.305 232.978 348.475 230.266 347.81C229.953 347.749 229.656 347.622 229.395 347.437C229.135 347.252 228.916 347.014 228.755 346.738C227.758 345.023 229.173 342.836 240.922 335.161C233.343 339.781 230.341 341.153 229.066 340.842C228.822 340.788 228.593 340.683 228.392 340.536C228.191 340.388 228.022 340.2 227.897 339.985C227.222 338.816 226.675 337.841 234.522 332.148C230.298 334.292 227.629 335.161 226.353 334.85C226.064 334.787 225.791 334.665 225.551 334.492C225.311 334.318 225.11 334.097 224.96 333.842C224.852 333.658 224.782 333.454 224.755 333.242C224.727 333.03 224.742 332.815 224.799 332.609C224.912 332.199 225.181 331.848 225.549 331.634C260.336 311.855 313.014 280.532 329.051 267.893C311.46 277.605 262.962 306.077 229.119 326.145C228.936 326.253 228.734 326.324 228.524 326.353C228.314 326.382 228.1 326.369 227.895 326.316C227.689 326.262 227.497 326.168 227.328 326.039C227.159 325.911 227.017 325.75 226.911 325.566C226.746 325.272 226.644 324.947 226.609 324.612C226.574 324.276 226.607 323.937 226.707 323.615C227.304 322.256 228.207 321.053 229.344 320.099C226.847 321.118 225.174 321.493 224.22 321.257C223.924 321.185 223.645 321.052 223.401 320.868C223.158 320.683 222.955 320.451 222.805 320.185C221.84 318.523 223.684 317.237 226.471 315.297C228.615 313.849 231.649 311.845 235.894 309.186C243.816 304.234 254.686 297.673 266.2 290.737C279.139 282.933 294.511 273.66 306.721 265.985C280.597 280.993 239.453 305.027 219.696 316.583C219.322 316.795 218.88 316.853 218.464 316.744C218.259 316.69 218.068 316.596 217.9 316.467C217.733 316.338 217.592 316.177 217.488 315.993C216.663 314.557 216.416 314.139 230.62 305.198C225.056 308.254 221.54 309.572 219.75 309.154C219.412 309.084 219.092 308.943 218.812 308.742C218.531 308.541 218.296 308.283 218.121 307.986C217.049 306.142 217.049 306.142 242.841 291.166C254.772 284.241 269.008 275.965 282.108 268.011C293.107 260.7 301.715 255.147 308.244 251.287C311.668 249.01 314.918 246.48 317.967 243.719C304.577 249.733 251.706 281.7 218.271 302.497C217.91 302.724 217.473 302.799 217.057 302.705C216.641 302.61 216.279 302.354 216.052 301.993C215.824 301.632 215.749 301.195 215.844 300.779C215.938 300.363 216.194 300.002 216.555 299.774L226.932 293.171C218.356 297.576 215.14 298.316 213.822 297.984C213.523 297.914 213.241 297.783 212.996 297.598C212.75 297.414 212.546 297.18 212.396 296.912C212.188 296.556 212.127 296.134 212.225 295.733C212.323 295.333 212.573 294.987 212.921 294.768L235.766 280.124C217.091 290.673 215.58 290.298 214.658 290.062C214.413 290.005 214.182 289.898 213.979 289.749C213.776 289.6 213.606 289.411 213.479 289.193C213.278 288.834 213.223 288.411 213.325 288.012C213.426 287.614 213.677 287.269 214.025 287.049C238.103 272.159 272.31 250.601 292.282 237.083C276.148 246.378 252.618 260.185 236.066 269.919L217.617 280.639C213.522 283.029 211.538 284.198 210.477 284.734L210.198 284.905C209.459 285.259 209.277 285.206 208.966 285.12C208.663 285.039 208.391 284.872 208.182 284.638C207.973 284.405 207.837 284.116 207.79 283.806C207.744 283.496 207.789 283.18 207.919 282.895C208.05 282.611 208.261 282.37 208.526 282.204C234.061 266.413 271.774 242.615 288.669 230.909C279.675 236.119 266.243 244.684 255.437 251.598C225.142 270.894 215.934 276.447 213.264 275.783C213.011 275.722 212.772 275.612 212.562 275.457C212.352 275.302 212.175 275.107 212.042 274.882C211.378 273.714 210.895 272.888 220.961 265.631C218.217 266.842 216.362 267.303 215.28 267.046C214.974 266.976 214.685 266.845 214.43 266.661C214.176 266.477 213.962 266.243 213.8 265.974C213.601 265.615 213.546 265.194 213.646 264.796C213.745 264.398 213.992 264.053 214.336 263.83C234.115 251.384 264.174 231.874 274.508 223.801C265.46 228.229 245.714 240.953 234.093 248.393C215.108 260.496 214.401 260.796 213.189 260.496C212.967 260.444 212.758 260.349 212.573 260.214C212.389 260.08 212.234 259.909 212.117 259.713C211.26 258.245 210.509 256.937 229.098 244.159C226.804 245.617 224.456 247.128 222.055 248.672C221.856 248.833 221.624 248.946 221.375 249.004C221.126 249.061 220.867 249.061 220.618 249.004C220.407 248.954 220.208 248.86 220.035 248.729C219.861 248.598 219.717 248.433 219.611 248.243C218.464 246.26 220.114 244.555 233.161 234.554C232.921 234.503 232.696 234.402 232.498 234.258C232.3 234.114 232.135 233.93 232.014 233.717C231.815 233.348 231.767 232.915 231.881 232.511C231.995 232.107 232.262 231.763 232.625 231.552C232.926 231.387 233.269 231.316 233.611 231.348C235.307 230.364 236.949 229.29 238.531 228.132C243.763 224.455 245.242 223.576 246.518 223.844C246.767 223.899 247.002 224.004 247.209 224.153C247.415 224.303 247.589 224.493 247.718 224.713C248.64 226.321 247.922 227.285 239.142 234.082C241.587 232.57 244.106 231.005 246.646 229.462C271.431 214.303 273.35 214.754 274.518 215.032C274.776 215.088 275.018 215.196 275.231 215.352C275.443 215.507 275.62 215.705 275.751 215.933C275.953 216.291 276.01 216.713 275.91 217.112C275.81 217.51 275.562 217.856 275.215 218.077C263.123 225.581 250.559 233.707 240.021 240.728C264.485 225.109 276.244 218.216 279.557 219.052C279.844 219.116 280.115 219.239 280.353 219.412C280.591 219.586 280.791 219.806 280.94 220.06C281.958 221.829 282.698 223.115 248.855 245.391L243.988 248.607C250.806 244.319 257.71 239.817 263.284 236.172C284.992 222.086 288.508 220.017 290.148 220.403C290.373 220.462 290.584 220.565 290.768 220.707C290.952 220.849 291.106 221.026 291.22 221.229C291.425 221.585 291.485 222.007 291.388 222.406C291.29 222.805 291.042 223.152 290.695 223.373C269.705 236.751 239.046 256.723 223.888 267.453C232.035 262.651 243.581 255.286 253.636 248.875C285.506 228.507 295.905 222.343 298.842 223.051C299.105 223.114 299.352 223.229 299.569 223.389C299.787 223.549 299.969 223.751 300.107 223.984C300.89 225.345 301.458 226.31 282.816 238.756C308.94 223.598 309.444 223.748 310.27 223.941C310.48 223.995 310.677 224.09 310.85 224.22C311.023 224.351 311.168 224.515 311.277 224.702C312.349 226.556 313.11 227.918 263.82 259.413C260.239 261.707 256.648 263.991 253.1 266.22C272.61 254.686 295.862 240.492 313.475 229.494C313.659 229.381 313.864 229.306 314.077 229.273C314.291 229.24 314.509 229.249 314.718 229.301C315.14 229.408 315.502 229.678 315.726 230.051C316.487 231.38 315.362 232.195 314.172 233.01C313.443 233.514 312.371 234.243 310.956 235.154C308.362 236.88 304.524 239.442 299.571 242.658C291.231 248.093 279.578 255.629 264.935 265.063C250.827 274.143 236.613 283.287 226.868 289.515C239.743 282.708 264.785 268 313.025 237.18C319.971 232.753 319.971 232.753 320.679 232.892C320.891 232.944 321.09 233.038 321.265 233.169C321.44 233.3 321.587 233.464 321.697 233.653C322.094 234.339 322.319 234.725 321.033 235.872C319.317 237.373 315.051 240.16 305.317 246.485C319.103 238.927 320.389 239.238 321.226 239.453C321.469 239.507 321.698 239.612 321.899 239.759C322.1 239.907 322.269 240.095 322.394 240.31C322.973 241.318 323.112 242.529 320.968 244.931C321.814 244.667 322.709 244.601 323.584 244.738C323.934 244.81 324.264 244.956 324.554 245.165C324.844 245.373 325.087 245.64 325.267 245.949C326.339 247.793 326.875 248.736 295.026 268.825C328.751 249.294 329.083 249.379 329.887 249.594C330.094 249.646 330.287 249.74 330.457 249.869C330.626 249.998 330.768 250.159 330.874 250.344C331.946 252.124 330.016 253.914 325.406 257.28C322.437 259.424 318.245 262.254 312.628 265.856C331.356 254.16 336.051 251.738 337.724 252.145C337.96 252.203 338.183 252.307 338.378 252.453C338.573 252.598 338.737 252.782 338.86 252.992C338.967 253.174 339.037 253.377 339.065 253.587C339.092 253.797 339.077 254.01 339.021 254.214C338.966 254.421 338.871 254.615 338.74 254.784C338.61 254.954 338.446 255.095 338.26 255.2C327.325 261.396 316.209 267.807 305.467 274.132L294.34 281.164C272.46 295.014 256.498 304.973 245.296 311.491C241.747 313.924 238.714 316.09 236.28 317.923C246.25 312.027 263.23 302.004 280.232 292.088C333.832 260.721 334.647 260.946 335.665 261.214C335.875 261.268 336.072 261.363 336.245 261.494C336.418 261.625 336.564 261.788 336.673 261.975C336.828 262.25 336.926 262.553 336.961 262.866C336.996 263.179 336.967 263.496 336.877 263.798C336.561 264.836 335.954 265.762 335.129 266.467C338.806 264.634 341.111 263.883 342.247 264.151C342.524 264.215 342.784 264.334 343.013 264.502C343.241 264.67 343.433 264.882 343.577 265.127C344.434 266.606 343.234 267.41 340.586 269.168C338.989 270.24 336.63 271.731 333.361 273.767L332.728 274.164C337.724 271.773 341.229 270.648 342.987 271.077C343.346 271.151 343.686 271.299 343.985 271.511C344.284 271.723 344.535 271.995 344.724 272.309C346.203 274.871 344.724 276.501 292.421 307.439C270.456 320.528 241.437 337.68 233.525 344.112C237.888 342.579 248.758 337.326 275.773 320.978C297.792 307.653 322.04 292.099 333.661 284.627C341.733 279.449 341.722 279.46 342.44 279.631C342.867 279.74 343.234 280.014 343.459 280.392C344.113 281.529 344.777 282.676 335.955 289.247C337.201 288.684 338.569 288.448 339.932 288.561C340.232 288.632 340.514 288.763 340.761 288.948C341.009 289.132 341.215 289.365 341.368 289.633C342.312 291.273 342.312 291.273 324.967 302.636C316.391 308.232 304.492 315.961 289.484 325.609C275.012 334.914 260.422 344.251 250.431 350.63C270.67 339.781 308.597 315.725 325.471 305.027C340.479 295.54 340.479 295.54 341.293 295.743C341.503 295.797 341.7 295.892 341.873 296.023C342.046 296.154 342.192 296.317 342.301 296.504C343.448 298.498 341.626 301.328 334.572 306.571C334.778 306.541 334.987 306.541 335.194 306.571C335.456 306.633 335.704 306.748 335.921 306.908C336.138 307.069 336.321 307.271 336.459 307.503C337.584 309.454 338.86 311.663 291.285 341.453C304.963 333.027 319.157 324.066 330.616 316.637C330.8 316.517 331.005 316.436 331.221 316.399C331.437 316.362 331.658 316.369 331.87 316.42C332.083 316.472 332.283 316.566 332.458 316.697C332.633 316.828 332.78 316.994 332.889 317.183C333.671 318.555 332.589 319.327 330.745 320.614C329.673 321.375 328.054 322.49 325.932 323.905C323.809 325.32 321.172 327.121 317.988 329.179C322.426 326.928 325.17 326.017 326.564 326.36C326.867 326.428 327.152 326.558 327.401 326.743C327.65 326.928 327.858 327.162 328.011 327.432C328.912 328.986 328.708 329.576 317.859 336.587C320.143 335.611 321.762 335.257 322.801 335.515C323.124 335.584 323.429 335.72 323.697 335.914C323.965 336.107 324.189 336.355 324.356 336.64C325.621 338.784 324.667 339.792 295.615 357.383C287.297 362.422 276.823 368.757 268.344 374.224L325.385 341.303C325.567 341.195 325.769 341.125 325.979 341.098C326.19 341.07 326.403 341.085 326.607 341.143C327.016 341.252 327.367 341.517 327.582 341.882C328.376 343.265 327.25 344.091 325.385 345.463C324.259 346.288 322.608 347.457 320.336 349.022C316.101 351.959 310.216 355.936 303.988 360.16C296.73 365.07 287.597 371.255 280.114 376.454C283.555 374.182 287.136 371.748 290.32 369.583C306.904 358.305 313.904 353.792 316.637 354.392C316.924 354.455 317.194 354.576 317.432 354.748C317.67 354.919 317.87 355.137 318.02 355.389C318.953 357.019 318.996 357.094 299.978 370.869C313.775 361.693 318.288 359.077 320.346 359.538C320.611 359.598 320.861 359.712 321.081 359.873C321.3 360.033 321.484 360.237 321.622 360.471C322.373 361.779 322.373 361.779 312.778 369.615C309.884 371.973 305.864 375.254 302.24 378.287C305.178 376.476 308.415 374.417 311.492 372.424C311.675 372.304 311.881 372.223 312.097 372.186C312.312 372.149 312.533 372.156 312.746 372.207C312.959 372.258 313.159 372.352 313.334 372.484C313.509 372.615 313.655 372.78 313.764 372.97C314.365 374.042 314.14 374.257 311.942 376.615C310.152 378.534 308.619 380.217 307.322 381.653C317.055 375.854 317.409 375.95 318.095 376.122C318.304 376.176 318.499 376.271 318.67 376.402C318.842 376.533 318.985 376.696 319.092 376.883C319.199 377.066 319.269 377.268 319.297 377.478C319.326 377.687 319.312 377.901 319.257 378.105C319.202 378.31 319.107 378.501 318.978 378.669C318.848 378.836 318.687 378.976 318.503 379.081C318.347 379.174 318.177 379.24 317.999 379.274C316.573 379.917 308.651 384.58 301.672 388.804C301.437 388.911 301.18 388.962 300.922 388.954ZM316.391 378.416C316.561 378.704 316.815 378.932 317.12 379.07C316.818 378.928 316.565 378.701 316.391 378.416ZM276.813 362.047C267.55 367.825 258.438 373.613 252.5 377.741C258.964 373.892 268.354 367.696 276.813 362.047ZM316.68 333.499C306.164 339.331 289.151 350.287 276.223 358.638C280.983 355.668 286.407 352.313 292.571 348.518C301.061 343.297 310.205 337.68 316.68 333.499ZM315.994 341.003C310.28 344.048 301.608 349.579 293.15 355.1L294.04 354.564C301.94 349.761 310.516 344.562 315.994 340.982V341.003ZM263.284 316.926C256.209 321.353 249.777 325.523 244.417 329.104C249.97 325.556 256.552 321.3 263.284 316.926ZM339.6 274.764C336.491 275.836 329.898 278.838 315.951 287.21C302.005 295.583 285.153 306.592 270.145 316.347C263.595 320.635 258.085 324.173 253.432 327.153C262.458 321.6 274.583 314.343 290.781 304.759C310.495 293.063 332.535 280.028 339.6 274.764ZM329.534 306.217L327.261 307.664C319.757 312.431 312.65 316.915 305.939 321.118C314.89 315.736 323.348 310.473 329.534 306.217ZM258.438 299.088C248.608 305.027 239.057 310.88 232.71 314.879C235.926 313.238 239.796 311.041 244.17 308.447C248.469 305.52 253.282 302.358 258.438 299.088ZM283.609 270.766C279.493 273.51 275.44 276.233 271.646 278.774C264.141 283.833 257.474 288.25 251.696 292.045L257.602 288.4C279.31 275.022 310.656 255.683 319.875 248.672C316.465 250.196 313.16 251.943 309.98 253.903C306.314 256.465 301.651 259.542 295.744 263.272C291.896 265.684 287.811 268.193 283.609 270.744V270.766Z" fill="#E32385"/>
<g opacity="0.4">
<path opacity="0.4" d="M300.922 388.954C300.788 388.952 300.655 388.934 300.525 388.9C300.107 388.791 299.749 388.521 299.528 388.15C298.971 387.174 298.671 386.649 303.194 381.46C293.439 387.431 292.399 387.185 291.831 387.046C291.386 386.914 291.005 386.624 290.759 386.231C289.859 384.676 289.687 384.366 307.74 369.593C304.845 371.469 301.833 373.485 299.164 375.264C283.277 385.866 278.335 388.879 276.148 388.375C275.883 388.315 275.633 388.201 275.414 388.04C275.194 387.88 275.01 387.676 274.872 387.442C273.907 385.77 273.907 385.77 295.24 370.355L299.464 367.31C296.998 368.95 294.543 370.623 292.292 372.156C275.505 383.572 267.861 388.503 264.999 387.86C264.7 387.793 264.42 387.663 264.175 387.478C263.931 387.293 263.73 387.058 263.584 386.788C262.512 384.977 262.298 384.569 293.321 363.494L252.521 387.078C252.158 387.28 251.729 387.332 251.328 387.221C250.927 387.111 250.586 386.848 250.377 386.488C249.659 385.245 250.216 383.722 253.164 381.128C248.469 383.83 245.746 384.912 244.406 384.601C244.127 384.537 243.864 384.418 243.632 384.25C243.4 384.083 243.204 383.87 243.055 383.626C242.165 382.082 242.509 380.656 253.861 373.024C242.155 380.346 237.835 382.5 236.152 382.104C235.901 382.045 235.666 381.936 235.459 381.783C235.253 381.63 235.08 381.436 234.951 381.214C234.168 379.874 234.897 379.391 237.588 377.612L243.516 373.742L252.585 367.878C242.594 373.067 241.093 372.713 240.257 372.509C239.976 372.445 239.71 372.325 239.476 372.155C239.242 371.986 239.045 371.771 238.896 371.523C238.698 371.16 238.648 370.734 238.756 370.335C238.864 369.936 239.121 369.593 239.475 369.379C270.938 350.726 319.51 320.807 331.217 310.912C319.542 316.219 284.638 337.894 264.753 350.276C239.142 366.195 239.025 366.163 237.953 365.884C237.731 365.835 237.522 365.741 237.338 365.608C237.153 365.475 236.998 365.307 236.881 365.112C236.012 363.612 236.055 362.647 246.303 356.301C241.587 358.52 238.478 359.517 237.106 359.195C236.805 359.125 236.523 358.993 236.276 358.809C236.028 358.624 235.822 358.391 235.669 358.123C235.464 357.767 235.404 357.345 235.502 356.946C235.6 356.546 235.848 356.2 236.194 355.979C267.947 335.75 312.617 307.107 330.841 295.004C325.771 297.587 318.964 301.436 311.395 305.97C305.274 309.904 298.017 314.482 289.43 319.82C278.088 326.885 266.618 333.885 257.066 339.674C233.997 354.232 233.718 354.167 232.593 353.889C232.371 353.835 232.162 353.739 231.978 353.605C231.794 353.47 231.639 353.301 231.521 353.106C231.323 352.743 231.273 352.317 231.38 351.918C231.488 351.519 231.746 351.176 232.099 350.962C239.046 346.835 246.711 342.236 254.665 337.412L258.846 334.775C242.187 344.305 232.978 348.475 230.266 347.81C229.953 347.749 229.656 347.622 229.395 347.437C229.135 347.252 228.916 347.014 228.755 346.738C227.758 345.023 229.173 342.836 240.922 335.161C233.343 339.781 230.341 341.153 229.066 340.842C228.822 340.788 228.593 340.683 228.392 340.536C228.191 340.388 228.022 340.2 227.897 339.985C227.222 338.816 226.675 337.841 234.522 332.148C230.298 334.292 227.629 335.161 226.353 334.85C226.064 334.787 225.791 334.665 225.551 334.492C225.311 334.318 225.11 334.097 224.96 333.842C224.852 333.658 224.782 333.454 224.755 333.242C224.727 333.03 224.742 332.815 224.799 332.609C224.912 332.199 225.181 331.848 225.549 331.634C260.336 311.855 313.014 280.532 329.051 267.893C311.46 277.605 262.962 306.077 229.119 326.145C228.936 326.253 228.734 326.324 228.524 326.353C228.314 326.382 228.1 326.369 227.895 326.316C227.689 326.262 227.497 326.168 227.328 326.039C227.159 325.911 227.017 325.75 226.911 325.566C226.746 325.272 226.644 324.947 226.609 324.612C226.574 324.276 226.607 323.937 226.707 323.615C227.304 322.256 228.207 321.053 229.344 320.099C226.847 321.118 225.174 321.493 224.22 321.257C223.924 321.185 223.645 321.052 223.401 320.868C223.158 320.683 222.955 320.451 222.805 320.185C221.84 318.523 223.684 317.237 226.471 315.297C228.615 313.849 231.649 311.845 235.894 309.186C243.816 304.234 254.686 297.673 266.2 290.737C279.139 282.933 294.511 273.66 306.721 265.985C280.597 280.993 239.453 305.027 219.696 316.583C219.322 316.795 218.88 316.853 218.464 316.744C218.259 316.69 218.068 316.596 217.9 316.467C217.733 316.338 217.592 316.177 217.488 315.993C216.663 314.557 216.416 314.139 230.62 305.198C225.056 308.254 221.54 309.572 219.75 309.154C219.412 309.084 219.092 308.943 218.812 308.742C218.531 308.541 218.296 308.283 218.121 307.986C217.049 306.142 217.049 306.142 242.841 291.166C254.772 284.241 269.008 275.965 282.108 268.011C293.107 260.7 301.715 255.147 308.244 251.287C311.668 249.01 314.918 246.48 317.967 243.719C304.577 249.733 251.706 281.7 218.271 302.497C217.91 302.724 217.473 302.799 217.057 302.705C216.641 302.61 216.279 302.354 216.052 301.993C215.824 301.632 215.749 301.195 215.844 300.779C215.938 300.363 216.194 300.002 216.555 299.774L226.932 293.171C218.356 297.576 215.14 298.316 213.822 297.984C213.523 297.914 213.241 297.783 212.996 297.598C212.75 297.414 212.546 297.18 212.396 296.912C212.188 296.556 212.127 296.134 212.225 295.733C212.323 295.333 212.573 294.987 212.921 294.768L235.766 280.124C217.091 290.673 215.58 290.298 214.658 290.062C214.413 290.005 214.182 289.898 213.979 289.749C213.776 289.6 213.606 289.411 213.479 289.193C213.278 288.834 213.223 288.411 213.325 288.012C213.426 287.614 213.677 287.269 214.025 287.049C238.103 272.159 272.31 250.601 292.282 237.083C276.148 246.378 252.618 260.185 236.066 269.919L217.617 280.639C213.522 283.029 211.538 284.198 210.477 284.734L210.198 284.905C209.459 285.259 209.277 285.206 208.966 285.12C208.663 285.039 208.391 284.872 208.182 284.638C207.973 284.405 207.837 284.116 207.79 283.806C207.744 283.496 207.789 283.18 207.919 282.895C208.05 282.611 208.261 282.37 208.526 282.204C234.061 266.413 271.774 242.615 288.669 230.909C279.675 236.119 266.243 244.684 255.437 251.598C225.142 270.894 215.934 276.447 213.264 275.783C213.011 275.722 212.772 275.612 212.562 275.457C212.352 275.302 212.175 275.107 212.042 274.882C211.378 273.714 210.895 272.888 220.961 265.631C218.217 266.842 216.362 267.303 215.28 267.046C214.974 266.976 214.685 266.845 214.43 266.661C214.176 266.477 213.962 266.243 213.8 265.974C213.601 265.615 213.546 265.194 213.646 264.796C213.745 264.398 213.992 264.053 214.336 263.83C234.115 251.384 264.174 231.874 274.508 223.801C265.46 228.229 245.714 240.953 234.093 248.393C215.108 260.496 214.401 260.796 213.189 260.496C212.967 260.444 212.758 260.349 212.573 260.214C212.389 260.08 212.234 259.909 212.117 259.713C211.26 258.245 210.509 256.937 229.098 244.159C226.804 245.617 224.456 247.128 222.055 248.672C221.856 248.833 221.624 248.946 221.375 249.004C221.126 249.061 220.867 249.061 220.618 249.004C220.407 248.954 220.208 248.86 220.035 248.729C219.861 248.598 219.717 248.433 219.611 248.243C218.464 246.26 220.114 244.555 233.161 234.554C232.921 234.503 232.696 234.402 232.498 234.258C232.3 234.114 232.135 233.93 232.014 233.717C231.815 233.348 231.767 232.915 231.881 232.511C231.995 232.107 232.262 231.763 232.625 231.552C232.926 231.387 233.269 231.316 233.611 231.348C235.307 230.364 236.949 229.29 238.531 228.132C243.763 224.455 245.242 223.576 246.518 223.844C246.767 223.899 247.002 224.004 247.209 224.153C247.415 224.303 247.589 224.493 247.718 224.713C248.64 226.321 247.922 227.285 239.142 234.082C241.587 232.57 244.106 231.005 246.646 229.462C271.431 214.303 273.35 214.754 274.518 215.032C274.776 215.088 275.018 215.196 275.231 215.352C275.443 215.507 275.62 215.705 275.751 215.933C275.953 216.291 276.01 216.713 275.91 217.112C275.81 217.51 275.562 217.856 275.215 218.077C263.123 225.581 250.559 233.707 240.021 240.728C264.485 225.109 276.244 218.216 279.557 219.052C279.844 219.116 280.115 219.239 280.353 219.412C280.591 219.586 280.791 219.806 280.94 220.06C281.958 221.829 282.698 223.115 248.855 245.391L243.988 248.607C250.806 244.319 257.71 239.817 263.284 236.172C284.992 222.086 288.508 220.017 290.148 220.403C290.373 220.462 290.584 220.565 290.768 220.707C290.952 220.849 291.106 221.026 291.22 221.229C291.425 221.585 291.485 222.007 291.388 222.406C291.29 222.805 291.042 223.152 290.695 223.373C269.705 236.751 239.046 256.723 223.888 267.453C232.035 262.651 243.581 255.286 253.636 248.875C285.506 228.507 295.905 222.343 298.842 223.051C299.105 223.114 299.352 223.229 299.569 223.389C299.787 223.549 299.969 223.751 300.107 223.984C300.89 225.345 301.458 226.31 282.816 238.756C308.94 223.598 309.444 223.748 310.27 223.941C310.48 223.995 310.677 224.09 310.85 224.22C311.023 224.351 311.168 224.515 311.277 224.702C312.349 226.556 313.11 227.918 263.82 259.413C260.239 261.707 256.648 263.991 253.1 266.22C272.61 254.686 295.862 240.492 313.475 229.494C313.659 229.381 313.864 229.306 314.077 229.273C314.291 229.24 314.509 229.249 314.718 229.301C315.14 229.408 315.502 229.678 315.726 230.051C316.487 231.38 315.362 232.195 314.172 233.01C313.443 233.514 312.371 234.243 310.956 235.154C308.362 236.88 304.524 239.442 299.571 242.658C291.231 248.093 279.578 255.629 264.935 265.063C250.827 274.143 236.613 283.287 226.868 289.515C239.743 282.708 264.785 268 313.025 237.18C319.971 232.753 319.971 232.753 320.679 232.892C320.891 232.944 321.09 233.038 321.265 233.169C321.44 233.3 321.587 233.464 321.697 233.653C322.094 234.339 322.319 234.725 321.033 235.872C319.317 237.373 315.051 240.16 305.317 246.485C319.103 238.927 320.389 239.238 321.226 239.453C321.469 239.507 321.698 239.612 321.899 239.759C322.1 239.907 322.269 240.095 322.394 240.31C322.973 241.318 323.112 242.529 320.968 244.931C321.814 244.667 322.709 244.601 323.584 244.738C323.934 244.81 324.264 244.956 324.554 245.165C324.844 245.373 325.087 245.64 325.267 245.949C326.339 247.793 326.875 248.736 295.026 268.825C328.751 249.294 329.083 249.379 329.887 249.594C330.094 249.646 330.287 249.74 330.457 249.869C330.626 249.998 330.768 250.159 330.874 250.344C331.946 252.124 330.016 253.914 325.406 257.28C322.437 259.424 318.245 262.254 312.628 265.856C331.356 254.16 336.051 251.738 337.724 252.145C337.96 252.203 338.183 252.307 338.378 252.453C338.573 252.598 338.737 252.782 338.86 252.992C338.967 253.174 339.037 253.377 339.065 253.587C339.092 253.797 339.077 254.01 339.021 254.214C338.966 254.421 338.871 254.615 338.74 254.784C338.61 254.954 338.446 255.095 338.26 255.2C327.325 261.396 316.209 267.807 305.467 274.132L294.34 281.164C272.46 295.014 256.498 304.973 245.296 311.491C241.747 313.924 238.714 316.09 236.28 317.923C246.25 312.027 263.23 302.004 280.232 292.088C333.832 260.721 334.647 260.946 335.665 261.214C335.875 261.268 336.072 261.363 336.245 261.494C336.418 261.625 336.564 261.788 336.673 261.975C336.828 262.25 336.926 262.553 336.961 262.866C336.996 263.179 336.967 263.496 336.877 263.798C336.561 264.836 335.954 265.762 335.129 266.467C338.806 264.634 341.111 263.883 342.247 264.151C342.524 264.215 342.784 264.334 343.013 264.502C343.241 264.67 343.433 264.882 343.577 265.127C344.434 266.606 343.234 267.41 340.586 269.168C338.989 270.24 336.63 271.731 333.361 273.767L332.728 274.164C337.724 271.773 341.229 270.648 342.987 271.077C343.346 271.151 343.686 271.299 343.985 271.511C344.284 271.723 344.535 271.995 344.724 272.309C346.203 274.871 344.724 276.501 292.421 307.439C270.456 320.528 241.437 337.68 233.525 344.112C237.888 342.579 248.758 337.326 275.773 320.978C297.792 307.653 322.04 292.099 333.661 284.627C341.733 279.449 341.722 279.46 342.44 279.631C342.867 279.74 343.234 280.014 343.459 280.392C344.113 281.529 344.777 282.676 335.955 289.247C337.201 288.684 338.569 288.448 339.932 288.561C340.232 288.632 340.514 288.763 340.761 288.948C341.009 289.132 341.215 289.365 341.368 289.633C342.312 291.273 342.312 291.273 324.967 302.636C316.391 308.232 304.492 315.961 289.484 325.609C275.012 334.914 260.422 344.251 250.431 350.63C270.67 339.781 308.597 315.725 325.471 305.027C340.479 295.54 340.479 295.54 341.293 295.743C341.503 295.797 341.7 295.892 341.873 296.023C342.046 296.154 342.192 296.317 342.301 296.504C343.448 298.498 341.626 301.328 334.572 306.571C334.778 306.541 334.987 306.541 335.194 306.571C335.456 306.633 335.704 306.748 335.921 306.908C336.138 307.069 336.321 307.271 336.459 307.503C337.584 309.454 338.86 311.663 291.285 341.453C304.963 333.027 319.157 324.066 330.616 316.637C330.8 316.517 331.005 316.436 331.221 316.399C331.437 316.362 331.658 316.369 331.87 316.42C332.083 316.472 332.283 316.566 332.458 316.697C332.633 316.828 332.78 316.994 332.889 317.183C333.671 318.555 332.589 319.327 330.745 320.614C329.673 321.375 328.054 322.49 325.932 323.905C323.809 325.32 321.172 327.121 317.988 329.179C322.426 326.928 325.17 326.017 326.564 326.36C326.867 326.428 327.152 326.558 327.401 326.743C327.65 326.928 327.858 327.162 328.011 327.432C328.912 328.986 328.708 329.576 317.859 336.587C320.143 335.611 321.762 335.257 322.801 335.515C323.124 335.584 323.429 335.72 323.697 335.914C323.965 336.107 324.189 336.355 324.356 336.64C325.621 338.784 324.667 339.792 295.615 357.383C287.297 362.422 276.823 368.757 268.344 374.224L325.385 341.303C325.567 341.195 325.769 341.125 325.979 341.098C326.19 341.07 326.403 341.085 326.607 341.143C327.016 341.252 327.367 341.517 327.582 341.882C328.376 343.265 327.25 344.091 325.385 345.463C324.259 346.288 322.608 347.457 320.336 349.022C316.101 351.959 310.216 355.936 303.988 360.16C296.73 365.07 287.597 371.255 280.114 376.454C283.555 374.182 287.136 371.748 290.32 369.583C306.904 358.305 313.904 353.792 316.637 354.392C316.924 354.455 317.194 354.576 317.432 354.748C317.67 354.919 317.87 355.137 318.02 355.389C318.953 357.019 318.996 357.094 299.978 370.869C313.775 361.693 318.288 359.077 320.346 359.538C320.611 359.598 320.861 359.712 321.081 359.873C321.3 360.033 321.484 360.237 321.622 360.471C322.373 361.779 322.373 361.779 312.778 369.615C309.884 371.973 305.864 375.254 302.24 378.287C305.178 376.476 308.415 374.417 311.492 372.424C311.675 372.304 311.881 372.223 312.097 372.186C312.312 372.149 312.533 372.156 312.746 372.207C312.959 372.258 313.159 372.352 313.334 372.484C313.509 372.615 313.655 372.78 313.764 372.97C314.365 374.042 314.14 374.257 311.942 376.615C310.152 378.534 308.619 380.217 307.322 381.653C317.055 375.854 317.409 375.95 318.095 376.122C318.304 376.176 318.499 376.271 318.67 376.402C318.842 376.533 318.985 376.696 319.092 376.883C319.199 377.066 319.269 377.268 319.297 377.478C319.326 377.687 319.312 377.901 319.257 378.105C319.202 378.31 319.107 378.501 318.978 378.669C318.848 378.836 318.687 378.976 318.503 379.081C318.347 379.174 318.177 379.24 317.999 379.274C316.573 379.917 308.651 384.58 301.672 388.804C301.437 388.911 301.18 388.962 300.922 388.954ZM316.391 378.416C316.561 378.704 316.815 378.932 317.12 379.07C316.818 378.928 316.565 378.701 316.391 378.416ZM276.813 362.047C267.55 367.825 258.438 373.613 252.5 377.741C258.964 373.892 268.354 367.696 276.813 362.047ZM316.68 333.499C306.164 339.331 289.151 350.287 276.223 358.638C280.983 355.668 286.407 352.313 292.571 348.518C301.061 343.297 310.205 337.68 316.68 333.499ZM315.994 341.003C310.28 344.048 301.608 349.579 293.15 355.1L294.04 354.564C301.94 349.761 310.516 344.562 315.994 340.982V341.003ZM263.284 316.926C256.209 321.353 249.777 325.523 244.417 329.104C249.97 325.556 256.552 321.3 263.284 316.926ZM339.6 274.764C336.491 275.836 329.898 278.838 315.951 287.21C302.005 295.583 285.153 306.592 270.145 316.347C263.595 320.635 258.085 324.173 253.432 327.153C262.458 321.6 274.583 314.343 290.781 304.759C310.495 293.063 332.535 280.028 339.6 274.764ZM329.534 306.217L327.261 307.664C319.757 312.431 312.65 316.915 305.939 321.118C314.89 315.736 323.348 310.473 329.534 306.217ZM258.438 299.088C248.608 305.027 239.057 310.88 232.71 314.879C235.926 313.238 239.796 311.041 244.17 308.447C248.469 305.52 253.282 302.358 258.438 299.088ZM283.609 270.766C279.493 273.51 275.44 276.233 271.646 278.774C264.141 283.833 257.474 288.25 251.696 292.045L257.602 288.4C279.31 275.022 310.656 255.683 319.875 248.672C316.465 250.196 313.16 251.943 309.98 253.903C306.314 256.465 301.651 259.542 295.744 263.272C291.896 265.684 287.811 268.193 283.609 270.744V270.766Z" fill="white"/>
</g>
<path d="M278.152 217.134H277.434C238.563 217.852 209.266 247.589 209.266 284.176C209.249 295.103 211.914 305.866 217.027 315.522C219.171 320.614 224.359 333.081 229.494 349.204C234.254 364.083 236.741 379.059 236.741 381.364C236.741 381.578 236.741 381.804 236.741 382.05C236.72 382.723 236.833 383.393 237.076 384.021C237.318 384.649 237.684 385.222 238.152 385.706C238.62 386.19 239.18 386.575 239.799 386.838C240.419 387.101 241.085 387.237 241.758 387.239H311.374C312.047 387.237 312.713 387.101 313.332 386.838C313.952 386.575 314.512 386.19 314.98 385.706C315.448 385.222 315.814 384.649 316.056 384.021C316.298 383.393 316.412 382.723 316.391 382.05C316.391 381.804 316.391 381.578 316.391 381.364C316.391 379.102 318.878 364.126 323.627 349.204C328.772 333.124 333.907 320.614 336.094 315.522C341.44 305.407 344.11 294.092 343.849 282.654C343.588 271.217 340.406 260.036 334.604 250.175C328.802 240.314 320.574 232.101 310.703 226.318C300.831 220.535 289.644 217.373 278.206 217.134H278.152Z" stroke="#263238" stroke-width="2" stroke-linecap="round" stroke-linejoin="round"/>
<path d="M301.639 227.896C299.698 227.025 297.708 226.266 295.679 225.624" stroke="#263238" stroke-width="3" stroke-linecap="round" stroke-linejoin="round"/>
<path d="M323.979 244.92C323.979 244.92 318.512 236.237 306.495 230.33" stroke="#263238" stroke-width="3" stroke-linecap="round" stroke-linejoin="round"/>
<path d="M272.117 356.837V322.404C272.117 322.404 274.765 305.638 266.05 305.638C257.334 305.638 257.999 314.364 268.054 323.744C278.11 333.124 293.547 324.419 295.562 317.044C297.577 309.669 292.207 306.324 288.851 312.349C285.496 318.373 288.851 386.799 288.851 386.799" stroke="#263238" stroke-width="3" stroke-linecap="round" stroke-linejoin="round"/>
<path d="M253.475 199.714L257.184 211.388" stroke="#263238" stroke-width="3" stroke-linecap="round" stroke-linejoin="round"/>
<path d="M344.359 225.174L332.149 234.725" stroke="#263238" stroke-width="3" stroke-linecap="round" stroke-linejoin="round"/>
<path d="M299.088 191.191L294.489 211.388" stroke="#263238" stroke-width="3" stroke-linecap="round" stroke-linejoin="round"/>
<path d="M313.313 392.255H239.785C238.843 392.255 238.08 393.019 238.08 393.96V394.807C238.08 395.748 238.843 396.511 239.785 396.511H313.313C314.254 396.511 315.018 395.748 315.018 394.807V393.96C315.018 393.019 314.254 392.255 313.313 392.255Z" fill="#263238" stroke="#263238" stroke-linecap="round" stroke-linejoin="round"/>
<path d="M313.313 401.839H239.785C238.843 401.839 238.08 402.602 238.08 403.544V404.391C238.08 405.332 238.843 406.095 239.785 406.095H313.313C314.254 406.095 315.018 405.332 315.018 404.391V403.544C315.018 402.602 314.254 401.839 313.313 401.839Z" fill="#263238" stroke="#263238" stroke-linecap="round" stroke-linejoin="round"/>
<path d="M313.313 411.423H239.785C238.843 411.423 238.08 412.186 238.08 413.127V413.974C238.08 414.916 238.843 415.679 239.785 415.679H313.313C314.254 415.679 315.018 414.916 315.018 413.974V413.127C315.018 412.186 314.254 411.423 313.313 411.423Z" fill="#263238" stroke="#263238" stroke-linecap="round" stroke-linejoin="round"/>
<path d="M278.806 420.781H241.05L251.92 435.789C252.852 437.078 254.076 438.127 255.493 438.85C256.909 439.573 258.477 439.95 260.067 439.949H293.299C294.893 439.947 296.463 439.568 297.882 438.841C299.3 438.114 300.525 437.061 301.457 435.768L312.241 420.835L278.806 420.781Z" fill="#263238" stroke="#263238" stroke-linecap="round" stroke-linejoin="round"/>
<path d="M359.86 260.496C359.86 260.496 352.999 268 347.382 271.731C341.765 275.461 337.852 280.424 343.008 282.965C346.106 284.487 350.512 282.343 350.512 282.343C350.512 282.343 343.641 284.209 342.397 290.458C341.154 296.708 354.832 294.178 354.832 294.178C354.832 294.178 344.852 301.039 347.972 303.537C351.091 306.035 357.33 304.159 360.45 304.159C363.569 304.159 379.177 294.178 382.962 294.178C386.746 294.178 394.196 302.293 394.196 308.532C394.196 314.771 404.144 314.15 405.42 294.8C406.696 275.45 401.679 259.231 393.564 254.236C385.449 249.24 359.86 260.496 359.86 260.496Z" fill="white" stroke="#263238" stroke-miterlimit="10" stroke-linecap="round"/>
<path d="M356.118 281.689L381.021 272.384C381.021 272.384 391.955 270.015 399.802 282.944" stroke="#263238" stroke-miterlimit="10" stroke-linecap="round"/>
<path d="M360.482 289.183L382.994 285.441C382.994 285.441 392.985 284.82 399.224 296.676" stroke="#263238" stroke-miterlimit="10" stroke-linecap="round"/>
<path d="M387.947 304.159L371.095 307.911L381.075 347.843C381.075 347.843 389.823 365.316 392.31 372.809C394.797 380.303 420.396 405.216 420.396 405.216L450.348 376.508C450.348 376.508 436.626 360.288 436.005 356.536C435.383 352.784 432.874 309.111 432.874 302.872C432.874 296.633 420.396 281.647 420.396 281.647C420.396 281.647 415.272 274.303 412.774 261.825C410.277 249.347 398.838 244.212 392.578 244.834C386.317 245.456 369.219 247.332 362.358 252.338C355.497 257.344 349.248 263.573 355.497 265.449C365.864 268.557 382.823 254.729 391.002 264.291C394.754 268.654 399.181 287.875 399.803 290.416C399.803 290.416 396.684 302.272 387.947 304.137" fill="white"/>
<path d="M387.947 304.159L371.095 307.911L381.075 347.843C381.075 347.843 389.823 365.316 392.31 372.809C394.797 380.303 420.396 405.216 420.396 405.216L450.348 376.508C450.348 376.508 436.626 360.288 436.005 356.536C435.383 352.784 432.874 309.111 432.874 302.872C432.874 296.633 420.396 281.647 420.396 281.647C420.396 281.647 415.272 274.303 412.774 261.825C410.277 249.347 398.838 244.212 392.578 244.834C386.317 245.456 369.219 247.332 362.358 252.338C355.497 257.344 349.248 263.573 355.497 265.449C365.864 268.557 382.823 254.729 391.002 264.291C394.754 268.654 399.181 287.875 399.803 290.416C399.803 290.416 396.684 302.272 387.947 304.137" stroke="#263238" stroke-miterlimit="10" stroke-linecap="round"/>
<path d="M325.106 246.153C325.297 245.952 325.553 245.827 325.828 245.8C326.104 245.772 326.38 245.844 326.607 246.003L329.158 247.771C329.41 247.949 329.581 248.218 329.636 248.521C329.69 248.824 329.622 249.137 329.447 249.39C329.272 249.641 329.005 249.813 328.703 249.867C328.402 249.921 328.091 249.854 327.839 249.68L325.288 247.9C325.037 247.725 324.866 247.457 324.811 247.156C324.757 246.854 324.824 246.544 324.999 246.292C325.028 246.241 325.064 246.194 325.106 246.153Z" fill="#263238" stroke="#263238" stroke-miterlimit="10" stroke-linecap="round"/>
<path d="M328.031 248.211C328.464 247.748 329.05 247.457 329.68 247.392C330.311 247.327 330.943 247.492 331.462 247.857L339.459 251.974L417.972 303.623C418.641 304.088 419.213 304.68 419.653 305.366C420.093 306.052 420.394 306.818 420.539 307.621C420.683 308.423 420.668 309.246 420.494 310.043C420.321 310.839 419.992 311.594 419.526 312.263C419.061 312.932 418.469 313.504 417.783 313.944C417.097 314.384 416.331 314.685 415.528 314.83C414.726 314.974 413.903 314.959 413.106 314.785C412.31 314.611 411.556 314.283 410.886 313.817L334.688 257.602L328.46 252.242C328.174 252.043 327.93 251.79 327.742 251.498C327.554 251.205 327.425 250.878 327.363 250.536C327.302 250.193 327.308 249.842 327.382 249.502C327.456 249.162 327.597 248.84 327.795 248.554C327.863 248.432 327.942 248.317 328.031 248.211Z" fill="#E32385" stroke="#263238" stroke-miterlimit="10" stroke-linecap="round"/>
<path d="M417.984 303.623L395.322 288.722C393.573 289.229 392.032 290.279 390.919 291.721C389.807 293.162 389.183 294.92 389.137 296.74C389.138 297.099 389.167 297.458 389.222 297.812L410.898 313.807C412.25 314.746 413.92 315.11 415.54 314.819C417.161 314.527 418.599 313.604 419.539 312.252C420.478 310.9 420.842 309.231 420.551 307.61C420.259 305.99 419.336 304.552 417.984 303.612V303.623Z" fill="#263238" stroke="#263238" stroke-miterlimit="10" stroke-linecap="round"/>
<path d="M392.352 372.809C385.492 362.829 376.755 337.24 373.056 332.245C369.358 327.249 359.27 316.165 355.529 304.973C351.788 293.782 349.333 284.82 349.333 275.45C349.333 266.081 357.384 264.473 363.623 274.464C369.862 284.455 377.344 299.796 377.344 299.796C377.344 299.796 382.34 306.035 392.352 304.159" fill="white"/>
<path d="M392.352 372.809C385.492 362.829 376.755 337.24 373.056 332.245C369.358 327.249 359.27 316.165 355.529 304.973C351.788 293.782 349.333 284.82 349.333 275.45C349.333 266.081 357.384 264.473 363.623 274.464C369.862 284.455 377.344 299.796 377.344 299.796C377.344 299.796 382.34 306.035 392.352 304.159" stroke="#263238" stroke-miterlimit="10" stroke-linecap="round"/>
<path d="M357.074 271.548L359.218 275.718C359.218 275.718 358.746 275.718 355.412 277.616C353.423 278.75 351.752 280.369 350.556 282.322C350.556 282.322 347.34 273.339 350.181 270.53C350.871 269.801 351.783 269.322 352.775 269.168C353.649 269.077 354.53 269.256 355.299 269.682C356.068 270.107 356.688 270.759 357.074 271.548Z" fill="white" stroke="#263238" stroke-miterlimit="10" stroke-linecap="round"/>
<path d="M443.809 363.794C443.809 363.794 427.289 368.682 418.713 377.258C413.034 383.046 407.717 389.179 402.794 395.622L418.102 413.374C418.102 413.374 430.966 398.677 439.542 391.934C445.383 387.448 451.518 383.358 457.905 379.692L443.809 363.794Z" fill="white" stroke="#263238" stroke-miterlimit="10" stroke-linecap="round"/>
<path d="M459.148 492.948L410.79 415.207C410.79 415.207 423.032 396.844 433.441 387.667C443.85 378.491 457.315 376.036 457.315 376.036L517.776 434.064" fill="#263238"/>
<path d="M459.148 492.948L410.79 415.207C410.79 415.207 423.032 396.844 433.441 387.667C443.85 378.491 457.315 376.036 457.315 376.036L517.776 434.064" stroke="#263238" stroke-miterlimit="10" stroke-linecap="round"/>
<path d="M365.981 294.253L367.053 294.146" stroke="#263238" stroke-miterlimit="10" stroke-linecap="round"/>
<path d="M356.645 299.442C356.645 299.442 357.213 296.022 364.084 294.586" stroke="#263238" stroke-miterlimit="10" stroke-linecap="round"/>
<path d="M364.104 297.03C364.104 297.03 363.622 298.477 358.809 300.407" stroke="#263238" stroke-miterlimit="10" stroke-linecap="round"/>
<path d="M363.912 292.452C361.503 292.83 359.214 293.758 357.223 295.164" stroke="#263238" stroke-miterlimit="10" stroke-linecap="round"/>
<path d="M213.069 185.831C213.069 185.831 223.188 186.657 229.599 188.79C236.01 190.923 242.313 190.934 241.144 185.338C240.448 181.961 236.052 179.807 236.052 179.807C236.052 179.807 241.745 184.095 247.437 181.232C253.129 178.37 242.731 169.087 242.731 169.087C242.731 169.087 254.287 172.753 254.341 168.754C254.394 164.756 249.088 160.982 247.169 158.517C245.25 156.051 227.798 149.866 225.493 146.918C223.188 143.97 225 133.067 229.931 129.23C234.863 125.392 228.238 117.92 212.254 128.79C196.271 139.66 186.526 153.585 187.502 163.094C188.477 172.603 213.069 185.831 213.069 185.831Z" fill="white" stroke="#263238" stroke-miterlimit="10" stroke-linecap="round"/>
<path d="M232.119 175.808L209.478 161.872C209.478 161.872 200.902 154.7 206.262 140.571" stroke="#263238" stroke-miterlimit="10" stroke-linecap="round"/>
<path d="M235.347 167.714L218.602 152.278C218.602 152.278 211.977 144.774 217.53 132.574" stroke="#263238" stroke-miterlimit="10" stroke-linecap="round"/>
<path d="M230.319 136.841L243.611 147.85L269.071 115.444C269.071 115.444 285.473 108.079 289.793 101.508C294.113 94.9363 297.79 59.3459 297.79 59.3459L256.636 53.6C256.636 53.6 252.445 74.4397 249.893 77.259C247.342 80.0784 206.67 98.3024 201.75 102.14C196.829 105.978 192.659 125.017 192.659 125.017C190.465 132.757 187.595 140.29 184.083 147.529C174.703 166.524 176.375 165.067 180.696 169.612C185.016 174.157 195.532 183.398 203.69 185.756C211.848 188.115 221.989 196.54 219.716 186.239C217.379 175.679 194.482 171.231 197.001 158.924C198.148 153.285 210.637 137.966 212.223 135.94C212.223 135.94 223.49 131.127 230.34 136.873" fill="white"/>
<path d="M230.319 136.841L243.611 147.85L269.071 115.444C269.071 115.444 285.473 108.079 289.793 101.508C294.113 94.9363 297.79 59.3459 297.79 59.3459L256.636 53.6C256.636 53.6 252.445 74.4397 249.893 77.259C247.342 80.0784 206.67 98.3024 201.75 102.14C196.829 105.978 192.659 125.017 192.659 125.017C190.465 132.757 187.595 140.29 184.083 147.529C174.703 166.524 176.375 165.067 180.696 169.612C185.016 174.157 195.532 183.398 203.69 185.756C211.848 188.115 221.989 196.54 219.716 186.239C217.379 175.679 194.482 171.231 197.001 158.924C198.148 153.285 210.637 137.966 212.223 135.94C212.223 135.94 223.49 131.127 230.34 136.873" stroke="#263238" stroke-miterlimit="10" stroke-linecap="round"/>
<path d="M223.105 222.065C222.827 222.045 222.566 221.926 222.369 221.729C222.172 221.532 222.052 221.271 222.033 220.993L221.872 217.884C221.85 217.726 221.862 217.565 221.906 217.411C221.95 217.258 222.025 217.115 222.126 216.992C222.228 216.869 222.354 216.768 222.497 216.696C222.639 216.624 222.795 216.582 222.955 216.573C223.114 216.564 223.274 216.588 223.423 216.644C223.573 216.7 223.709 216.786 223.824 216.897C223.939 217.008 224.029 217.142 224.09 217.289C224.151 217.437 224.18 217.596 224.177 217.755L224.348 220.864C224.366 221.168 224.263 221.466 224.063 221.695C223.862 221.924 223.579 222.064 223.276 222.086L223.105 222.065Z" fill="#263238" stroke="#263238" stroke-miterlimit="10" stroke-linecap="round"/>
<path d="M222.975 218.474C222.344 218.417 221.754 218.135 221.315 217.678C220.875 217.22 220.616 216.62 220.585 215.987L218.934 207.143L211.505 113.46C211.417 111.816 211.986 110.203 213.086 108.978C214.187 107.753 215.729 107.015 217.374 106.927C219.019 106.839 220.631 107.407 221.857 108.508C223.082 109.609 223.82 111.151 223.908 112.796L226.309 207.464L225.859 215.708C225.878 216.054 225.828 216.401 225.713 216.728C225.597 217.055 225.418 217.356 225.186 217.614C224.954 217.872 224.674 218.082 224.36 218.231C224.047 218.38 223.708 218.466 223.361 218.484C223.233 218.491 223.104 218.488 222.975 218.474Z" fill="#E32385" stroke="#263238" stroke-miterlimit="10" stroke-linecap="round"/>
<path d="M211.45 113.461L213.594 140.496C215.064 141.572 216.838 142.152 218.66 142.152C220.481 142.152 222.255 141.572 223.725 140.496C224.01 140.273 224.279 140.029 224.529 139.767L223.853 112.839C223.765 111.194 223.027 109.652 221.802 108.551C220.577 107.45 218.964 106.881 217.32 106.97C215.675 107.058 214.132 107.796 213.032 109.021C211.931 110.246 211.362 111.859 211.45 113.503V113.461Z" fill="#263238" stroke="#263238" stroke-miterlimit="10" stroke-linecap="round"/>
<path d="M289.739 101.465C286.223 113.053 270.701 128.983 267.999 134.6C261.942 147.328 254.932 159.58 247.031 171.252C244.362 175.251 241.478 175.819 239.72 177.255C237.147 179.399 235.829 181.597 231.433 185.006C224.047 190.752 217.83 185.402 221.882 174.35C225.934 163.298 233.374 147.936 233.374 147.936C233.374 147.936 235.239 140.164 227.638 133.432" fill="white"/>
<path d="M289.739 101.465C286.223 113.053 270.701 128.983 267.999 134.6C261.942 147.328 254.932 159.58 247.031 171.252C244.362 175.251 241.478 175.819 239.72 177.255C237.147 179.399 235.829 181.597 231.433 185.006C224.047 190.752 217.83 185.402 221.882 174.35C225.934 163.298 233.374 147.936 233.374 147.936C233.374 147.936 235.239 140.164 227.638 133.432" stroke="#263238" stroke-miterlimit="10" stroke-linecap="round"/>
<path d="M223.51 181.232L225.526 177.03C225.526 177.03 225.815 177.405 229.363 178.863C231.478 179.737 233.779 180.061 236.053 179.807C236.053 179.807 230.939 187.868 226.941 187.364C225.944 187.27 225.008 186.843 224.282 186.153C223.657 185.515 223.247 184.698 223.108 183.816C222.97 182.934 223.111 182.031 223.51 181.232Z" fill="white" stroke="#263238" stroke-miterlimit="10" stroke-linecap="round"/>
<path d="M253.163 20.0142L244.641 75.3616C244.641 75.3616 254.921 84.3986 268.578 86.832C282.236 89.2654 307.17 92.9531 307.17 92.9531L328.996 19.9928" fill="#263238"/>
<path d="M253.163 20.0142L244.641 75.3616C244.641 75.3616 254.921 84.3986 268.578 86.832C282.236 89.2654 307.17 92.9531 307.17 92.9531L328.996 19.9928" stroke="#263238" stroke-miterlimit="10" stroke-linecap="round"/>
<path d="M302.776 80.5822C302.776 81.4155 302.528 82.23 302.066 82.9228C301.603 83.6156 300.945 84.1556 300.175 84.4745C299.405 84.7934 298.558 84.8768 297.741 84.7142C296.923 84.5517 296.173 84.1504 295.584 83.5612C294.994 82.972 294.593 82.2214 294.431 81.4041C294.268 80.5869 294.351 79.7398 294.67 78.97C294.989 78.2002 295.529 77.5422 296.222 77.0793C296.915 76.6163 297.729 76.3693 298.563 76.3693C299.68 76.3693 300.751 76.8131 301.542 77.6032C302.332 78.3933 302.776 79.4649 302.776 80.5822Z" fill="white" stroke="#263238" stroke-width="2" stroke-linecap="round" stroke-linejoin="round"/>
<path d="M232.849 167.564L232.131 166.835" stroke="#263238" stroke-miterlimit="10" stroke-linecap="round"/>
<path d="M242.669 171.756C242.669 171.756 239.625 173.407 234.275 168.872" stroke="#263238" stroke-miterlimit="10" stroke-linecap="round"/>
<path d="M236.182 167.339C236.182 167.339 237.618 166.835 242.099 169.483" stroke="#263238" stroke-miterlimit="10" stroke-linecap="round"/>
<path d="M232.698 170.319C234.475 171.982 236.609 173.214 238.937 173.921" stroke="#263238" stroke-miterlimit="10" stroke-linecap="round"/>
<path d="M235.778 350.726C235.778 350.726 236.753 360.835 238.994 367.214C241.234 373.592 241.363 379.895 235.713 378.813C232.326 378.159 230.107 373.806 230.107 373.806C230.107 373.806 234.47 379.434 231.704 385.159C228.938 390.883 219.483 380.635 219.483 380.635C219.483 380.635 223.321 392.127 219.333 392.245C215.345 392.363 211.475 387.11 208.988 385.234C206.501 383.358 200.048 365.938 197.057 363.73C194.066 361.521 183.207 363.44 179.455 368.425C175.703 373.41 168.092 366.903 178.747 350.705C189.403 334.507 203.157 324.548 212.633 325.448C222.11 326.349 235.778 350.726 235.778 350.726Z" fill="white" stroke="#263238" stroke-miterlimit="10" stroke-linecap="round"/>
<path d="M225.989 369.926L211.71 347.489C211.71 347.489 204.409 339.009 190.355 344.616" stroke="#263238" stroke-miterlimit="10" stroke-linecap="round"/>
<path d="M217.991 373.27L202.308 356.751C202.308 356.751 194.707 350.244 182.594 355.958" stroke="#263238" stroke-miterlimit="10" stroke-linecap="round"/>
<path d="M187.055 368.693L198.246 381.836L166.226 407.714C166.226 407.714 148.731 416.397 142.234 420.878C135.738 425.359 100.266 429.872 100.266 429.872L93.6406 388.922C93.6406 388.922 114.373 384.237 117.117 381.621C119.862 379.006 148.205 345.634 151.925 340.649C155.645 335.665 174.673 331.216 174.673 331.216C174.673 331.216 183.185 328.439 192.693 319.981C202.202 311.523 214.434 314.321 219.043 318.577C223.653 322.833 236.195 334.657 238.672 342.74C241.148 350.823 242.37 359.602 236.26 357.34C226.108 353.578 220.887 332.341 208.602 335.032C202.985 336.265 187.848 348.968 185.854 350.598C185.854 350.598 181.202 361.939 187.055 368.693Z" fill="white"/>
<path d="M187.055 368.693L198.246 381.836L166.226 407.714C166.226 407.714 148.731 416.397 142.234 420.878C135.738 425.359 100.266 429.872 100.266 429.872L93.6406 388.922C93.6406 388.922 114.373 384.237 117.117 381.621C119.862 379.006 148.205 345.634 151.925 340.649C155.645 335.665 174.673 331.216 174.673 331.216C174.673 331.216 183.185 328.439 192.693 319.981C202.202 311.523 214.434 314.321 219.043 318.577C223.653 322.833 236.195 334.657 238.672 342.74C241.148 350.823 242.37 359.602 236.26 357.34C226.108 353.578 220.887 332.341 208.602 335.032C202.985 336.265 187.848 348.968 185.854 350.598C185.854 350.598 181.202 361.939 187.055 368.693" stroke="#263238" stroke-miterlimit="10" stroke-linecap="round"/>
<path d="M272.15 360.192C272.13 359.914 272.011 359.653 271.814 359.456C271.617 359.259 271.356 359.14 271.078 359.12L267.969 359.002C267.817 358.996 267.665 359.021 267.523 359.074C267.38 359.127 267.249 359.207 267.138 359.311C267.026 359.414 266.936 359.539 266.873 359.677C266.81 359.815 266.774 359.965 266.768 360.117C266.763 360.269 266.787 360.421 266.84 360.563C266.893 360.706 266.974 360.837 267.077 360.948C267.181 361.06 267.305 361.15 267.443 361.213C267.582 361.276 267.731 361.312 267.883 361.318L270.992 361.436C271.291 361.445 271.583 361.339 271.806 361.139C272.03 360.94 272.168 360.662 272.193 360.364C272.185 360.305 272.17 360.247 272.15 360.192Z" fill="#263238" stroke="#263238" stroke-miterlimit="10" stroke-linecap="round"/>
<path d="M268.57 360.095C268.501 359.464 268.208 358.879 267.743 358.446C267.279 358.013 266.675 357.762 266.04 357.737L257.175 356.215L163.396 350.18C162.581 350.148 161.768 350.277 161.002 350.56C160.237 350.842 159.535 351.273 158.937 351.827C158.338 352.381 157.854 353.047 157.513 353.788C157.172 354.529 156.98 355.33 156.948 356.145C156.916 356.96 157.046 357.774 157.328 358.539C157.611 359.304 158.041 360.006 158.595 360.605C159.149 361.203 159.816 361.687 160.557 362.028C161.298 362.37 162.099 362.562 162.914 362.593L257.603 363.579L265.836 363.022C266.537 363.048 267.219 362.795 267.734 362.319C268.248 361.843 268.553 361.182 268.581 360.481C268.588 360.353 268.584 360.224 268.57 360.095Z" fill="#E32385" stroke="#263238" stroke-miterlimit="10" stroke-linecap="round"/>
<path d="M163.394 350.18L190.452 351.927C191.544 353.384 192.145 355.151 192.166 356.973C192.187 358.794 191.628 360.575 190.569 362.057C190.344 362.341 190.104 362.613 189.851 362.872L162.944 362.593C162.129 362.562 161.328 362.37 160.587 362.029C159.846 361.687 159.18 361.204 158.626 360.605C158.072 360.006 157.641 359.304 157.358 358.539C157.076 357.774 156.947 356.96 156.978 356.145C157.01 355.33 157.202 354.529 157.543 353.788C157.884 353.047 158.368 352.381 158.967 351.827C159.566 351.273 160.268 350.842 161.033 350.56C161.798 350.277 162.611 350.148 163.426 350.18H163.394Z" fill="#263238" stroke="#263238" stroke-miterlimit="10" stroke-linecap="round"/>
<path d="M142.233 420.878C153.725 417.04 176.109 401.871 182.101 400.135C188.094 398.398 202.759 395.632 212.514 388.922C222.269 382.211 229.591 376.551 235.229 369.068C240.868 361.586 235.422 355.464 224.424 359.677C213.425 363.89 198.149 371.598 198.149 371.598C198.149 371.598 190.409 373.571 183.559 366.067" fill="white"/>
<path d="M142.233 420.878C153.725 417.04 176.109 401.871 182.101 400.135C188.094 398.398 202.759 395.632 212.514 388.922C222.269 382.211 229.591 376.551 235.229 369.068C240.868 361.586 235.422 355.464 224.424 359.677C213.425 363.89 198.149 371.598 198.149 371.598C198.149 371.598 190.409 373.571 183.559 366.067" stroke="#263238" stroke-miterlimit="10" stroke-linecap="round"/>
<path d="M231.338 361.264L227.157 363.333C227.157 363.333 227.543 363.622 229.055 367.139C229.971 369.242 230.34 371.543 230.127 373.828C230.127 373.828 238.113 368.596 237.545 364.598C237.435 363.602 236.998 362.671 236.301 361.95C235.65 361.33 234.821 360.93 233.93 360.807C233.04 360.684 232.133 360.844 231.338 361.264Z" fill="white" stroke="#263238" stroke-miterlimit="10" stroke-linecap="round"/>
<path d="M114.898 380.099C114.898 380.099 125.146 393.96 126.829 405.966C127.879 414.004 128.431 422.099 128.48 430.204L97.1881 437.708C97.1881 437.708 95.7731 418.241 92.9859 407.692C91.0233 400.595 88.588 393.636 85.6963 386.863L114.898 380.099Z" fill="white" stroke="#263238" stroke-miterlimit="10" stroke-linecap="round"/>
<path d="M116.324 404.283C113.537 390.69 104.264 380.624 104.264 380.624L30.2207 392.416V476.032L117.825 439.895C117.825 439.895 119.1 417.876 116.324 404.283Z" fill="#263238" stroke="#263238" stroke-miterlimit="10" stroke-linecap="round"/>
<path d="M96.4809 440.592C96.4936 441.246 96.3104 441.889 95.9549 442.438C95.5994 442.987 95.0879 443.418 94.4859 443.674C93.884 443.93 93.2191 444.001 92.5769 443.876C91.9346 443.752 91.3443 443.438 90.8817 442.975C90.4191 442.513 90.1054 441.922 89.9809 441.28C89.8563 440.638 89.9267 439.973 90.1829 439.371C90.4391 438.769 90.8695 438.257 91.4187 437.902C91.9679 437.546 92.6108 437.363 93.2649 437.376C94.1127 437.392 94.9212 437.737 95.5207 438.336C96.1203 438.936 96.4644 439.744 96.4809 440.592Z" fill="white"/>
<path d="M105.68 436.69C105.678 437.338 105.483 437.971 105.122 438.509C104.76 439.047 104.247 439.466 103.647 439.713C103.048 439.96 102.389 440.023 101.753 439.895C101.117 439.767 100.534 439.454 100.076 438.995C99.6185 438.536 99.3071 437.951 99.1814 437.315C99.0557 436.679 99.1213 436.02 99.3699 435.421C99.6185 434.823 100.039 434.311 100.578 433.951C101.117 433.591 101.751 433.399 102.399 433.399C102.831 433.399 103.259 433.484 103.657 433.65C104.056 433.815 104.418 434.058 104.723 434.363C105.028 434.669 105.269 435.032 105.433 435.431C105.597 435.831 105.681 436.258 105.68 436.69Z" fill="white"/>
<path d="M210.541 374.01L209.812 373.303" stroke="#263238" stroke-miterlimit="10" stroke-linecap="round"/>
<path d="M214.883 383.776C214.883 383.776 216.491 380.699 211.871 375.414" stroke="#263238" stroke-miterlimit="10" stroke-linecap="round"/>
<path d="M210.381 377.344C210.381 377.344 209.888 378.791 212.579 383.229" stroke="#263238" stroke-miterlimit="10" stroke-linecap="round"/>
<path d="M213.328 373.817C215.022 375.57 216.287 377.691 217.027 380.013" stroke="#263238" stroke-miterlimit="10" stroke-linecap="round"/>
</svg>
