<svg width="63" height="63" viewBox="0 0 63 63" fill="none" xmlns="http://www.w3.org/2000/svg">
<rect width="63" height="63" rx="8" fill="#F9D3E7"/>
<path d="M37.5155 25.5C43.0385 35.066 42.4755 45.73 36.2575 49.32C30.0395 52.91 20.5225 48.067 14.9995 38.5C9.47655 28.933 10.0395 18.27 16.2575 14.68C22.4755 11.09 31.9935 15.934 37.5155 25.5Z" stroke="#57277E" stroke-width="4" stroke-linecap="round" stroke-linejoin="round"/>
<path d="M26.2574 25.5C20.7344 35.066 21.2974 45.73 27.5154 49.32C33.7334 52.91 43.2514 48.066 48.7744 38.5C54.2974 28.934 53.7344 18.27 47.5154 14.68C41.2994 11.09 31.7804 15.934 26.2574 25.5Z" stroke="#57277E" stroke-width="4" stroke-linecap="round" stroke-linejoin="round"/>
<path d="M31.7529 18.344C33.8979 20.252 35.8819 22.669 37.5159 25.5C43.0389 35.066 42.4759 45.73 36.2579 49.32C34.9599 50.07 33.5179 50.452 31.9979 50.5" stroke="#57277E" stroke-width="4" stroke-linecap="round" stroke-linejoin="round"/>
</svg>
