<svg width="63" height="63" viewBox="0 0 63 63" fill="none" xmlns="http://www.w3.org/2000/svg">
<rect width="63" height="63" rx="8" fill="#F9D3E7"/>
<path d="M33.55 32C34.7932 32 35.9855 32.4939 36.8646 33.3729C37.7436 34.252 38.2375 35.4443 38.2375 36.6875L38.2344 39.025C38.5562 44.7656 34.1344 47.6281 25.9375 47.6281C17.7687 47.625 13.25 44.8031 13.25 39.1094V36.6875C13.25 35.4443 13.7439 34.252 14.6229 33.3729C15.502 32.4939 16.6943 32 17.9375 32H33.55ZM46.05 32C47.2932 32 48.4855 32.4939 49.3646 33.3729C50.2436 34.252 50.7375 35.4443 50.7375 36.6875V38.3344C51.0187 43.4812 47.1125 46.0625 39.975 46.0625C39.0062 46.0625 38.0938 46.0156 37.2437 45.9219C38.15 45.0844 38.8281 44.0875 39.2594 42.9281L39.975 42.9375C45.55 42.9375 47.7781 41.4656 47.6125 38.4187V36.6875C47.6125 36.2731 47.4479 35.8757 47.1549 35.5826C46.8618 35.2896 46.4644 35.125 46.05 35.125H39.6031C39.2895 33.9145 38.6201 32.826 37.6812 32H46.05ZM33.55 35.125H17.9375C17.5231 35.125 17.1257 35.2896 16.8326 35.5826C16.5396 35.8757 16.375 36.2731 16.375 36.6875V39.1094C16.375 42.6875 19.275 44.5 25.9375 44.5C32.575 44.5 35.3125 42.7281 35.1125 39.1094V36.6875C35.1125 36.2731 34.9479 35.8757 34.6549 35.5826C34.3618 35.2896 33.9644 35.125 33.55 35.125ZM25.75 13.25C27.822 13.25 29.8091 14.0731 31.2743 15.5382C32.7394 17.0034 33.5625 18.9905 33.5625 21.0625C33.5625 23.1345 32.7394 25.1216 31.2743 26.5868C29.8091 28.0519 27.822 28.875 25.75 28.875C23.678 28.875 21.6909 28.0519 20.2257 26.5868C18.7606 25.1216 17.9375 23.1345 17.9375 21.0625C17.9375 18.9905 18.7606 17.0034 20.2257 15.5382C21.6909 14.0731 23.678 13.25 25.75 13.25ZM41.375 16.375C43.0326 16.375 44.6223 17.0335 45.7944 18.2056C46.9665 19.3777 47.625 20.9674 47.625 22.625C47.625 24.2826 46.9665 25.8723 45.7944 27.0444C44.6223 28.2165 43.0326 28.875 41.375 28.875C39.7174 28.875 38.1277 28.2165 36.9556 27.0444C35.7835 25.8723 35.125 24.2826 35.125 22.625C35.125 20.9674 35.7835 19.3777 36.9556 18.2056C38.1277 17.0335 39.7174 16.375 41.375 16.375ZM25.75 16.375C24.5068 16.375 23.3145 16.8689 22.4354 17.7479C21.5564 18.627 21.0625 19.8193 21.0625 21.0625C21.0625 22.3057 21.5564 23.498 22.4354 24.3771C23.3145 25.2561 24.5068 25.75 25.75 25.75C26.9932 25.75 28.1855 25.2561 29.0646 24.3771C29.9436 23.498 30.4375 22.3057 30.4375 21.0625C30.4375 19.8193 29.9436 18.627 29.0646 17.7479C28.1855 16.8689 26.9932 16.375 25.75 16.375ZM41.375 19.5C40.5462 19.5 39.7513 19.8292 39.1653 20.4153C38.5792 21.0013 38.25 21.7962 38.25 22.625C38.25 23.4538 38.5792 24.2487 39.1653 24.8347C39.7513 25.4208 40.5462 25.75 41.375 25.75C42.2038 25.75 42.9987 25.4208 43.5847 24.8347C44.1708 24.2487 44.5 23.4538 44.5 22.625C44.5 21.7962 44.1708 21.0013 43.5847 20.4153C42.9987 19.8292 42.2038 19.5 41.375 19.5Z" fill="#57277E"/>
</svg>