<svg width="228" height="651" viewBox="0 0 228 651" fill="none" xmlns="http://www.w3.org/2000/svg">
<g style="mix-blend-mode:multiply" opacity="0.5" clip-path="url(#clip0_2052_3562)">
<path d="M438 318.142C438 323.743 438 329.344 438 334.945C429.038 348.388 423.437 362.951 415.596 376.394C402.153 402.159 388.711 429.044 375.269 454.809C361.826 480.574 348.384 506.339 336.061 532.104C322.619 557.869 309.177 584.755 295.734 610.52C289.013 622.842 283.412 635.165 276.691 647.487C276.691 649.727 275.57 650.848 273.33 650.848C185.954 650.848 99.6983 650.848 12.3224 650.848C7.84152 650.848 7.84152 649.727 10.0819 646.367C22.4042 623.962 34.7264 600.438 45.9285 578.033C53.7699 562.35 62.7315 546.667 70.573 530.984C82.8952 508.58 95.2175 485.055 107.54 462.651C116.501 445.847 124.343 430.164 133.304 413.361C146.747 387.596 161.31 360.711 174.752 334.945C178.113 329.344 176.992 325.984 174.752 321.503C166.911 308.06 160.189 294.618 152.348 281.175C140.026 258.771 127.703 237.486 116.501 215.082C109.78 203.88 104.179 192.677 98.5781 181.475C86.2559 159.071 73.9336 135.546 61.6114 113.142C53.77 97.4588 44.8083 81.7757 36.9669 67.2128C25.7649 45.9286 13.4426 25.7646 2.24054 4.48043C2.24054 3.36025 1.12036 2.24001 1.12036 2.24001C2.24057 2.24001 4.48098 2.24001 5.60119 2.24001C91.8569 2.24002 178.113 2.24003 264.368 2.24004C267.729 2.24004 269.969 2.24004 271.09 5.60069C274.45 11.2018 277.811 16.8029 281.171 23.5242C291.253 42.568 301.335 62.732 311.417 81.7757C322.619 101.94 332.701 122.104 343.903 142.268C355.105 163.552 366.307 184.836 377.509 206.12C388.711 227.404 399.913 248.689 411.115 268.853C420.077 284.536 427.918 301.339 436.88 317.022C436.88 317.022 436.88 318.142 438 318.142Z" fill="#E42586"/>
</g>
<defs>
<clipPath id="clip0_2052_3562">
<rect width="438" height="650.848" fill="white" transform="translate(438 650.848) rotate(-180)"/>
</clipPath>
</defs>
</svg>
