<svg width="130" height="455" viewBox="0 0 130 455" fill="none" xmlns="http://www.w3.org/2000/svg">
<g style="mix-blend-mode:multiply" opacity="0.5" clip-path="url(#clip0_963_1155)">
<path d="M306 222.41C306 226.325 306 230.241 306 234.157C299.739 243.554 295.826 253.735 290.348 263.133C280.957 281.145 271.565 299.94 262.174 317.952C252.783 335.964 243.391 353.976 234.783 371.988C225.391 390 216 408.795 206.609 426.807C201.913 435.422 198 444.036 193.304 452.651C193.304 454.217 192.522 455 190.957 455C129.913 455 69.6522 455 8.60867 455C5.47824 455 5.47824 454.217 7.04346 451.867C15.6522 436.205 24.2609 419.759 32.0869 404.096C37.5652 393.133 43.8261 382.169 49.3044 371.205C57.913 355.542 66.5217 339.096 75.1304 323.434C81.3913 311.687 86.8696 300.723 93.1304 288.976C102.522 270.964 112.696 252.169 122.087 234.157C124.435 230.241 123.652 227.892 122.087 224.759C116.609 215.361 111.913 205.964 106.435 196.566C97.8261 180.904 89.2174 166.024 81.3913 150.361C76.6957 142.53 72.7826 134.699 68.8696 126.867C60.2609 111.205 51.6522 94.759 43.0435 79.0964C37.5652 68.1325 31.3044 57.1687 25.8261 46.988C18 32.1085 9.3913 18.0121 1.56523 3.13254C1.56523 2.3494 0.782632 1.56626 0.782632 1.56626C1.56523 1.56626 3.13047 1.56626 3.91306 1.56626C64.1739 1.56626 124.435 1.56627 184.696 1.56627C187.044 1.56627 188.609 1.5663 189.391 3.9157C191.739 7.83138 194.087 11.747 196.435 16.4458C203.478 29.7591 210.522 43.8555 217.565 57.1687C225.391 71.2651 232.435 85.3615 240.261 99.4578C248.087 114.337 255.913 129.217 263.739 144.096C271.565 158.976 279.391 173.855 287.217 187.952C293.478 198.916 298.957 210.663 305.217 221.627C305.217 221.627 305.217 222.41 306 222.41Z" fill="#A71E69"/>
</g>
<defs>
<clipPath id="clip0_963_1155">
<rect width="306" height="455" fill="white" transform="translate(306 455) rotate(-180)"/>
</clipPath>
</defs>
</svg>
