<svg width="1002" height="557" viewBox="0 0 1002 557" fill="none" xmlns="http://www.w3.org/2000/svg">
<g clip-path="url(#clip0_1365_726)">
<path d="M223.6 2.5C225.3 0.8 227.6 0 230.5 0H329.2C332.1 0 334.4 0.8 336.1 2.5C337.8 4.2 338.6 6.5 338.6 9.4V427.8C338.6 430.7 337.8 433 336.1 434.7C334.4 436.4 332.1 437.2 329.2 437.2H230.5C227.6 437.2 225.3 436.4 223.6 434.7C221.9 433 221.1 430.7 221.1 427.8V269.2C221.1 267.5 219.7 266.1 218 266.1H120.6C118.9 266.1 117.5 267.5 117.5 269.2V427.8C117.5 430.7 116.7 433 115 434.7C113.3 436.4 111 437.2 108.1 437.2H9.4C6.5 437.2 4.2 436.4 2.5 434.7C0.8 433 0 430.7 0 427.8V9.4C0 6.5 0.8 4.2 2.5 2.5C4.2 0.8 6.4 0 9.4 0H108C110.9 0 113.2 0.8 114.9 2.5C116.6 4.2 117.4 6.5 117.4 9.4V162.4C117.4 164.1 118.8 165.5 120.5 165.5H217.9C219.6 165.5 221 164.1 221 162.4V9.4C221.1 6.5 221.9 4.2 223.6 2.5Z" fill="#57277E"/>
<path d="M754 429.4L726.8 343.6C726.1 341.4 724 339.8 721.7 339.8H544.7C531.4 339.8 519.4 337.4 508.8 332.6C498.2 327.8 490.8 321.9 486.6 314.8C485.7 313.4 484.9 312.1 484.2 310.8C481.5 305.5 485.2 299.3 491.2 299.3H671.5C677.7 299.3 680.9 296.4 680.9 290.5C681.3 286.8 681.5 281.5 681.5 274.9C681.5 265.3 680.9 255.9 679.7 246.8C675.5 219.4 666.1 194.7 651.3 172.8C636.5 150.9 617.8 133.8 595.1 121.3C572.4 108.8 547.7 102.6 521.1 102.6C486.1 102.6 455.7 111.5 429.9 129.4C404.1 147.3 385.6 172.1 374.3 203.7C366.8 224.1 363 247.4 363 273.7C363 298.6 367.6 322 376.7 343.6C389.2 373.6 409.2 396.7 436.7 412.9C464.2 429.1 497.3 437.3 536 437.3C538.1 437.3 540.2 437.3 542.2 437.2H748.4C752.4 437.1 755.2 433.2 754 429.4ZM482.3 234.9L484.8 228C491.5 211.3 503.4 203 520.4 203C530 203 538 205.1 544.5 209.5C550.9 213.9 555.2 220 557.3 227.9C558.6 231.6 559.2 234.4 559.2 236C559.2 237.7 558.3 238.5 556.7 238.5H485.5C484.7 238.5 483.8 238.2 483 237.6C482.1 237.1 481.9 236.1 482.3 234.9Z" fill="#57277E"/>
<path d="M993.5 107.2H891.1C885.3 107.2 881.7 109.9 880.5 115.3L846.8 282C846.4 283.7 845.7 284.5 844.9 284.5C844.1 284.5 843.5 283.7 843 282L809.3 115.3C808 109.9 804.5 107.2 798.7 107.2H693.8C688 107.2 685.1 109.5 685.1 114.1C685.1 115.8 685.3 117 685.7 117.8L784.2 429.6C784.3 429.9 784.4 430.2 784.4 430.5L784.8 432.7C784.9 433.4 784.9 434.2 784.8 435C782.8 445.2 776.4 451.9 765.3 455.1C753.9 458.4 734.4 460.1 706.9 460.1C705.9 460.1 705.1 460.3 704.4 460.5C703.7 460.2 703 460.1 702.2 460.1H676.6C677.8 462.4 679.1 465 679.6 466.1C681.6 470 683.6 473.9 685.6 477.8C687.6 481.7 689.6 485.5 691.5 489.4C693.5 493.3 695.5 497.2 697.5 501.1C698.6 503.2 699.7 505.3 700.8 507.4C701.6 508.9 700.6 510.2 700.5 510.3C699.2 512.7 698 515.1 696.7 517.5C695 520.6 693.4 523.8 691.7 526.9C690 530.1 688.3 533.3 686.6 536.5C685 539.5 683.4 542.6 681.8 545.6C680.3 548.5 678.7 551.4 677.2 554.4C676.8 555.1 676.5 555.7 676.1 556.4H702.1C702.5 556.4 704 556.4 704.3 556.4H708.7C752.8 556.4 786.9 552.2 810.8 543.9C834.8 535.6 852.7 523.1 864.8 506.4C876.8 489.7 888.3 465.4 899.1 433.3L1001 117.8C1003.1 110.8 1000.6 107.2 993.5 107.2Z" fill="#57277E"/>
<path d="M14.0999 550.7C9.6999 548.4 6.2999 545.3 3.9999 541.2C1.5999 537.1 0.399902 532.4 0.399902 527V498.6C0.399902 493.2 1.5999 488.5 3.9999 484.4C6.3999 480.3 9.7999 477.2 14.0999 475C18.4999 472.8 23.4999 471.7 29.2999 471.7C34.9999 471.7 39.9999 472.8 44.3999 474.9C48.7999 477 52.0999 480.1 54.4999 484C56.8999 487.9 58.0999 492.4 58.0999 497.6C58.0999 498 57.9999 498.3 57.6999 498.6C57.3999 498.9 57.0999 499 56.6999 499L46.0999 499.6C45.1999 499.6 44.6999 499.2 44.6999 498.3C44.6999 493.8 43.2999 490.1 40.4999 487.4C37.6999 484.6 33.9999 483.3 29.2999 483.3C24.5999 483.3 20.8999 484.7 17.9999 487.4C15.1999 490.2 13.6999 493.8 13.6999 498.3V527.6C13.6999 532.1 15.0999 535.7 17.9999 538.4C20.7999 541.2 24.5999 542.5 29.2999 542.5C33.9999 542.5 37.6999 541.1 40.4999 538.4C43.2999 535.7 44.6999 532.1 44.6999 527.5C44.6999 526.7 45.1999 526.2 46.0999 526.2L56.6999 526.7C57.0999 526.7 57.3999 526.8 57.6999 527C57.9999 527.2 58.0999 527.5 58.0999 527.8C58.0999 533 56.8999 537.6 54.4999 541.6C52.0999 545.6 48.6999 548.6 44.3999 550.7C39.9999 552.8 34.9999 553.9 29.2999 553.9C23.4999 554.1 18.4999 553 14.0999 550.7Z" fill="#57277E"/>
<path d="M121.7 552.1L106.5 519C106.3 518.7 106.1 518.5 105.8 518.5H91.9999C91.5999 518.5 91.3999 518.7 91.3999 519.1V551.8C91.3999 552.2 91.2999 552.5 90.9999 552.8C90.6999 553.1 90.3999 553.2 89.9999 553.2H79.4999C79.0999 553.2 78.7999 553.1 78.4999 552.8C78.1999 552.5 78.0999 552.2 78.0999 551.8V474C78.0999 473.6 78.1999 473.3 78.4999 473C78.7999 472.7 79.0999 472.6 79.4999 472.6H111.2C115.9 472.6 120 473.6 123.6 475.5C127.2 477.5 130 480.2 132 483.8C134 487.4 135 491.5 135 496.1C135 501.4 133.6 505.9 130.9 509.6C128.2 513.3 124.4 515.9 119.6 517.4C119.4 517.4 119.3 517.5 119.3 517.6C119.2 517.8 119.2 517.9 119.3 518.1L135.5 551.6C135.7 551.9 135.7 552.1 135.7 552.3C135.7 552.9 135.3 553.2 134.4 553.2H123.4C122.6 553.2 122 552.8 121.7 552.1ZM91.3999 484.7V507.6C91.3999 508 91.5999 508.2 91.9999 508.2H109.3C113 508.2 116 507.1 118.2 504.9C120.5 502.7 121.6 499.8 121.6 496.2C121.6 492.6 120.5 489.7 118.2 487.5C115.9 485.3 113 484.2 109.3 484.2H91.9999C91.5999 484.1 91.3999 484.3 91.3999 484.7Z" fill="#57277E"/>
<path d="M208.6 483.7C208.3 484 208 484.1 207.6 484.1H168.4C168 484.1 167.8 484.3 167.8 484.7V506.2C167.8 506.6 168 506.8 168.4 506.8H194.8C195.2 506.8 195.5 506.9 195.8 507.2C196.1 507.5 196.2 507.8 196.2 508.2V516.9C196.2 517.3 196.1 517.6 195.8 517.9C195.5 518.2 195.2 518.3 194.8 518.3H168.4C168 518.3 167.8 518.5 167.8 518.9V541.1C167.8 541.5 168 541.7 168.4 541.7H207.6C208 541.7 208.3 541.8 208.6 542.1C208.9 542.4 209 542.7 209 543.1V551.8C209 552.2 208.9 552.5 208.6 552.8C208.3 553.1 208 553.2 207.6 553.2H155.8C155.4 553.2 155.1 553.1 154.8 552.8C154.5 552.5 154.4 552.2 154.4 551.8V474C154.4 473.6 154.5 473.3 154.8 473C155.1 472.7 155.4 472.6 155.8 472.6H207.6C208 472.6 208.3 472.7 208.6 473C208.9 473.3 209 473.6 209 474V482.7C209 483.1 208.8 483.4 208.6 483.7ZM174.9 464.8C174.7 464.5 174.8 464.1 175 463.6L181.3 451.7C181.6 451.1 182.2 450.8 183 450.8H192.1C192.6 450.8 193 451 193.2 451.3C193.4 451.6 193.3 452 193 452.5L185.1 464.2C184.7 464.8 184.2 465.1 183.5 465.1H175.9C175.4 465.2 175 465.1 174.9 464.8Z" fill="#57277E"/>
<path d="M228.7 552.8C228.4 552.5 228.3 552.2 228.3 551.8V474C228.3 473.6 228.4 473.3 228.7 473C229 472.7 229.3 472.6 229.7 472.6H257.8C263.2 472.6 268 473.6 272.2 475.5C276.3 477.4 279.5 480.2 281.8 483.7C284.1 487.3 285.2 491.4 285.2 496.2V529.6C285.2 534.4 284.1 538.5 281.8 542.1C279.5 545.7 276.3 548.4 272.2 550.3C268.1 552.2 263.3 553.2 257.8 553.2H229.7C229.3 553.2 229 553 228.7 552.8ZM242.2 541.7H258.3C262.4 541.7 265.6 540.4 268 537.8C270.4 535.2 271.7 531.8 271.7 527.5V498.4C271.7 494 270.5 490.6 268 488C265.5 485.4 262.2 484.1 258.1 484.1H242.1C241.7 484.1 241.5 484.3 241.5 484.7V541.1C241.6 541.5 241.8 541.7 242.2 541.7Z" fill="#57277E"/>
<path d="M305.6 552.8C305.3 552.5 305.2 552.2 305.2 551.8V474C305.2 473.6 305.3 473.3 305.6 473C305.9 472.7 306.2 472.6 306.6 472.6H317.2C317.6 472.6 317.9 472.7 318.2 473C318.5 473.3 318.6 473.6 318.6 474V551.8C318.6 552.2 318.5 552.5 318.2 552.8C317.9 553.1 317.6 553.2 317.2 553.2H306.6C306.2 553.2 305.8 553 305.6 552.8Z" fill="#57277E"/>
<path d="M395 473C395.3 473.3 395.4 473.6 395.4 474V482.9C395.4 483.3 395.3 483.6 395 483.9C394.7 484.2 394.4 484.3 394 484.3H372.8C372.4 484.3 372.2 484.5 372.2 484.9V551.9C372.2 552.3 372.1 552.6 371.8 552.9C371.5 553.2 371.2 553.3 370.8 553.3H360.2C359.8 553.3 359.5 553.2 359.2 552.9C358.9 552.6 358.8 552.3 358.8 551.9V484.9C358.8 484.5 358.6 484.3 358.2 484.3H338C337.6 484.3 337.3 484.2 337 483.9C336.7 483.6 336.6 483.3 336.6 482.9V474C336.6 473.6 336.7 473.3 337 473C337.3 472.7 337.6 472.6 338 472.6H394C394.4 472.6 394.7 472.7 395 473Z" fill="#57277E"/>
<path d="M421.4 550.8C416.9 548.5 413.5 545.1 411.1 540.8C408.7 536.5 407.5 531.6 407.5 526V499.8C407.5 494.3 408.7 489.4 411.2 485.1C413.7 480.8 417.1 477.5 421.5 475.2C425.9 472.9 431 471.7 436.7 471.7C442.5 471.7 447.7 472.9 452.1 475.2C456.5 477.5 459.9 480.8 462.4 485.1C464.9 489.4 466.1 494.2 466.1 499.8V526C466.1 531.6 464.9 536.6 462.4 540.8C459.9 545.1 456.5 548.4 452.1 550.8C447.7 553.1 442.6 554.3 436.7 554.3C431 554.3 425.9 553.2 421.4 550.8ZM448.3 538.3C451.2 535.3 452.7 531.4 452.7 526.4V499.6C452.7 494.6 451.2 490.6 448.3 487.6C445.4 484.6 441.5 483.1 436.7 483.1C431.9 483.1 428.1 484.6 425.2 487.6C422.3 490.6 420.8 494.6 420.8 499.6V526.4C420.8 531.3 422.3 535.3 425.2 538.3C428.1 541.3 432 542.8 436.7 542.8C441.6 542.8 445.4 541.3 448.3 538.3Z" fill="#57277E"/>
<path d="M497 551.2C492.5 549.3 489.1 546.6 486.7 543.1C484.3 539.6 483.1 535.6 483.1 530.9V528C483.1 527.6 483.2 527.3 483.5 527C483.8 526.7 484.1 526.6 484.5 526.6H494.7C495.1 526.6 495.4 526.7 495.7 527C496 527.3 496.1 527.6 496.1 528V530.2C496.1 533.7 497.7 536.7 500.8 539C503.9 541.3 508.2 542.5 513.7 542.5C518.4 542.5 521.9 541.5 524.3 539.5C526.7 537.5 527.9 534.9 527.9 531.8C527.9 529.7 527.2 527.8 525.9 526.3C524.6 524.8 522.7 523.4 520.3 522.2C517.9 521 514.3 519.4 509.4 517.6C504 515.6 499.5 513.7 496.2 512C492.8 510.2 490 507.8 487.7 504.8C485.4 501.8 484.3 498 484.3 493.5C484.3 486.7 486.8 481.4 491.7 477.5C496.6 473.6 503.2 471.6 511.4 471.6C517.2 471.6 522.2 472.6 526.6 474.6C531 476.6 534.4 479.4 536.9 482.9C539.4 486.5 540.6 490.6 540.6 495.3V497.3C540.6 497.7 540.5 498 540.2 498.3C539.9 498.6 539.6 498.7 539.2 498.7H528.8C528.4 498.7 528.1 498.6 527.8 498.3C527.5 498 527.4 497.7 527.4 497.3V496C527.4 492.4 525.9 489.3 523 486.9C520 484.4 516 483.2 510.7 483.2C506.5 483.2 503.2 484.1 500.9 485.8C498.6 487.6 497.4 490.1 497.4 493.3C497.4 495.6 498 497.5 499.2 498.9C500.4 500.4 502.3 501.7 504.7 502.9C507.2 504.1 511 505.6 516.1 507.4C521.5 509.5 525.9 511.4 529.2 513C532.5 514.7 535.3 517 537.6 520.1C539.9 523.1 541.1 526.9 541.1 531.4C541.1 538.3 538.5 543.8 533.4 547.9C528.3 552 521.3 554 512.5 554C506.7 554.1 501.5 553.1 497 551.2Z" fill="#57277E"/>
<path d="M658.5 507.7C658.4 507.5 658.1 506.9 658.1 506.9C656.9 504.9 655.9 502.8 654.9 500.7C652.9 496.9 651 493 649 489.1C647 485.3 645.1 481.5 643.1 477.7C641.1 473.9 639.2 470 637.2 466.1C636.3 464.3 635.4 462.5 634.5 460.7C634.4 460.5 634.2 460.3 634.1 460.3C634 460.3 633.9 460.3 633.8 460.3H613.6H595.2H575C574.9 460.3 574.7 460.3 574.7 460.3C574.4 460.4 574.4 460.6 574.6 460.9C576.4 464.3 578.2 467.6 580 471C581.2 473.3 582.5 475.7 583.7 478C585.5 481.4 587.3 484.8 589.1 488.2C590.4 490.6 591.7 493 592.9 495.4C595 499.3 597 503.2 599.1 507.1C599.5 507.9 599.4 508.5 599 509.2C597.9 511.2 596.8 513.2 595.7 515.2C593.9 518.4 592.1 521.7 590.3 524.9C589.4 526.6 588.5 528.2 587.6 529.9C585.7 533.3 583.9 536.6 582.1 540C580.9 542.3 579.6 544.6 578.4 546.8C576.8 549.7 575.2 552.5 573.7 555.4C573.6 555.6 573.4 555.9 573.3 556.1C573.2 556.2 573.2 556.4 573.1 556.5C573.3 556.5 573.6 556.5 573.8 556.5C581.7 556.5 589.6 556.5 597.4 556.5C602.3 556.5 607.2 556.5 612.1 556.5C612.1 556.5 612.1 556.5 612.2 556.5C614 556.5 615.8 556.5 617.6 556.5C622.5 556.5 627.4 556.5 632.3 556.5C632.8 556.5 633.1 556.4 633.3 555.9C633.4 555.7 633.5 555.5 633.6 555.3C634 554.6 634.4 554 634.7 553.3C636.2 550.4 637.7 547.5 639.3 544.6C640.9 541.6 642.5 538.6 644.1 535.6C645.8 532.4 647.5 529.3 649.1 526.2C650.8 523.1 652.4 520 654 516.9C655.3 514.5 656.5 512.2 657.8 509.8C657.9 509.7 657.9 509.5 658.1 509.3C658.1 509.3 658.4 508.7 658.5 508.5C658.6 508.1 658.6 507.9 658.5 507.7Z" fill="#E32385"/>
</g>
<defs>
<clipPath id="clip0_1365_726">
<rect width="1001.7" height="556.5" fill="white"/>
</clipPath>
</defs>
</svg>

