<svg width="94" height="53" viewBox="0 0 94 53" fill="none" xmlns="http://www.w3.org/2000/svg">
<path d="M20.9196 0.233896C21.0787 0.0748466 21.2939 0 21.5652 0H30.7994C31.0707 0 31.2859 0.0748466 31.4449 0.233896C31.604 0.392945 31.6788 0.608129 31.6788 0.879448V40.0242C31.6788 40.2955 31.604 40.5107 31.4449 40.6698C31.2859 40.8288 31.0707 40.9037 30.7994 40.9037H21.5652C21.2939 40.9037 21.0787 40.8288 20.9196 40.6698C20.7606 40.5107 20.6857 40.2955 20.6857 40.0242V25.1859C20.6857 25.0268 20.5548 24.8959 20.3957 24.8959H11.2831C11.1241 24.8959 10.9931 25.0268 10.9931 25.1859V40.0242C10.9931 40.2955 10.9183 40.5107 10.7592 40.6698C10.6002 40.8288 10.385 40.9037 10.1136 40.9037H0.879448C0.608129 40.9037 0.392945 40.8288 0.233896 40.6698C0.0748466 40.5107 0 40.2955 0 40.0242V0.879448C0 0.608129 0.0748466 0.392945 0.233896 0.233896C0.392945 0.0748466 0.598773 0 0.879448 0H10.1043C10.3756 0 10.5908 0.0748466 10.7498 0.233896C10.9089 0.392945 10.9837 0.608129 10.9837 0.879448V15.1939C10.9837 15.3529 11.1147 15.4839 11.2738 15.4839H20.3863C20.5454 15.4839 20.6764 15.3529 20.6764 15.1939V0.879448C20.6857 0.608129 20.7606 0.392945 20.9196 0.233896Z" fill="#57277E"/>
<path d="M70.5432 40.174L67.9984 32.1467C67.9329 31.9408 67.7365 31.7911 67.5213 31.7911H50.9615C49.7171 31.7911 48.5944 31.5666 47.6027 31.1175C46.611 30.6684 45.9187 30.1164 45.5257 29.4522C45.4415 29.3212 45.3667 29.1996 45.3012 29.078C45.0486 28.5821 45.3947 28.002 45.9561 28.002H62.8246C63.4047 28.002 63.7041 27.7307 63.7041 27.1787C63.7415 26.8326 63.7602 26.3367 63.7602 25.7192C63.7602 24.8211 63.7041 23.9416 63.5918 23.0902C63.1989 20.5267 62.3194 18.2158 60.9348 16.1669C59.5501 14.118 57.8006 12.5181 55.6768 11.3487C53.553 10.1792 51.2421 9.59912 48.7535 9.59912C45.4789 9.59912 42.6348 10.4318 40.221 12.1065C37.8072 13.7812 36.0763 16.1014 35.0191 19.0579C34.3174 20.9665 33.9619 23.1464 33.9619 25.6069C33.9619 27.9365 34.3923 30.1258 35.2437 32.1467C36.4131 34.9534 38.2843 37.1146 40.8572 38.6303C43.43 40.1459 46.5268 40.9131 50.1475 40.9131C50.344 40.9131 50.5404 40.9131 50.7276 40.9037H70.0193C70.3935 40.8944 70.6555 40.5295 70.5432 40.174ZM45.1234 21.9769L45.3573 21.3313C45.9842 19.7689 47.0975 18.9924 48.688 18.9924C49.5861 18.9924 50.3346 19.1888 50.9427 19.6005C51.5415 20.0122 51.9438 20.5829 52.1403 21.322C52.2619 21.6681 52.3181 21.9301 52.3181 22.0798C52.3181 22.2388 52.2338 22.3137 52.0842 22.3137H45.4228C45.348 22.3137 45.2638 22.2856 45.1889 22.2295C45.1047 22.1827 45.086 22.0891 45.1234 21.9769Z" fill="#57277E"/>
<path d="M92.9503 10.0294H83.3699C82.8273 10.0294 82.4905 10.282 82.3782 10.7872L79.2253 26.3834C79.1879 26.5425 79.1224 26.6173 79.0475 26.6173C78.9727 26.6173 78.9165 26.5425 78.8698 26.3834L75.7168 10.7872C75.5952 10.282 75.2678 10.0294 74.7251 10.0294H64.9109C64.3682 10.0294 64.0969 10.2446 64.0969 10.675C64.0969 10.834 64.1156 10.9463 64.153 11.0211L73.3685 40.1926C73.3779 40.2207 73.3872 40.2487 73.3872 40.2768L73.4247 40.4826C73.434 40.5481 73.434 40.623 73.4247 40.6978C73.2376 41.6521 72.6388 42.279 71.6003 42.5783C70.5337 42.8871 68.7093 43.0461 66.1365 43.0461C66.0429 43.0461 65.9681 43.0648 65.9026 43.0836C65.8371 43.0555 65.7716 43.0461 65.6968 43.0461H63.3017C63.4139 43.2613 63.5356 43.5046 63.5823 43.6075C63.7695 43.9724 63.9566 44.3372 64.1437 44.7021C64.3308 45.067 64.5179 45.4225 64.6957 45.7874C64.8828 46.1523 65.0699 46.5171 65.257 46.882C65.3599 47.0785 65.4629 47.275 65.5658 47.4714C65.6406 47.6118 65.5471 47.7334 65.5377 47.7428C65.4161 47.9673 65.3038 48.1918 65.1822 48.4164C65.0231 48.7064 64.8734 49.0058 64.7144 49.2958C64.5553 49.5952 64.3963 49.8946 64.2372 50.194C64.0876 50.4747 63.9379 50.7647 63.7882 51.0454C63.6478 51.3167 63.4981 51.588 63.3578 51.8687C63.3204 51.9342 63.2923 51.9903 63.2549 52.0558H65.6874C65.7248 52.0558 65.8652 52.0558 65.8932 52.0558H66.3049C70.4308 52.0558 73.6211 51.6629 75.8572 50.8863C78.1026 50.1098 79.7773 48.9403 80.9093 47.3779C82.032 45.8155 83.108 43.542 84.1184 40.5388L93.652 11.0211C93.8484 10.3662 93.6145 10.0294 92.9503 10.0294Z" fill="#57277E"/>
<path d="M1.31886 51.5226C0.907201 51.3074 0.589103 51.0174 0.373919 50.6338C0.149379 50.2502 0.0371094 49.8105 0.0371094 49.3052V46.6482C0.0371094 46.143 0.149379 45.7032 0.373919 45.3197C0.598459 44.9361 0.916557 44.646 1.31886 44.4402C1.73051 44.2344 2.19831 44.1315 2.74094 44.1315C3.27423 44.1315 3.74202 44.2344 4.15367 44.4309C4.56533 44.6273 4.87407 44.9174 5.09861 45.2822C5.32315 45.6471 5.43542 46.0681 5.43542 46.5546C5.43542 46.5921 5.42607 46.6201 5.398 46.6482C5.36993 46.6763 5.34186 46.6856 5.30444 46.6856L4.31272 46.7417C4.22852 46.7417 4.18174 46.7043 4.18174 46.6201C4.18174 46.1991 4.05076 45.8529 3.7888 45.6003C3.52683 45.3384 3.18067 45.2167 2.74094 45.2167C2.30122 45.2167 1.95505 45.3477 1.68374 45.6003C1.42177 45.8623 1.28143 46.1991 1.28143 46.6201V49.3614C1.28143 49.7824 1.41242 50.1192 1.68374 50.3718C1.9457 50.6338 2.30122 50.7554 2.74094 50.7554C3.18067 50.7554 3.52683 50.6244 3.7888 50.3718C4.05076 50.1192 4.18174 49.7824 4.18174 49.352C4.18174 49.2772 4.22852 49.2304 4.31272 49.2304L5.30444 49.2772C5.34186 49.2772 5.36993 49.2865 5.398 49.3052C5.42607 49.324 5.43542 49.352 5.43542 49.3801C5.43542 49.8666 5.32315 50.297 5.09861 50.6712C4.87407 51.0454 4.55597 51.3261 4.15367 51.5226C3.74202 51.719 3.27423 51.822 2.74094 51.822C2.19831 51.8407 1.73051 51.7378 1.31886 51.5226Z" fill="#57277E"/>
<path d="M11.3858 51.6535L9.9637 48.5567C9.94498 48.5286 9.92627 48.5099 9.89821 48.5099H8.6071C8.56968 48.5099 8.55097 48.5286 8.55097 48.566V51.6254C8.55097 51.6628 8.54161 51.6909 8.51354 51.7189C8.48548 51.747 8.45741 51.7564 8.41998 51.7564H7.43762C7.4002 51.7564 7.37213 51.747 7.34406 51.7189C7.316 51.6909 7.30664 51.6628 7.30664 51.6254V44.3466C7.30664 44.3091 7.316 44.2811 7.34406 44.253C7.37213 44.2249 7.4002 44.2156 7.43762 44.2156H10.4034C10.8431 44.2156 11.2267 44.3091 11.5635 44.4869C11.9004 44.674 12.1623 44.9266 12.3494 45.2634C12.5365 45.6002 12.6301 45.9838 12.6301 46.4142C12.6301 46.9101 12.4991 47.3311 12.2465 47.6772C11.9939 48.0234 11.6384 48.2667 11.1893 48.407C11.1706 48.407 11.1612 48.4163 11.1612 48.4257C11.1519 48.4444 11.1519 48.4538 11.1612 48.4725L12.6769 51.6067C12.6956 51.6347 12.6956 51.6535 12.6956 51.6722C12.6956 51.7283 12.6582 51.7564 12.574 51.7564H11.5448C11.47 51.7564 11.4138 51.7189 11.3858 51.6535ZM8.55097 45.3476V47.4901C8.55097 47.5275 8.56968 47.5463 8.6071 47.5463H10.2257C10.5718 47.5463 10.8525 47.4433 11.0583 47.2375C11.2735 47.0317 11.3764 46.7604 11.3764 46.4236C11.3764 46.0867 11.2735 45.8154 11.0583 45.6096C10.8431 45.4038 10.5718 45.3009 10.2257 45.3009H8.6071C8.56968 45.2915 8.55097 45.3102 8.55097 45.3476Z" fill="#57277E"/>
<path d="M19.5162 45.2541C19.4881 45.2822 19.46 45.2915 19.4226 45.2915H15.7551C15.7177 45.2915 15.699 45.3102 15.699 45.3477V47.3592C15.699 47.3966 15.7177 47.4153 15.7551 47.4153H18.2251C18.2625 47.4153 18.2906 47.4246 18.3186 47.4527C18.3467 47.4808 18.356 47.5088 18.356 47.5463V48.3602C18.356 48.3977 18.3467 48.4257 18.3186 48.4538C18.2906 48.4819 18.2625 48.4912 18.2251 48.4912H15.7551C15.7177 48.4912 15.699 48.5099 15.699 48.5473V50.6243C15.699 50.6618 15.7177 50.6805 15.7551 50.6805H19.4226C19.46 50.6805 19.4881 50.6898 19.5162 50.7179C19.5442 50.746 19.5536 50.774 19.5536 50.8115V51.6254C19.5536 51.6628 19.5442 51.6909 19.5162 51.719C19.4881 51.747 19.46 51.7564 19.4226 51.7564H14.5763C14.5389 51.7564 14.5108 51.747 14.4827 51.719C14.4547 51.6909 14.4453 51.6628 14.4453 51.6254V44.3466C14.4453 44.3092 14.4547 44.2811 14.4827 44.253C14.5108 44.225 14.5389 44.2156 14.5763 44.2156H19.4226C19.46 44.2156 19.4881 44.225 19.5162 44.253C19.5442 44.2811 19.5536 44.3092 19.5536 44.3466V45.1605C19.5536 45.198 19.5349 45.226 19.5162 45.2541ZM16.3633 43.4858C16.3445 43.4578 16.3539 43.4204 16.3726 43.3736L16.962 42.2602C16.9901 42.2041 17.0462 42.176 17.1211 42.176H17.9725C18.0192 42.176 18.0567 42.1947 18.0754 42.2228C18.0941 42.2509 18.0847 42.2883 18.0567 42.3351L17.3176 43.4297C17.2801 43.4858 17.2333 43.5139 17.1679 43.5139H16.4568C16.41 43.5233 16.3726 43.5139 16.3633 43.4858Z" fill="#57277E"/>
<path d="M21.3968 51.7189C21.3687 51.6909 21.3594 51.6628 21.3594 51.6254V44.3466C21.3594 44.3091 21.3687 44.2811 21.3968 44.253C21.4249 44.2249 21.4529 44.2156 21.4904 44.2156H24.1193C24.6246 44.2156 25.0736 44.3091 25.4666 44.4869C25.8502 44.6647 26.1496 44.9266 26.3647 45.2541C26.5799 45.5909 26.6828 45.9745 26.6828 46.4236V49.5484C26.6828 49.9975 26.5799 50.3811 26.3647 50.7179C26.1496 51.0547 25.8502 51.3073 25.4666 51.4851C25.083 51.6628 24.6339 51.7564 24.1193 51.7564H21.4904C21.4529 51.7564 21.4249 51.7377 21.3968 51.7189ZM22.6598 50.6805H24.1661C24.5497 50.6805 24.8491 50.5588 25.0736 50.3156C25.2982 50.0723 25.4198 49.7542 25.4198 49.3519V46.6294C25.4198 46.2177 25.3075 45.8996 25.0736 45.6564C24.8397 45.4131 24.531 45.2915 24.1474 45.2915H22.6505C22.6131 45.2915 22.5943 45.3102 22.5943 45.3476V50.6243C22.6037 50.6617 22.6224 50.6805 22.6598 50.6805Z" fill="#57277E"/>
<path d="M28.5911 51.7189C28.5631 51.6909 28.5537 51.6628 28.5537 51.6254V44.3466C28.5537 44.3091 28.5631 44.2811 28.5911 44.253C28.6192 44.2249 28.6473 44.2156 28.6847 44.2156H29.6764C29.7138 44.2156 29.7419 44.2249 29.77 44.253C29.798 44.2811 29.8074 44.3091 29.8074 44.3466V51.6254C29.8074 51.6628 29.798 51.6909 29.77 51.7189C29.7419 51.747 29.7138 51.7564 29.6764 51.7564H28.6847C28.6473 51.7564 28.6098 51.7377 28.5911 51.7189Z" fill="#57277E"/>
<path d="M36.955 44.253C36.9831 44.2811 36.9924 44.3091 36.9924 44.3466V45.1792C36.9924 45.2166 36.9831 45.2447 36.955 45.2728C36.9269 45.3009 36.8989 45.3102 36.8615 45.3102H34.878C34.8406 45.3102 34.8219 45.3289 34.8219 45.3663V51.6347C34.8219 51.6722 34.8125 51.7002 34.7845 51.7283C34.7564 51.7564 34.7283 51.7657 34.6909 51.7657H33.6992C33.6618 51.7657 33.6337 51.7564 33.6056 51.7283C33.5776 51.7002 33.5682 51.6722 33.5682 51.6347V45.3663C33.5682 45.3289 33.5495 45.3102 33.5121 45.3102H31.6222C31.5848 45.3102 31.5567 45.3009 31.5286 45.2728C31.5006 45.2447 31.4912 45.2166 31.4912 45.1792V44.3466C31.4912 44.3091 31.5006 44.2811 31.5286 44.253C31.5567 44.2249 31.5848 44.2156 31.6222 44.2156H36.8615C36.8989 44.2156 36.9269 44.2249 36.955 44.253Z" fill="#57277E"/>
<path d="M39.4255 51.5319C39.0044 51.3167 38.6864 50.9986 38.4618 50.5963C38.2373 50.194 38.125 49.7356 38.125 49.2117V46.7605C38.125 46.2459 38.2373 45.7875 38.4712 45.3852C38.7051 44.9828 39.0232 44.6741 39.4348 44.4589C39.8465 44.2437 40.3236 44.1315 40.8569 44.1315C41.3995 44.1315 41.886 44.2437 42.2977 44.4589C42.7094 44.6741 43.0275 44.9828 43.2613 45.3852C43.4952 45.7875 43.6075 46.2365 43.6075 46.7605V49.2117C43.6075 49.7356 43.4952 50.2034 43.2613 50.5963C43.0275 50.9986 42.7094 51.3074 42.2977 51.5319C41.886 51.7471 41.4089 51.8594 40.8569 51.8594C40.3236 51.8594 39.8465 51.7565 39.4255 51.5319ZM41.9422 50.3624C42.2135 50.0818 42.3538 49.7169 42.3538 49.2491V46.7417C42.3538 46.274 42.2135 45.8997 41.9422 45.619C41.6709 45.3384 41.306 45.198 40.8569 45.198C40.4078 45.198 40.0523 45.3384 39.781 45.619C39.5097 45.8997 39.3693 46.274 39.3693 46.7417V49.2491C39.3693 49.7075 39.5097 50.0818 39.781 50.3624C40.0523 50.6431 40.4172 50.7835 40.8569 50.7835C41.3153 50.7835 41.6709 50.6431 41.9422 50.3624Z" fill="#57277E"/>
<path d="M46.4977 51.5693C46.0767 51.3915 45.7586 51.1389 45.5341 50.8115C45.3095 50.484 45.1973 50.1098 45.1973 49.6701V49.3988C45.1973 49.3613 45.2066 49.3333 45.2347 49.3052C45.2628 49.2771 45.2908 49.2678 45.3282 49.2678H46.2825C46.32 49.2678 46.348 49.2771 46.3761 49.3052C46.4042 49.3333 46.4135 49.3613 46.4135 49.3988V49.6046C46.4135 49.932 46.5632 50.2127 46.8532 50.4279C47.1433 50.6431 47.5456 50.7554 48.0601 50.7554C48.4999 50.7554 48.8273 50.6618 49.0519 50.4747C49.2764 50.2876 49.3887 50.0443 49.3887 49.7543C49.3887 49.5578 49.3232 49.38 49.2016 49.2397C49.0799 49.0994 48.9022 48.9684 48.6776 48.8561C48.4531 48.7438 48.1163 48.5942 47.6578 48.4257C47.1526 48.2386 46.7316 48.0609 46.4229 47.9018C46.1048 47.7334 45.8428 47.5089 45.6276 47.2282C45.4125 46.9475 45.3095 46.592 45.3095 46.171C45.3095 45.5348 45.5434 45.0389 46.0019 44.6741C46.4603 44.3092 47.0778 44.1221 47.845 44.1221C48.3876 44.1221 48.8554 44.2156 49.267 44.4027C49.6787 44.5899 49.9968 44.8518 50.2307 45.1793C50.4646 45.5161 50.5769 45.8997 50.5769 46.3394V46.5265C50.5769 46.5639 50.5675 46.592 50.5394 46.6201C50.5114 46.6481 50.4833 46.6575 50.4459 46.6575H49.4729C49.4355 46.6575 49.4074 46.6481 49.3793 46.6201C49.3513 46.592 49.3419 46.5639 49.3419 46.5265V46.4049C49.3419 46.0681 49.2016 45.7781 48.9302 45.5535C48.6496 45.3196 48.2753 45.2073 47.7795 45.2073C47.3865 45.2073 47.0778 45.2915 46.8626 45.4506C46.6474 45.619 46.5351 45.8529 46.5351 46.1523C46.5351 46.3675 46.5913 46.5452 46.7036 46.6762C46.8158 46.8165 46.9936 46.9382 47.2181 47.0504C47.452 47.1627 47.8075 47.3031 48.2847 47.4715C48.7899 47.6679 49.2016 47.8457 49.5103 47.9954C49.819 48.1544 50.081 48.3696 50.2962 48.6596C50.5114 48.9403 50.6236 49.2958 50.6236 49.7169C50.6236 50.3624 50.3804 50.877 49.9032 51.2606C49.4261 51.6442 48.7712 51.8313 47.9479 51.8313C47.4052 51.8406 46.9187 51.7471 46.4977 51.5693Z" fill="#57277E"/>
<path d="M61.608 47.4996C61.5987 47.4809 61.5706 47.4248 61.5706 47.4248C61.4583 47.2376 61.3648 47.0412 61.2712 46.8447C61.0841 46.4892 60.9064 46.1243 60.7192 45.7594C60.5321 45.4039 60.3544 45.0484 60.1672 44.6929C59.9801 44.3373 59.8024 43.9725 59.6153 43.6076C59.5311 43.4392 59.4468 43.2708 59.3626 43.1024C59.3533 43.0837 59.3346 43.0649 59.3252 43.0649C59.3159 43.0649 59.3065 43.0649 59.2972 43.0649H57.4073H55.6858H53.7959C53.7866 43.0649 53.7679 43.0649 53.7679 43.0649C53.7398 43.0743 53.7398 43.093 53.7585 43.1211C53.9269 43.4392 54.0953 43.7479 54.2637 44.066C54.376 44.2812 54.4976 44.5057 54.6099 44.7209C54.7783 45.039 54.9467 45.3571 55.1151 45.6752C55.2367 45.8998 55.3584 46.1243 55.4706 46.3488C55.6671 46.7137 55.8542 47.0786 56.0507 47.4435C56.0881 47.5183 56.0787 47.5745 56.0413 47.6399C55.9384 47.8271 55.8355 48.0142 55.7326 48.2013C55.5642 48.5007 55.3958 48.8094 55.2274 49.1088C55.1432 49.2679 55.059 49.4176 54.9748 49.5766C54.797 49.8947 54.6286 50.2034 54.4602 50.5215C54.3479 50.7367 54.2263 50.9519 54.114 51.1577C53.9643 51.4291 53.8146 51.691 53.6743 51.9623C53.6649 51.981 53.6462 52.0091 53.6369 52.0278C53.6275 52.0372 53.6275 52.0559 53.6182 52.0652C53.6369 52.0652 53.6649 52.0652 53.6837 52.0652C54.4228 52.0652 55.1619 52.0652 55.8916 52.0652C56.3501 52.0652 56.8085 52.0652 57.2669 52.0652C57.2669 52.0652 57.2669 52.0652 57.2763 52.0652C57.4447 52.0652 57.6131 52.0652 57.7815 52.0652C58.2399 52.0652 58.6984 52.0652 59.1568 52.0652C59.2036 52.0652 59.2317 52.0559 59.2504 52.0091C59.2597 51.9904 59.2691 51.9717 59.2784 51.953C59.3159 51.8875 59.3533 51.8314 59.3814 51.7659C59.5217 51.4945 59.662 51.2232 59.8117 50.9519C59.9614 50.6712 60.1111 50.3906 60.2608 50.1099C60.4199 49.8105 60.5789 49.5205 60.7286 49.2304C60.8876 48.9404 61.0373 48.6504 61.187 48.3603C61.3087 48.1358 61.4209 47.9206 61.5426 47.6961C61.5519 47.6867 61.5519 47.668 61.5706 47.6493C61.5706 47.6493 61.5987 47.5932 61.608 47.5745C61.6174 47.537 61.6174 47.5183 61.608 47.4996Z" fill="#E32385"/>
</svg>
